G04 #@! TF.GenerationSoftware,KiCad,Pcbnew,(6.0.2)*
G04 #@! TF.CreationDate,2022-07-18T21:19:02-05:00*
G04 #@! TF.ProjectId,paperd_ink_rev4,70617065-7264-45f6-996e-6b5f72657634,rev?*
G04 #@! TF.SameCoordinates,Original*
G04 #@! TF.FileFunction,AssemblyDrawing,Bot*
%FSLAX46Y46*%
G04 Gerber Fmt 4.6, Leading zero omitted, Abs format (unit mm)*
G04 Created by KiCad (PCBNEW (6.0.2)) date 2022-07-18 21:19:02*
%MOMM*%
%LPD*%
G01*
G04 APERTURE LIST*
%ADD10C,0.040000*%
%ADD11C,0.150000*%
%ADD12C,0.075000*%
%ADD13C,0.060000*%
%ADD14C,0.120000*%
%ADD15C,0.080000*%
%ADD16C,0.100000*%
%ADD17C,0.125000*%
%ADD18C,0.050000*%
G04 APERTURE END LIST*
D10*
X126293095Y-93147379D02*
X126174047Y-93064046D01*
X126293095Y-93004522D02*
X126043095Y-93004522D01*
X126043095Y-93099760D01*
X126055000Y-93123570D01*
X126066904Y-93135474D01*
X126090714Y-93147379D01*
X126126428Y-93147379D01*
X126150238Y-93135474D01*
X126162142Y-93123570D01*
X126174047Y-93099760D01*
X126174047Y-93004522D01*
X126066904Y-93242617D02*
X126055000Y-93254522D01*
X126043095Y-93278332D01*
X126043095Y-93337855D01*
X126055000Y-93361665D01*
X126066904Y-93373570D01*
X126090714Y-93385474D01*
X126114523Y-93385474D01*
X126150238Y-93373570D01*
X126293095Y-93230713D01*
X126293095Y-93385474D01*
X126043095Y-93540236D02*
X126043095Y-93564046D01*
X126055000Y-93587855D01*
X126066904Y-93599760D01*
X126090714Y-93611665D01*
X126138333Y-93623570D01*
X126197857Y-93623570D01*
X126245476Y-93611665D01*
X126269285Y-93599760D01*
X126281190Y-93587855D01*
X126293095Y-93564046D01*
X126293095Y-93540236D01*
X126281190Y-93516427D01*
X126269285Y-93504522D01*
X126245476Y-93492617D01*
X126197857Y-93480713D01*
X126138333Y-93480713D01*
X126090714Y-93492617D01*
X126066904Y-93504522D01*
X126055000Y-93516427D01*
X126043095Y-93540236D01*
X125409285Y-71354285D02*
X125421190Y-71342380D01*
X125433095Y-71306666D01*
X125433095Y-71282857D01*
X125421190Y-71247142D01*
X125397380Y-71223333D01*
X125373571Y-71211428D01*
X125325952Y-71199523D01*
X125290238Y-71199523D01*
X125242619Y-71211428D01*
X125218809Y-71223333D01*
X125195000Y-71247142D01*
X125183095Y-71282857D01*
X125183095Y-71306666D01*
X125195000Y-71342380D01*
X125206904Y-71354285D01*
X125433095Y-71592380D02*
X125433095Y-71449523D01*
X125433095Y-71520952D02*
X125183095Y-71520952D01*
X125218809Y-71497142D01*
X125242619Y-71473333D01*
X125254523Y-71449523D01*
X125433095Y-71711428D02*
X125433095Y-71759047D01*
X125421190Y-71782857D01*
X125409285Y-71794761D01*
X125373571Y-71818571D01*
X125325952Y-71830476D01*
X125230714Y-71830476D01*
X125206904Y-71818571D01*
X125195000Y-71806666D01*
X125183095Y-71782857D01*
X125183095Y-71735238D01*
X125195000Y-71711428D01*
X125206904Y-71699523D01*
X125230714Y-71687619D01*
X125290238Y-71687619D01*
X125314047Y-71699523D01*
X125325952Y-71711428D01*
X125337857Y-71735238D01*
X125337857Y-71782857D01*
X125325952Y-71806666D01*
X125314047Y-71818571D01*
X125290238Y-71830476D01*
D11*
X129817380Y-112531904D02*
X128817380Y-112531904D01*
X128817380Y-112770000D01*
X128865000Y-112912857D01*
X128960238Y-113008095D01*
X129055476Y-113055714D01*
X129245952Y-113103333D01*
X129388809Y-113103333D01*
X129579285Y-113055714D01*
X129674523Y-113008095D01*
X129769761Y-112912857D01*
X129817380Y-112770000D01*
X129817380Y-112531904D01*
X129817380Y-114055714D02*
X129817380Y-113484285D01*
X129817380Y-113770000D02*
X128817380Y-113770000D01*
X128960238Y-113674761D01*
X129055476Y-113579523D01*
X129103095Y-113484285D01*
D12*
X128527619Y-76063809D02*
X128575238Y-76040000D01*
X128622857Y-75992380D01*
X128694285Y-75920952D01*
X128741904Y-75897142D01*
X128789523Y-75897142D01*
X128765714Y-76016190D02*
X128813333Y-75992380D01*
X128860952Y-75944761D01*
X128884761Y-75849523D01*
X128884761Y-75682857D01*
X128860952Y-75587619D01*
X128813333Y-75540000D01*
X128765714Y-75516190D01*
X128670476Y-75516190D01*
X128622857Y-75540000D01*
X128575238Y-75587619D01*
X128551428Y-75682857D01*
X128551428Y-75849523D01*
X128575238Y-75944761D01*
X128622857Y-75992380D01*
X128670476Y-76016190D01*
X128765714Y-76016190D01*
X128122857Y-75682857D02*
X128122857Y-76016190D01*
X128241904Y-75492380D02*
X128360952Y-75849523D01*
X128051428Y-75849523D01*
D13*
X134982857Y-119125357D02*
X135001904Y-119106309D01*
X135020952Y-119049166D01*
X135020952Y-119011071D01*
X135001904Y-118953928D01*
X134963809Y-118915833D01*
X134925714Y-118896785D01*
X134849523Y-118877738D01*
X134792380Y-118877738D01*
X134716190Y-118896785D01*
X134678095Y-118915833D01*
X134640000Y-118953928D01*
X134620952Y-119011071D01*
X134620952Y-119049166D01*
X134640000Y-119106309D01*
X134659047Y-119125357D01*
X135020952Y-119506309D02*
X135020952Y-119277738D01*
X135020952Y-119392023D02*
X134620952Y-119392023D01*
X134678095Y-119353928D01*
X134716190Y-119315833D01*
X134735238Y-119277738D01*
X134620952Y-119849166D02*
X134620952Y-119772976D01*
X134640000Y-119734880D01*
X134659047Y-119715833D01*
X134716190Y-119677738D01*
X134792380Y-119658690D01*
X134944761Y-119658690D01*
X134982857Y-119677738D01*
X135001904Y-119696785D01*
X135020952Y-119734880D01*
X135020952Y-119811071D01*
X135001904Y-119849166D01*
X134982857Y-119868214D01*
X134944761Y-119887261D01*
X134849523Y-119887261D01*
X134811428Y-119868214D01*
X134792380Y-119849166D01*
X134773333Y-119811071D01*
X134773333Y-119734880D01*
X134792380Y-119696785D01*
X134811428Y-119677738D01*
X134849523Y-119658690D01*
D11*
X128178095Y-112872380D02*
X128178095Y-111872380D01*
X127940000Y-111872380D01*
X127797142Y-111920000D01*
X127701904Y-112015238D01*
X127654285Y-112110476D01*
X127606666Y-112300952D01*
X127606666Y-112443809D01*
X127654285Y-112634285D01*
X127701904Y-112729523D01*
X127797142Y-112824761D01*
X127940000Y-112872380D01*
X128178095Y-112872380D01*
X127273333Y-111872380D02*
X126654285Y-111872380D01*
X126987619Y-112253333D01*
X126844761Y-112253333D01*
X126749523Y-112300952D01*
X126701904Y-112348571D01*
X126654285Y-112443809D01*
X126654285Y-112681904D01*
X126701904Y-112777142D01*
X126749523Y-112824761D01*
X126844761Y-112872380D01*
X127130476Y-112872380D01*
X127225714Y-112824761D01*
X127273333Y-112777142D01*
D13*
X118680952Y-118983333D02*
X118490476Y-118850000D01*
X118680952Y-118754761D02*
X118280952Y-118754761D01*
X118280952Y-118907142D01*
X118300000Y-118945238D01*
X118319047Y-118964285D01*
X118357142Y-118983333D01*
X118414285Y-118983333D01*
X118452380Y-118964285D01*
X118471428Y-118945238D01*
X118490476Y-118907142D01*
X118490476Y-118754761D01*
X118280952Y-119326190D02*
X118280952Y-119250000D01*
X118300000Y-119211904D01*
X118319047Y-119192857D01*
X118376190Y-119154761D01*
X118452380Y-119135714D01*
X118604761Y-119135714D01*
X118642857Y-119154761D01*
X118661904Y-119173809D01*
X118680952Y-119211904D01*
X118680952Y-119288095D01*
X118661904Y-119326190D01*
X118642857Y-119345238D01*
X118604761Y-119364285D01*
X118509523Y-119364285D01*
X118471428Y-119345238D01*
X118452380Y-119326190D01*
X118433333Y-119288095D01*
X118433333Y-119211904D01*
X118452380Y-119173809D01*
X118471428Y-119154761D01*
X118509523Y-119135714D01*
D10*
X126143095Y-76533333D02*
X126024047Y-76450000D01*
X126143095Y-76390476D02*
X125893095Y-76390476D01*
X125893095Y-76485714D01*
X125905000Y-76509523D01*
X125916904Y-76521428D01*
X125940714Y-76533333D01*
X125976428Y-76533333D01*
X126000238Y-76521428D01*
X126012142Y-76509523D01*
X126024047Y-76485714D01*
X126024047Y-76390476D01*
X126143095Y-76652380D02*
X126143095Y-76700000D01*
X126131190Y-76723809D01*
X126119285Y-76735714D01*
X126083571Y-76759523D01*
X126035952Y-76771428D01*
X125940714Y-76771428D01*
X125916904Y-76759523D01*
X125905000Y-76747619D01*
X125893095Y-76723809D01*
X125893095Y-76676190D01*
X125905000Y-76652380D01*
X125916904Y-76640476D01*
X125940714Y-76628571D01*
X126000238Y-76628571D01*
X126024047Y-76640476D01*
X126035952Y-76652380D01*
X126047857Y-76676190D01*
X126047857Y-76723809D01*
X126035952Y-76747619D01*
X126024047Y-76759523D01*
X126000238Y-76771428D01*
X126143095Y-74384285D02*
X126024047Y-74300952D01*
X126143095Y-74241428D02*
X125893095Y-74241428D01*
X125893095Y-74336666D01*
X125905000Y-74360476D01*
X125916904Y-74372380D01*
X125940714Y-74384285D01*
X125976428Y-74384285D01*
X126000238Y-74372380D01*
X126012142Y-74360476D01*
X126024047Y-74336666D01*
X126024047Y-74241428D01*
X126143095Y-74622380D02*
X126143095Y-74479523D01*
X126143095Y-74550952D02*
X125893095Y-74550952D01*
X125928809Y-74527142D01*
X125952619Y-74503333D01*
X125964523Y-74479523D01*
X125893095Y-74777142D02*
X125893095Y-74800952D01*
X125905000Y-74824761D01*
X125916904Y-74836666D01*
X125940714Y-74848571D01*
X125988333Y-74860476D01*
X126047857Y-74860476D01*
X126095476Y-74848571D01*
X126119285Y-74836666D01*
X126131190Y-74824761D01*
X126143095Y-74800952D01*
X126143095Y-74777142D01*
X126131190Y-74753333D01*
X126119285Y-74741428D01*
X126095476Y-74729523D01*
X126047857Y-74717619D01*
X125988333Y-74717619D01*
X125940714Y-74729523D01*
X125916904Y-74741428D01*
X125905000Y-74753333D01*
X125893095Y-74777142D01*
X125043095Y-93087379D02*
X124924047Y-93004046D01*
X125043095Y-92944522D02*
X124793095Y-92944522D01*
X124793095Y-93039760D01*
X124805000Y-93063570D01*
X124816904Y-93075474D01*
X124840714Y-93087379D01*
X124876428Y-93087379D01*
X124900238Y-93075474D01*
X124912142Y-93063570D01*
X124924047Y-93039760D01*
X124924047Y-92944522D01*
X125043095Y-93325474D02*
X125043095Y-93182617D01*
X125043095Y-93254046D02*
X124793095Y-93254046D01*
X124828809Y-93230236D01*
X124852619Y-93206427D01*
X124864523Y-93182617D01*
X125043095Y-93444522D02*
X125043095Y-93492141D01*
X125031190Y-93515951D01*
X125019285Y-93527855D01*
X124983571Y-93551665D01*
X124935952Y-93563570D01*
X124840714Y-93563570D01*
X124816904Y-93551665D01*
X124805000Y-93539760D01*
X124793095Y-93515951D01*
X124793095Y-93468332D01*
X124805000Y-93444522D01*
X124816904Y-93432617D01*
X124840714Y-93420713D01*
X124900238Y-93420713D01*
X124924047Y-93432617D01*
X124935952Y-93444522D01*
X124947857Y-93468332D01*
X124947857Y-93515951D01*
X124935952Y-93539760D01*
X124924047Y-93551665D01*
X124900238Y-93563570D01*
D11*
X141060238Y-132948571D02*
X140917380Y-132996190D01*
X140869761Y-133043809D01*
X140822142Y-133139047D01*
X140822142Y-133281904D01*
X140869761Y-133377142D01*
X140917380Y-133424761D01*
X141012619Y-133472380D01*
X141393571Y-133472380D01*
X141393571Y-132472380D01*
X141060238Y-132472380D01*
X140965000Y-132520000D01*
X140917380Y-132567619D01*
X140869761Y-132662857D01*
X140869761Y-132758095D01*
X140917380Y-132853333D01*
X140965000Y-132900952D01*
X141060238Y-132948571D01*
X141393571Y-132948571D01*
X140441190Y-133186666D02*
X139965000Y-133186666D01*
X140536428Y-133472380D02*
X140203095Y-132472380D01*
X139869761Y-133472380D01*
X139679285Y-132472380D02*
X139107857Y-132472380D01*
X139393571Y-133472380D02*
X139393571Y-132472380D01*
X138917380Y-132472380D02*
X138345952Y-132472380D01*
X138631666Y-133472380D02*
X138631666Y-132472380D01*
X137488809Y-133472380D02*
X138060238Y-133472380D01*
X137774523Y-133472380D02*
X137774523Y-132472380D01*
X137869761Y-132615238D01*
X137965000Y-132710476D01*
X138060238Y-132758095D01*
D13*
X128672142Y-116662857D02*
X128691190Y-116681904D01*
X128748333Y-116700952D01*
X128786428Y-116700952D01*
X128843571Y-116681904D01*
X128881666Y-116643809D01*
X128900714Y-116605714D01*
X128919761Y-116529523D01*
X128919761Y-116472380D01*
X128900714Y-116396190D01*
X128881666Y-116358095D01*
X128843571Y-116320000D01*
X128786428Y-116300952D01*
X128748333Y-116300952D01*
X128691190Y-116320000D01*
X128672142Y-116339047D01*
X128291190Y-116700952D02*
X128519761Y-116700952D01*
X128405476Y-116700952D02*
X128405476Y-116300952D01*
X128443571Y-116358095D01*
X128481666Y-116396190D01*
X128519761Y-116415238D01*
X128043571Y-116300952D02*
X128005476Y-116300952D01*
X127967380Y-116320000D01*
X127948333Y-116339047D01*
X127929285Y-116377142D01*
X127910238Y-116453333D01*
X127910238Y-116548571D01*
X127929285Y-116624761D01*
X127948333Y-116662857D01*
X127967380Y-116681904D01*
X128005476Y-116700952D01*
X128043571Y-116700952D01*
X128081666Y-116681904D01*
X128100714Y-116662857D01*
X128119761Y-116624761D01*
X128138809Y-116548571D01*
X128138809Y-116453333D01*
X128119761Y-116377142D01*
X128100714Y-116339047D01*
X128081666Y-116320000D01*
X128043571Y-116300952D01*
D10*
X124059285Y-71354285D02*
X124071190Y-71342380D01*
X124083095Y-71306666D01*
X124083095Y-71282857D01*
X124071190Y-71247142D01*
X124047380Y-71223333D01*
X124023571Y-71211428D01*
X123975952Y-71199523D01*
X123940238Y-71199523D01*
X123892619Y-71211428D01*
X123868809Y-71223333D01*
X123845000Y-71247142D01*
X123833095Y-71282857D01*
X123833095Y-71306666D01*
X123845000Y-71342380D01*
X123856904Y-71354285D01*
X123856904Y-71449523D02*
X123845000Y-71461428D01*
X123833095Y-71485238D01*
X123833095Y-71544761D01*
X123845000Y-71568571D01*
X123856904Y-71580476D01*
X123880714Y-71592380D01*
X123904523Y-71592380D01*
X123940238Y-71580476D01*
X124083095Y-71437619D01*
X124083095Y-71592380D01*
X123833095Y-71747142D02*
X123833095Y-71770952D01*
X123845000Y-71794761D01*
X123856904Y-71806666D01*
X123880714Y-71818571D01*
X123928333Y-71830476D01*
X123987857Y-71830476D01*
X124035476Y-71818571D01*
X124059285Y-71806666D01*
X124071190Y-71794761D01*
X124083095Y-71770952D01*
X124083095Y-71747142D01*
X124071190Y-71723333D01*
X124059285Y-71711428D01*
X124035476Y-71699523D01*
X123987857Y-71687619D01*
X123928333Y-71687619D01*
X123880714Y-71699523D01*
X123856904Y-71711428D01*
X123845000Y-71723333D01*
X123833095Y-71747142D01*
D14*
X121311904Y-114946666D02*
X121311904Y-114565714D01*
X120511904Y-114565714D01*
X121311904Y-115632380D02*
X121311904Y-115175238D01*
X121311904Y-115403809D02*
X120511904Y-115403809D01*
X120626190Y-115327619D01*
X120702380Y-115251428D01*
X120740476Y-115175238D01*
D11*
X113891904Y-78522380D02*
X113891904Y-79331904D01*
X113844285Y-79427142D01*
X113796666Y-79474761D01*
X113701428Y-79522380D01*
X113510952Y-79522380D01*
X113415714Y-79474761D01*
X113368095Y-79427142D01*
X113320476Y-79331904D01*
X113320476Y-78522380D01*
X112415714Y-78522380D02*
X112606190Y-78522380D01*
X112701428Y-78570000D01*
X112749047Y-78617619D01*
X112844285Y-78760476D01*
X112891904Y-78950952D01*
X112891904Y-79331904D01*
X112844285Y-79427142D01*
X112796666Y-79474761D01*
X112701428Y-79522380D01*
X112510952Y-79522380D01*
X112415714Y-79474761D01*
X112368095Y-79427142D01*
X112320476Y-79331904D01*
X112320476Y-79093809D01*
X112368095Y-78998571D01*
X112415714Y-78950952D01*
X112510952Y-78903333D01*
X112701428Y-78903333D01*
X112796666Y-78950952D01*
X112844285Y-78998571D01*
X112891904Y-79093809D01*
D13*
X131696666Y-116662857D02*
X131715714Y-116681904D01*
X131772857Y-116700952D01*
X131810952Y-116700952D01*
X131868095Y-116681904D01*
X131906190Y-116643809D01*
X131925238Y-116605714D01*
X131944285Y-116529523D01*
X131944285Y-116472380D01*
X131925238Y-116396190D01*
X131906190Y-116358095D01*
X131868095Y-116320000D01*
X131810952Y-116300952D01*
X131772857Y-116300952D01*
X131715714Y-116320000D01*
X131696666Y-116339047D01*
X131544285Y-116339047D02*
X131525238Y-116320000D01*
X131487142Y-116300952D01*
X131391904Y-116300952D01*
X131353809Y-116320000D01*
X131334761Y-116339047D01*
X131315714Y-116377142D01*
X131315714Y-116415238D01*
X131334761Y-116472380D01*
X131563333Y-116700952D01*
X131315714Y-116700952D01*
D15*
X123958571Y-118441666D02*
X123982380Y-118417857D01*
X124006190Y-118346428D01*
X124006190Y-118298809D01*
X123982380Y-118227380D01*
X123934761Y-118179761D01*
X123887142Y-118155952D01*
X123791904Y-118132142D01*
X123720476Y-118132142D01*
X123625238Y-118155952D01*
X123577619Y-118179761D01*
X123530000Y-118227380D01*
X123506190Y-118298809D01*
X123506190Y-118346428D01*
X123530000Y-118417857D01*
X123553809Y-118441666D01*
X124006190Y-118679761D02*
X124006190Y-118775000D01*
X123982380Y-118822619D01*
X123958571Y-118846428D01*
X123887142Y-118894047D01*
X123791904Y-118917857D01*
X123601428Y-118917857D01*
X123553809Y-118894047D01*
X123530000Y-118870238D01*
X123506190Y-118822619D01*
X123506190Y-118727380D01*
X123530000Y-118679761D01*
X123553809Y-118655952D01*
X123601428Y-118632142D01*
X123720476Y-118632142D01*
X123768095Y-118655952D01*
X123791904Y-118679761D01*
X123815714Y-118727380D01*
X123815714Y-118822619D01*
X123791904Y-118870238D01*
X123768095Y-118894047D01*
X123720476Y-118917857D01*
D10*
X116703095Y-119528333D02*
X116584047Y-119445000D01*
X116703095Y-119385476D02*
X116453095Y-119385476D01*
X116453095Y-119480714D01*
X116465000Y-119504523D01*
X116476904Y-119516428D01*
X116500714Y-119528333D01*
X116536428Y-119528333D01*
X116560238Y-119516428D01*
X116572142Y-119504523D01*
X116584047Y-119480714D01*
X116584047Y-119385476D01*
X116453095Y-119754523D02*
X116453095Y-119635476D01*
X116572142Y-119623571D01*
X116560238Y-119635476D01*
X116548333Y-119659285D01*
X116548333Y-119718809D01*
X116560238Y-119742619D01*
X116572142Y-119754523D01*
X116595952Y-119766428D01*
X116655476Y-119766428D01*
X116679285Y-119754523D01*
X116691190Y-119742619D01*
X116703095Y-119718809D01*
X116703095Y-119659285D01*
X116691190Y-119635476D01*
X116679285Y-119623571D01*
D15*
X123988571Y-114311666D02*
X124012380Y-114287857D01*
X124036190Y-114216428D01*
X124036190Y-114168809D01*
X124012380Y-114097380D01*
X123964761Y-114049761D01*
X123917142Y-114025952D01*
X123821904Y-114002142D01*
X123750476Y-114002142D01*
X123655238Y-114025952D01*
X123607619Y-114049761D01*
X123560000Y-114097380D01*
X123536190Y-114168809D01*
X123536190Y-114216428D01*
X123560000Y-114287857D01*
X123583809Y-114311666D01*
X123536190Y-114478333D02*
X123536190Y-114811666D01*
X124036190Y-114597380D01*
D12*
X135162619Y-114393809D02*
X135210238Y-114370000D01*
X135257857Y-114322380D01*
X135329285Y-114250952D01*
X135376904Y-114227142D01*
X135424523Y-114227142D01*
X135400714Y-114346190D02*
X135448333Y-114322380D01*
X135495952Y-114274761D01*
X135519761Y-114179523D01*
X135519761Y-114012857D01*
X135495952Y-113917619D01*
X135448333Y-113870000D01*
X135400714Y-113846190D01*
X135305476Y-113846190D01*
X135257857Y-113870000D01*
X135210238Y-113917619D01*
X135186428Y-114012857D01*
X135186428Y-114179523D01*
X135210238Y-114274761D01*
X135257857Y-114322380D01*
X135305476Y-114346190D01*
X135400714Y-114346190D01*
X135019761Y-113846190D02*
X134710238Y-113846190D01*
X134876904Y-114036666D01*
X134805476Y-114036666D01*
X134757857Y-114060476D01*
X134734047Y-114084285D01*
X134710238Y-114131904D01*
X134710238Y-114250952D01*
X134734047Y-114298571D01*
X134757857Y-114322380D01*
X134805476Y-114346190D01*
X134948333Y-114346190D01*
X134995952Y-114322380D01*
X135019761Y-114298571D01*
D10*
X133991666Y-111823095D02*
X134075000Y-111704047D01*
X134134523Y-111823095D02*
X134134523Y-111573095D01*
X134039285Y-111573095D01*
X134015476Y-111585000D01*
X134003571Y-111596904D01*
X133991666Y-111620714D01*
X133991666Y-111656428D01*
X134003571Y-111680238D01*
X134015476Y-111692142D01*
X134039285Y-111704047D01*
X134134523Y-111704047D01*
X133848809Y-111680238D02*
X133872619Y-111668333D01*
X133884523Y-111656428D01*
X133896428Y-111632619D01*
X133896428Y-111620714D01*
X133884523Y-111596904D01*
X133872619Y-111585000D01*
X133848809Y-111573095D01*
X133801190Y-111573095D01*
X133777380Y-111585000D01*
X133765476Y-111596904D01*
X133753571Y-111620714D01*
X133753571Y-111632619D01*
X133765476Y-111656428D01*
X133777380Y-111668333D01*
X133801190Y-111680238D01*
X133848809Y-111680238D01*
X133872619Y-111692142D01*
X133884523Y-111704047D01*
X133896428Y-111727857D01*
X133896428Y-111775476D01*
X133884523Y-111799285D01*
X133872619Y-111811190D01*
X133848809Y-111823095D01*
X133801190Y-111823095D01*
X133777380Y-111811190D01*
X133765476Y-111799285D01*
X133753571Y-111775476D01*
X133753571Y-111727857D01*
X133765476Y-111704047D01*
X133777380Y-111692142D01*
X133801190Y-111680238D01*
X135996666Y-111823095D02*
X136080000Y-111704047D01*
X136139523Y-111823095D02*
X136139523Y-111573095D01*
X136044285Y-111573095D01*
X136020476Y-111585000D01*
X136008571Y-111596904D01*
X135996666Y-111620714D01*
X135996666Y-111656428D01*
X136008571Y-111680238D01*
X136020476Y-111692142D01*
X136044285Y-111704047D01*
X136139523Y-111704047D01*
X135913333Y-111573095D02*
X135746666Y-111573095D01*
X135853809Y-111823095D01*
X127819285Y-79219285D02*
X127831190Y-79207380D01*
X127843095Y-79171666D01*
X127843095Y-79147857D01*
X127831190Y-79112142D01*
X127807380Y-79088333D01*
X127783571Y-79076428D01*
X127735952Y-79064523D01*
X127700238Y-79064523D01*
X127652619Y-79076428D01*
X127628809Y-79088333D01*
X127605000Y-79112142D01*
X127593095Y-79147857D01*
X127593095Y-79171666D01*
X127605000Y-79207380D01*
X127616904Y-79219285D01*
X127616904Y-79314523D02*
X127605000Y-79326428D01*
X127593095Y-79350238D01*
X127593095Y-79409761D01*
X127605000Y-79433571D01*
X127616904Y-79445476D01*
X127640714Y-79457380D01*
X127664523Y-79457380D01*
X127700238Y-79445476D01*
X127843095Y-79302619D01*
X127843095Y-79457380D01*
X127616904Y-79552619D02*
X127605000Y-79564523D01*
X127593095Y-79588333D01*
X127593095Y-79647857D01*
X127605000Y-79671666D01*
X127616904Y-79683571D01*
X127640714Y-79695476D01*
X127664523Y-79695476D01*
X127700238Y-79683571D01*
X127843095Y-79540714D01*
X127843095Y-79695476D01*
X127819285Y-81279285D02*
X127831190Y-81267380D01*
X127843095Y-81231666D01*
X127843095Y-81207857D01*
X127831190Y-81172142D01*
X127807380Y-81148333D01*
X127783571Y-81136428D01*
X127735952Y-81124523D01*
X127700238Y-81124523D01*
X127652619Y-81136428D01*
X127628809Y-81148333D01*
X127605000Y-81172142D01*
X127593095Y-81207857D01*
X127593095Y-81231666D01*
X127605000Y-81267380D01*
X127616904Y-81279285D01*
X127616904Y-81374523D02*
X127605000Y-81386428D01*
X127593095Y-81410238D01*
X127593095Y-81469761D01*
X127605000Y-81493571D01*
X127616904Y-81505476D01*
X127640714Y-81517380D01*
X127664523Y-81517380D01*
X127700238Y-81505476D01*
X127843095Y-81362619D01*
X127843095Y-81517380D01*
X127593095Y-81600714D02*
X127593095Y-81755476D01*
X127688333Y-81672142D01*
X127688333Y-81707857D01*
X127700238Y-81731666D01*
X127712142Y-81743571D01*
X127735952Y-81755476D01*
X127795476Y-81755476D01*
X127819285Y-81743571D01*
X127831190Y-81731666D01*
X127843095Y-81707857D01*
X127843095Y-81636428D01*
X127831190Y-81612619D01*
X127819285Y-81600714D01*
X115478095Y-118837380D02*
X115359047Y-118754047D01*
X115478095Y-118694523D02*
X115228095Y-118694523D01*
X115228095Y-118789761D01*
X115240000Y-118813570D01*
X115251904Y-118825475D01*
X115275714Y-118837380D01*
X115311428Y-118837380D01*
X115335238Y-118825475D01*
X115347142Y-118813570D01*
X115359047Y-118789761D01*
X115359047Y-118694523D01*
X115311428Y-119051666D02*
X115478095Y-119051666D01*
X115216190Y-118992142D02*
X115394761Y-118932618D01*
X115394761Y-119087380D01*
D12*
X120438809Y-94472380D02*
X120415000Y-94424761D01*
X120367380Y-94377142D01*
X120295952Y-94305714D01*
X120272142Y-94258095D01*
X120272142Y-94210476D01*
X120391190Y-94234285D02*
X120367380Y-94186666D01*
X120319761Y-94139047D01*
X120224523Y-94115238D01*
X120057857Y-94115238D01*
X119962619Y-94139047D01*
X119915000Y-94186666D01*
X119891190Y-94234285D01*
X119891190Y-94329523D01*
X119915000Y-94377142D01*
X119962619Y-94424761D01*
X120057857Y-94448571D01*
X120224523Y-94448571D01*
X120319761Y-94424761D01*
X120367380Y-94377142D01*
X120391190Y-94329523D01*
X120391190Y-94234285D01*
X119891190Y-94900952D02*
X119891190Y-94662857D01*
X120129285Y-94639047D01*
X120105476Y-94662857D01*
X120081666Y-94710476D01*
X120081666Y-94829523D01*
X120105476Y-94877142D01*
X120129285Y-94900952D01*
X120176904Y-94924761D01*
X120295952Y-94924761D01*
X120343571Y-94900952D01*
X120367380Y-94877142D01*
X120391190Y-94829523D01*
X120391190Y-94710476D01*
X120367380Y-94662857D01*
X120343571Y-94639047D01*
D10*
X122878095Y-95559285D02*
X122759047Y-95475952D01*
X122878095Y-95416428D02*
X122628095Y-95416428D01*
X122628095Y-95511666D01*
X122640000Y-95535476D01*
X122651904Y-95547380D01*
X122675714Y-95559285D01*
X122711428Y-95559285D01*
X122735238Y-95547380D01*
X122747142Y-95535476D01*
X122759047Y-95511666D01*
X122759047Y-95416428D01*
X122651904Y-95654523D02*
X122640000Y-95666428D01*
X122628095Y-95690238D01*
X122628095Y-95749761D01*
X122640000Y-95773571D01*
X122651904Y-95785476D01*
X122675714Y-95797380D01*
X122699523Y-95797380D01*
X122735238Y-95785476D01*
X122878095Y-95642619D01*
X122878095Y-95797380D01*
X122878095Y-96035476D02*
X122878095Y-95892619D01*
X122878095Y-95964047D02*
X122628095Y-95964047D01*
X122663809Y-95940238D01*
X122687619Y-95916428D01*
X122699523Y-95892619D01*
D16*
X105711428Y-98422857D02*
X105111428Y-98422857D01*
X105540000Y-98622857D01*
X105111428Y-98822857D01*
X105711428Y-98822857D01*
X105711428Y-99108571D02*
X105111428Y-99108571D01*
X105654285Y-99737142D02*
X105682857Y-99708571D01*
X105711428Y-99622857D01*
X105711428Y-99565714D01*
X105682857Y-99480000D01*
X105625714Y-99422857D01*
X105568571Y-99394285D01*
X105454285Y-99365714D01*
X105368571Y-99365714D01*
X105254285Y-99394285D01*
X105197142Y-99422857D01*
X105140000Y-99480000D01*
X105111428Y-99565714D01*
X105111428Y-99622857D01*
X105140000Y-99708571D01*
X105168571Y-99737142D01*
X105711428Y-100337142D02*
X105425714Y-100137142D01*
X105711428Y-99994285D02*
X105111428Y-99994285D01*
X105111428Y-100222857D01*
X105140000Y-100280000D01*
X105168571Y-100308571D01*
X105225714Y-100337142D01*
X105311428Y-100337142D01*
X105368571Y-100308571D01*
X105397142Y-100280000D01*
X105425714Y-100222857D01*
X105425714Y-99994285D01*
X105111428Y-100708571D02*
X105111428Y-100822857D01*
X105140000Y-100880000D01*
X105197142Y-100937142D01*
X105311428Y-100965714D01*
X105511428Y-100965714D01*
X105625714Y-100937142D01*
X105682857Y-100880000D01*
X105711428Y-100822857D01*
X105711428Y-100708571D01*
X105682857Y-100651428D01*
X105625714Y-100594285D01*
X105511428Y-100565714D01*
X105311428Y-100565714D01*
X105197142Y-100594285D01*
X105140000Y-100651428D01*
X105111428Y-100708571D01*
X105768571Y-101080000D02*
X105768571Y-101537142D01*
X105682857Y-101651428D02*
X105711428Y-101737142D01*
X105711428Y-101880000D01*
X105682857Y-101937142D01*
X105654285Y-101965714D01*
X105597142Y-101994285D01*
X105540000Y-101994285D01*
X105482857Y-101965714D01*
X105454285Y-101937142D01*
X105425714Y-101880000D01*
X105397142Y-101765714D01*
X105368571Y-101708571D01*
X105340000Y-101680000D01*
X105282857Y-101651428D01*
X105225714Y-101651428D01*
X105168571Y-101680000D01*
X105140000Y-101708571D01*
X105111428Y-101765714D01*
X105111428Y-101908571D01*
X105140000Y-101994285D01*
X105711428Y-102251428D02*
X105111428Y-102251428D01*
X105111428Y-102394285D01*
X105140000Y-102480000D01*
X105197142Y-102537142D01*
X105254285Y-102565714D01*
X105368571Y-102594285D01*
X105454285Y-102594285D01*
X105568571Y-102565714D01*
X105625714Y-102537142D01*
X105682857Y-102480000D01*
X105711428Y-102394285D01*
X105711428Y-102251428D01*
X105711428Y-103165714D02*
X105711428Y-102822857D01*
X105711428Y-102994285D02*
X105111428Y-102994285D01*
X105197142Y-102937142D01*
X105254285Y-102880000D01*
X105282857Y-102822857D01*
D17*
X101246190Y-87235714D02*
X100746190Y-87235714D01*
X100746190Y-87426190D01*
X100770000Y-87473809D01*
X100793809Y-87497619D01*
X100841428Y-87521428D01*
X100912857Y-87521428D01*
X100960476Y-87497619D01*
X100984285Y-87473809D01*
X101008095Y-87426190D01*
X101008095Y-87235714D01*
X101198571Y-88021428D02*
X101222380Y-87997619D01*
X101246190Y-87926190D01*
X101246190Y-87878571D01*
X101222380Y-87807142D01*
X101174761Y-87759523D01*
X101127142Y-87735714D01*
X101031904Y-87711904D01*
X100960476Y-87711904D01*
X100865238Y-87735714D01*
X100817619Y-87759523D01*
X100770000Y-87807142D01*
X100746190Y-87878571D01*
X100746190Y-87926190D01*
X100770000Y-87997619D01*
X100793809Y-88021428D01*
X100984285Y-88402380D02*
X101008095Y-88473809D01*
X101031904Y-88497619D01*
X101079523Y-88521428D01*
X101150952Y-88521428D01*
X101198571Y-88497619D01*
X101222380Y-88473809D01*
X101246190Y-88426190D01*
X101246190Y-88235714D01*
X100746190Y-88235714D01*
X100746190Y-88402380D01*
X100770000Y-88450000D01*
X100793809Y-88473809D01*
X100841428Y-88497619D01*
X100889047Y-88497619D01*
X100936666Y-88473809D01*
X100960476Y-88450000D01*
X100984285Y-88402380D01*
X100984285Y-88235714D01*
X100984285Y-89116666D02*
X100984285Y-89283333D01*
X101246190Y-89354761D02*
X101246190Y-89116666D01*
X100746190Y-89116666D01*
X100746190Y-89354761D01*
X101246190Y-89783333D02*
X100746190Y-89783333D01*
X101222380Y-89783333D02*
X101246190Y-89735714D01*
X101246190Y-89640476D01*
X101222380Y-89592857D01*
X101198571Y-89569047D01*
X101150952Y-89545238D01*
X101008095Y-89545238D01*
X100960476Y-89569047D01*
X100936666Y-89592857D01*
X100912857Y-89640476D01*
X100912857Y-89735714D01*
X100936666Y-89783333D01*
X100912857Y-90235714D02*
X101317619Y-90235714D01*
X101365238Y-90211904D01*
X101389047Y-90188095D01*
X101412857Y-90140476D01*
X101412857Y-90069047D01*
X101389047Y-90021428D01*
X101222380Y-90235714D02*
X101246190Y-90188095D01*
X101246190Y-90092857D01*
X101222380Y-90045238D01*
X101198571Y-90021428D01*
X101150952Y-89997619D01*
X101008095Y-89997619D01*
X100960476Y-90021428D01*
X100936666Y-90045238D01*
X100912857Y-90092857D01*
X100912857Y-90188095D01*
X100936666Y-90235714D01*
X101222380Y-90664285D02*
X101246190Y-90616666D01*
X101246190Y-90521428D01*
X101222380Y-90473809D01*
X101174761Y-90450000D01*
X100984285Y-90450000D01*
X100936666Y-90473809D01*
X100912857Y-90521428D01*
X100912857Y-90616666D01*
X100936666Y-90664285D01*
X100984285Y-90688095D01*
X101031904Y-90688095D01*
X101079523Y-90450000D01*
D10*
X120510714Y-99633095D02*
X120594047Y-99514047D01*
X120653571Y-99633095D02*
X120653571Y-99383095D01*
X120558333Y-99383095D01*
X120534523Y-99395000D01*
X120522619Y-99406904D01*
X120510714Y-99430714D01*
X120510714Y-99466428D01*
X120522619Y-99490238D01*
X120534523Y-99502142D01*
X120558333Y-99514047D01*
X120653571Y-99514047D01*
X120272619Y-99633095D02*
X120415476Y-99633095D01*
X120344047Y-99633095D02*
X120344047Y-99383095D01*
X120367857Y-99418809D01*
X120391666Y-99442619D01*
X120415476Y-99454523D01*
X120129761Y-99490238D02*
X120153571Y-99478333D01*
X120165476Y-99466428D01*
X120177380Y-99442619D01*
X120177380Y-99430714D01*
X120165476Y-99406904D01*
X120153571Y-99395000D01*
X120129761Y-99383095D01*
X120082142Y-99383095D01*
X120058333Y-99395000D01*
X120046428Y-99406904D01*
X120034523Y-99430714D01*
X120034523Y-99442619D01*
X120046428Y-99466428D01*
X120058333Y-99478333D01*
X120082142Y-99490238D01*
X120129761Y-99490238D01*
X120153571Y-99502142D01*
X120165476Y-99514047D01*
X120177380Y-99537857D01*
X120177380Y-99585476D01*
X120165476Y-99609285D01*
X120153571Y-99621190D01*
X120129761Y-99633095D01*
X120082142Y-99633095D01*
X120058333Y-99621190D01*
X120046428Y-99609285D01*
X120034523Y-99585476D01*
X120034523Y-99537857D01*
X120046428Y-99514047D01*
X120058333Y-99502142D01*
X120082142Y-99490238D01*
X120510714Y-100758761D02*
X120594047Y-100639713D01*
X120653571Y-100758761D02*
X120653571Y-100508761D01*
X120558333Y-100508761D01*
X120534523Y-100520666D01*
X120522619Y-100532570D01*
X120510714Y-100556380D01*
X120510714Y-100592094D01*
X120522619Y-100615904D01*
X120534523Y-100627808D01*
X120558333Y-100639713D01*
X120653571Y-100639713D01*
X120272619Y-100758761D02*
X120415476Y-100758761D01*
X120344047Y-100758761D02*
X120344047Y-100508761D01*
X120367857Y-100544475D01*
X120391666Y-100568285D01*
X120415476Y-100580189D01*
X120189285Y-100508761D02*
X120022619Y-100508761D01*
X120129761Y-100758761D01*
X120510714Y-104135759D02*
X120594047Y-104016711D01*
X120653571Y-104135759D02*
X120653571Y-103885759D01*
X120558333Y-103885759D01*
X120534523Y-103897664D01*
X120522619Y-103909568D01*
X120510714Y-103933378D01*
X120510714Y-103969092D01*
X120522619Y-103992902D01*
X120534523Y-104004806D01*
X120558333Y-104016711D01*
X120653571Y-104016711D01*
X120272619Y-104135759D02*
X120415476Y-104135759D01*
X120344047Y-104135759D02*
X120344047Y-103885759D01*
X120367857Y-103921473D01*
X120391666Y-103945283D01*
X120415476Y-103957187D01*
X120046428Y-103885759D02*
X120165476Y-103885759D01*
X120177380Y-104004806D01*
X120165476Y-103992902D01*
X120141666Y-103980997D01*
X120082142Y-103980997D01*
X120058333Y-103992902D01*
X120046428Y-104004806D01*
X120034523Y-104028616D01*
X120034523Y-104088140D01*
X120046428Y-104111949D01*
X120058333Y-104123854D01*
X120082142Y-104135759D01*
X120141666Y-104135759D01*
X120165476Y-104123854D01*
X120177380Y-104111949D01*
X120510714Y-101884427D02*
X120594047Y-101765379D01*
X120653571Y-101884427D02*
X120653571Y-101634427D01*
X120558333Y-101634427D01*
X120534523Y-101646332D01*
X120522619Y-101658236D01*
X120510714Y-101682046D01*
X120510714Y-101717760D01*
X120522619Y-101741570D01*
X120534523Y-101753474D01*
X120558333Y-101765379D01*
X120653571Y-101765379D01*
X120272619Y-101884427D02*
X120415476Y-101884427D01*
X120344047Y-101884427D02*
X120344047Y-101634427D01*
X120367857Y-101670141D01*
X120391666Y-101693951D01*
X120415476Y-101705855D01*
X120058333Y-101634427D02*
X120105952Y-101634427D01*
X120129761Y-101646332D01*
X120141666Y-101658236D01*
X120165476Y-101693951D01*
X120177380Y-101741570D01*
X120177380Y-101836808D01*
X120165476Y-101860617D01*
X120153571Y-101872522D01*
X120129761Y-101884427D01*
X120082142Y-101884427D01*
X120058333Y-101872522D01*
X120046428Y-101860617D01*
X120034523Y-101836808D01*
X120034523Y-101777284D01*
X120046428Y-101753474D01*
X120058333Y-101741570D01*
X120082142Y-101729665D01*
X120129761Y-101729665D01*
X120153571Y-101741570D01*
X120165476Y-101753474D01*
X120177380Y-101777284D01*
X120510714Y-102986283D02*
X120522619Y-102998188D01*
X120558333Y-103010093D01*
X120582142Y-103010093D01*
X120617857Y-102998188D01*
X120641666Y-102974378D01*
X120653571Y-102950569D01*
X120665476Y-102902950D01*
X120665476Y-102867236D01*
X120653571Y-102819617D01*
X120641666Y-102795807D01*
X120617857Y-102771998D01*
X120582142Y-102760093D01*
X120558333Y-102760093D01*
X120522619Y-102771998D01*
X120510714Y-102783902D01*
X120272619Y-103010093D02*
X120415476Y-103010093D01*
X120344047Y-103010093D02*
X120344047Y-102760093D01*
X120367857Y-102795807D01*
X120391666Y-102819617D01*
X120415476Y-102831521D01*
X120129761Y-102867236D02*
X120153571Y-102855331D01*
X120165476Y-102843426D01*
X120177380Y-102819617D01*
X120177380Y-102807712D01*
X120165476Y-102783902D01*
X120153571Y-102771998D01*
X120129761Y-102760093D01*
X120082142Y-102760093D01*
X120058333Y-102771998D01*
X120046428Y-102783902D01*
X120034523Y-102807712D01*
X120034523Y-102819617D01*
X120046428Y-102843426D01*
X120058333Y-102855331D01*
X120082142Y-102867236D01*
X120129761Y-102867236D01*
X120153571Y-102879140D01*
X120165476Y-102891045D01*
X120177380Y-102914855D01*
X120177380Y-102962474D01*
X120165476Y-102986283D01*
X120153571Y-102998188D01*
X120129761Y-103010093D01*
X120082142Y-103010093D01*
X120058333Y-102998188D01*
X120046428Y-102986283D01*
X120034523Y-102962474D01*
X120034523Y-102914855D01*
X120046428Y-102891045D01*
X120058333Y-102879140D01*
X120082142Y-102867236D01*
X120550714Y-105261425D02*
X120634047Y-105142377D01*
X120693571Y-105261425D02*
X120693571Y-105011425D01*
X120598333Y-105011425D01*
X120574523Y-105023330D01*
X120562619Y-105035234D01*
X120550714Y-105059044D01*
X120550714Y-105094758D01*
X120562619Y-105118568D01*
X120574523Y-105130472D01*
X120598333Y-105142377D01*
X120693571Y-105142377D01*
X120312619Y-105261425D02*
X120455476Y-105261425D01*
X120384047Y-105261425D02*
X120384047Y-105011425D01*
X120407857Y-105047139D01*
X120431666Y-105070949D01*
X120455476Y-105082853D01*
X120098333Y-105094758D02*
X120098333Y-105261425D01*
X120157857Y-104999520D02*
X120217380Y-105178091D01*
X120062619Y-105178091D01*
X120550714Y-106387095D02*
X120634047Y-106268047D01*
X120693571Y-106387095D02*
X120693571Y-106137095D01*
X120598333Y-106137095D01*
X120574523Y-106149000D01*
X120562619Y-106160904D01*
X120550714Y-106184714D01*
X120550714Y-106220428D01*
X120562619Y-106244238D01*
X120574523Y-106256142D01*
X120598333Y-106268047D01*
X120693571Y-106268047D01*
X120312619Y-106387095D02*
X120455476Y-106387095D01*
X120384047Y-106387095D02*
X120384047Y-106137095D01*
X120407857Y-106172809D01*
X120431666Y-106196619D01*
X120455476Y-106208523D01*
X120229285Y-106137095D02*
X120074523Y-106137095D01*
X120157857Y-106232333D01*
X120122142Y-106232333D01*
X120098333Y-106244238D01*
X120086428Y-106256142D01*
X120074523Y-106279952D01*
X120074523Y-106339476D01*
X120086428Y-106363285D01*
X120098333Y-106375190D01*
X120122142Y-106387095D01*
X120193571Y-106387095D01*
X120217380Y-106375190D01*
X120229285Y-106363285D01*
X139556666Y-138409285D02*
X139568571Y-138421190D01*
X139604285Y-138433095D01*
X139628095Y-138433095D01*
X139663809Y-138421190D01*
X139687619Y-138397380D01*
X139699523Y-138373571D01*
X139711428Y-138325952D01*
X139711428Y-138290238D01*
X139699523Y-138242619D01*
X139687619Y-138218809D01*
X139663809Y-138195000D01*
X139628095Y-138183095D01*
X139604285Y-138183095D01*
X139568571Y-138195000D01*
X139556666Y-138206904D01*
X139413809Y-138290238D02*
X139437619Y-138278333D01*
X139449523Y-138266428D01*
X139461428Y-138242619D01*
X139461428Y-138230714D01*
X139449523Y-138206904D01*
X139437619Y-138195000D01*
X139413809Y-138183095D01*
X139366190Y-138183095D01*
X139342380Y-138195000D01*
X139330476Y-138206904D01*
X139318571Y-138230714D01*
X139318571Y-138242619D01*
X139330476Y-138266428D01*
X139342380Y-138278333D01*
X139366190Y-138290238D01*
X139413809Y-138290238D01*
X139437619Y-138302142D01*
X139449523Y-138314047D01*
X139461428Y-138337857D01*
X139461428Y-138385476D01*
X139449523Y-138409285D01*
X139437619Y-138421190D01*
X139413809Y-138433095D01*
X139366190Y-138433095D01*
X139342380Y-138421190D01*
X139330476Y-138409285D01*
X139318571Y-138385476D01*
X139318571Y-138337857D01*
X139330476Y-138314047D01*
X139342380Y-138302142D01*
X139366190Y-138290238D01*
D12*
X112112619Y-132193809D02*
X112160238Y-132170000D01*
X112207857Y-132122380D01*
X112279285Y-132050952D01*
X112326904Y-132027142D01*
X112374523Y-132027142D01*
X112350714Y-132146190D02*
X112398333Y-132122380D01*
X112445952Y-132074761D01*
X112469761Y-131979523D01*
X112469761Y-131812857D01*
X112445952Y-131717619D01*
X112398333Y-131670000D01*
X112350714Y-131646190D01*
X112255476Y-131646190D01*
X112207857Y-131670000D01*
X112160238Y-131717619D01*
X112136428Y-131812857D01*
X112136428Y-131979523D01*
X112160238Y-132074761D01*
X112207857Y-132122380D01*
X112255476Y-132146190D01*
X112350714Y-132146190D01*
X111660238Y-132146190D02*
X111945952Y-132146190D01*
X111803095Y-132146190D02*
X111803095Y-131646190D01*
X111850714Y-131717619D01*
X111898333Y-131765238D01*
X111945952Y-131789047D01*
D10*
X105201666Y-138943095D02*
X105285000Y-138824047D01*
X105344523Y-138943095D02*
X105344523Y-138693095D01*
X105249285Y-138693095D01*
X105225476Y-138705000D01*
X105213571Y-138716904D01*
X105201666Y-138740714D01*
X105201666Y-138776428D01*
X105213571Y-138800238D01*
X105225476Y-138812142D01*
X105249285Y-138824047D01*
X105344523Y-138824047D01*
X104963571Y-138943095D02*
X105106428Y-138943095D01*
X105035000Y-138943095D02*
X105035000Y-138693095D01*
X105058809Y-138728809D01*
X105082619Y-138752619D01*
X105106428Y-138764523D01*
X112701666Y-138293095D02*
X112785000Y-138174047D01*
X112844523Y-138293095D02*
X112844523Y-138043095D01*
X112749285Y-138043095D01*
X112725476Y-138055000D01*
X112713571Y-138066904D01*
X112701666Y-138090714D01*
X112701666Y-138126428D01*
X112713571Y-138150238D01*
X112725476Y-138162142D01*
X112749285Y-138174047D01*
X112844523Y-138174047D01*
X112606428Y-138066904D02*
X112594523Y-138055000D01*
X112570714Y-138043095D01*
X112511190Y-138043095D01*
X112487380Y-138055000D01*
X112475476Y-138066904D01*
X112463571Y-138090714D01*
X112463571Y-138114523D01*
X112475476Y-138150238D01*
X112618333Y-138293095D01*
X112463571Y-138293095D01*
D12*
X112648952Y-135376190D02*
X112648952Y-135780952D01*
X112625142Y-135828571D01*
X112601333Y-135852380D01*
X112553714Y-135876190D01*
X112458476Y-135876190D01*
X112410857Y-135852380D01*
X112387047Y-135828571D01*
X112363238Y-135780952D01*
X112363238Y-135376190D01*
X112148952Y-135423809D02*
X112125142Y-135400000D01*
X112077523Y-135376190D01*
X111958476Y-135376190D01*
X111910857Y-135400000D01*
X111887047Y-135423809D01*
X111863238Y-135471428D01*
X111863238Y-135519047D01*
X111887047Y-135590476D01*
X112172761Y-135876190D01*
X111863238Y-135876190D01*
X112840952Y-123646190D02*
X112840952Y-124050952D01*
X112817142Y-124098571D01*
X112793333Y-124122380D01*
X112745714Y-124146190D01*
X112650476Y-124146190D01*
X112602857Y-124122380D01*
X112579047Y-124098571D01*
X112555238Y-124050952D01*
X112555238Y-123646190D01*
X112364761Y-123646190D02*
X112055238Y-123646190D01*
X112221904Y-123836666D01*
X112150476Y-123836666D01*
X112102857Y-123860476D01*
X112079047Y-123884285D01*
X112055238Y-123931904D01*
X112055238Y-124050952D01*
X112079047Y-124098571D01*
X112102857Y-124122380D01*
X112150476Y-124146190D01*
X112293333Y-124146190D01*
X112340952Y-124122380D01*
X112364761Y-124098571D01*
D10*
X105451666Y-133969285D02*
X105463571Y-133981190D01*
X105499285Y-133993095D01*
X105523095Y-133993095D01*
X105558809Y-133981190D01*
X105582619Y-133957380D01*
X105594523Y-133933571D01*
X105606428Y-133885952D01*
X105606428Y-133850238D01*
X105594523Y-133802619D01*
X105582619Y-133778809D01*
X105558809Y-133755000D01*
X105523095Y-133743095D01*
X105499285Y-133743095D01*
X105463571Y-133755000D01*
X105451666Y-133766904D01*
X105237380Y-133826428D02*
X105237380Y-133993095D01*
X105296904Y-133731190D02*
X105356428Y-133909761D01*
X105201666Y-133909761D01*
D13*
X108092857Y-136513333D02*
X108111904Y-136494285D01*
X108130952Y-136437142D01*
X108130952Y-136399047D01*
X108111904Y-136341904D01*
X108073809Y-136303809D01*
X108035714Y-136284761D01*
X107959523Y-136265714D01*
X107902380Y-136265714D01*
X107826190Y-136284761D01*
X107788095Y-136303809D01*
X107750000Y-136341904D01*
X107730952Y-136399047D01*
X107730952Y-136437142D01*
X107750000Y-136494285D01*
X107769047Y-136513333D01*
X107730952Y-136875238D02*
X107730952Y-136684761D01*
X107921428Y-136665714D01*
X107902380Y-136684761D01*
X107883333Y-136722857D01*
X107883333Y-136818095D01*
X107902380Y-136856190D01*
X107921428Y-136875238D01*
X107959523Y-136894285D01*
X108054761Y-136894285D01*
X108092857Y-136875238D01*
X108111904Y-136856190D01*
X108130952Y-136818095D01*
X108130952Y-136722857D01*
X108111904Y-136684761D01*
X108092857Y-136665714D01*
X109752857Y-136513333D02*
X109771904Y-136494285D01*
X109790952Y-136437142D01*
X109790952Y-136399047D01*
X109771904Y-136341904D01*
X109733809Y-136303809D01*
X109695714Y-136284761D01*
X109619523Y-136265714D01*
X109562380Y-136265714D01*
X109486190Y-136284761D01*
X109448095Y-136303809D01*
X109410000Y-136341904D01*
X109390952Y-136399047D01*
X109390952Y-136437142D01*
X109410000Y-136494285D01*
X109429047Y-136513333D01*
X109390952Y-136856190D02*
X109390952Y-136780000D01*
X109410000Y-136741904D01*
X109429047Y-136722857D01*
X109486190Y-136684761D01*
X109562380Y-136665714D01*
X109714761Y-136665714D01*
X109752857Y-136684761D01*
X109771904Y-136703809D01*
X109790952Y-136741904D01*
X109790952Y-136818095D01*
X109771904Y-136856190D01*
X109752857Y-136875238D01*
X109714761Y-136894285D01*
X109619523Y-136894285D01*
X109581428Y-136875238D01*
X109562380Y-136856190D01*
X109543333Y-136818095D01*
X109543333Y-136741904D01*
X109562380Y-136703809D01*
X109581428Y-136684761D01*
X109619523Y-136665714D01*
D11*
X117817380Y-130381904D02*
X116817380Y-130381904D01*
X116817380Y-130620000D01*
X116865000Y-130762857D01*
X116960238Y-130858095D01*
X117055476Y-130905714D01*
X117245952Y-130953333D01*
X117388809Y-130953333D01*
X117579285Y-130905714D01*
X117674523Y-130858095D01*
X117769761Y-130762857D01*
X117817380Y-130620000D01*
X117817380Y-130381904D01*
X117150714Y-131810476D02*
X117817380Y-131810476D01*
X116769761Y-131572380D02*
X117484047Y-131334285D01*
X117484047Y-131953333D01*
X104412380Y-125446666D02*
X105126666Y-125446666D01*
X105269523Y-125399047D01*
X105364761Y-125303809D01*
X105412380Y-125160952D01*
X105412380Y-125065714D01*
X105412380Y-126446666D02*
X105412380Y-125875238D01*
X105412380Y-126160952D02*
X104412380Y-126160952D01*
X104555238Y-126065714D01*
X104650476Y-125970476D01*
X104698095Y-125875238D01*
D12*
X105740952Y-136076190D02*
X105740952Y-136480952D01*
X105717142Y-136528571D01*
X105693333Y-136552380D01*
X105645714Y-136576190D01*
X105550476Y-136576190D01*
X105502857Y-136552380D01*
X105479047Y-136528571D01*
X105455238Y-136480952D01*
X105455238Y-136076190D01*
X104955238Y-136576190D02*
X105240952Y-136576190D01*
X105098095Y-136576190D02*
X105098095Y-136076190D01*
X105145714Y-136147619D01*
X105193333Y-136195238D01*
X105240952Y-136219047D01*
D11*
X107412380Y-116518095D02*
X108221904Y-116518095D01*
X108317142Y-116565714D01*
X108364761Y-116613333D01*
X108412380Y-116708571D01*
X108412380Y-116899047D01*
X108364761Y-116994285D01*
X108317142Y-117041904D01*
X108221904Y-117089523D01*
X107412380Y-117089523D01*
X107745714Y-117994285D02*
X108412380Y-117994285D01*
X107364761Y-117756190D02*
X108079047Y-117518095D01*
X108079047Y-118137142D01*
D12*
X109793619Y-112955809D02*
X109841238Y-112932000D01*
X109888857Y-112884380D01*
X109960285Y-112812952D01*
X110007904Y-112789142D01*
X110055523Y-112789142D01*
X110031714Y-112908190D02*
X110079333Y-112884380D01*
X110126952Y-112836761D01*
X110150761Y-112741523D01*
X110150761Y-112574857D01*
X110126952Y-112479619D01*
X110079333Y-112432000D01*
X110031714Y-112408190D01*
X109936476Y-112408190D01*
X109888857Y-112432000D01*
X109841238Y-112479619D01*
X109817428Y-112574857D01*
X109817428Y-112741523D01*
X109841238Y-112836761D01*
X109888857Y-112884380D01*
X109936476Y-112908190D01*
X110031714Y-112908190D01*
X109388857Y-112408190D02*
X109484095Y-112408190D01*
X109531714Y-112432000D01*
X109555523Y-112455809D01*
X109603142Y-112527238D01*
X109626952Y-112622476D01*
X109626952Y-112812952D01*
X109603142Y-112860571D01*
X109579333Y-112884380D01*
X109531714Y-112908190D01*
X109436476Y-112908190D01*
X109388857Y-112884380D01*
X109365047Y-112860571D01*
X109341238Y-112812952D01*
X109341238Y-112693904D01*
X109365047Y-112646285D01*
X109388857Y-112622476D01*
X109436476Y-112598666D01*
X109531714Y-112598666D01*
X109579333Y-112622476D01*
X109603142Y-112646285D01*
X109626952Y-112693904D01*
D10*
X104549285Y-117359285D02*
X104561190Y-117347380D01*
X104573095Y-117311666D01*
X104573095Y-117287857D01*
X104561190Y-117252142D01*
X104537380Y-117228333D01*
X104513571Y-117216428D01*
X104465952Y-117204523D01*
X104430238Y-117204523D01*
X104382619Y-117216428D01*
X104358809Y-117228333D01*
X104335000Y-117252142D01*
X104323095Y-117287857D01*
X104323095Y-117311666D01*
X104335000Y-117347380D01*
X104346904Y-117359285D01*
X104573095Y-117597380D02*
X104573095Y-117454523D01*
X104573095Y-117525952D02*
X104323095Y-117525952D01*
X104358809Y-117502142D01*
X104382619Y-117478333D01*
X104394523Y-117454523D01*
X104323095Y-117680714D02*
X104323095Y-117847380D01*
X104573095Y-117740238D01*
X131950714Y-74579285D02*
X131962619Y-74591190D01*
X131998333Y-74603095D01*
X132022142Y-74603095D01*
X132057857Y-74591190D01*
X132081666Y-74567380D01*
X132093571Y-74543571D01*
X132105476Y-74495952D01*
X132105476Y-74460238D01*
X132093571Y-74412619D01*
X132081666Y-74388809D01*
X132057857Y-74365000D01*
X132022142Y-74353095D01*
X131998333Y-74353095D01*
X131962619Y-74365000D01*
X131950714Y-74376904D01*
X131855476Y-74376904D02*
X131843571Y-74365000D01*
X131819761Y-74353095D01*
X131760238Y-74353095D01*
X131736428Y-74365000D01*
X131724523Y-74376904D01*
X131712619Y-74400714D01*
X131712619Y-74424523D01*
X131724523Y-74460238D01*
X131867380Y-74603095D01*
X131712619Y-74603095D01*
X131474523Y-74603095D02*
X131617380Y-74603095D01*
X131545952Y-74603095D02*
X131545952Y-74353095D01*
X131569761Y-74388809D01*
X131593571Y-74412619D01*
X131617380Y-74424523D01*
X127695714Y-73513095D02*
X127779047Y-73394047D01*
X127838571Y-73513095D02*
X127838571Y-73263095D01*
X127743333Y-73263095D01*
X127719523Y-73275000D01*
X127707619Y-73286904D01*
X127695714Y-73310714D01*
X127695714Y-73346428D01*
X127707619Y-73370238D01*
X127719523Y-73382142D01*
X127743333Y-73394047D01*
X127838571Y-73394047D01*
X127457619Y-73513095D02*
X127600476Y-73513095D01*
X127529047Y-73513095D02*
X127529047Y-73263095D01*
X127552857Y-73298809D01*
X127576666Y-73322619D01*
X127600476Y-73334523D01*
X127362380Y-73286904D02*
X127350476Y-73275000D01*
X127326666Y-73263095D01*
X127267142Y-73263095D01*
X127243333Y-73275000D01*
X127231428Y-73286904D01*
X127219523Y-73310714D01*
X127219523Y-73334523D01*
X127231428Y-73370238D01*
X127374285Y-73513095D01*
X127219523Y-73513095D01*
X132780714Y-79103095D02*
X132864047Y-78984047D01*
X132923571Y-79103095D02*
X132923571Y-78853095D01*
X132828333Y-78853095D01*
X132804523Y-78865000D01*
X132792619Y-78876904D01*
X132780714Y-78900714D01*
X132780714Y-78936428D01*
X132792619Y-78960238D01*
X132804523Y-78972142D01*
X132828333Y-78984047D01*
X132923571Y-78984047D01*
X132685476Y-78876904D02*
X132673571Y-78865000D01*
X132649761Y-78853095D01*
X132590238Y-78853095D01*
X132566428Y-78865000D01*
X132554523Y-78876904D01*
X132542619Y-78900714D01*
X132542619Y-78924523D01*
X132554523Y-78960238D01*
X132697380Y-79103095D01*
X132542619Y-79103095D01*
X132399761Y-78960238D02*
X132423571Y-78948333D01*
X132435476Y-78936428D01*
X132447380Y-78912619D01*
X132447380Y-78900714D01*
X132435476Y-78876904D01*
X132423571Y-78865000D01*
X132399761Y-78853095D01*
X132352142Y-78853095D01*
X132328333Y-78865000D01*
X132316428Y-78876904D01*
X132304523Y-78900714D01*
X132304523Y-78912619D01*
X132316428Y-78936428D01*
X132328333Y-78948333D01*
X132352142Y-78960238D01*
X132399761Y-78960238D01*
X132423571Y-78972142D01*
X132435476Y-78984047D01*
X132447380Y-79007857D01*
X132447380Y-79055476D01*
X132435476Y-79079285D01*
X132423571Y-79091190D01*
X132399761Y-79103095D01*
X132352142Y-79103095D01*
X132328333Y-79091190D01*
X132316428Y-79079285D01*
X132304523Y-79055476D01*
X132304523Y-79007857D01*
X132316428Y-78984047D01*
X132328333Y-78972142D01*
X132352142Y-78960238D01*
D12*
X133697619Y-81643809D02*
X133745238Y-81620000D01*
X133792857Y-81572380D01*
X133864285Y-81500952D01*
X133911904Y-81477142D01*
X133959523Y-81477142D01*
X133935714Y-81596190D02*
X133983333Y-81572380D01*
X134030952Y-81524761D01*
X134054761Y-81429523D01*
X134054761Y-81262857D01*
X134030952Y-81167619D01*
X133983333Y-81120000D01*
X133935714Y-81096190D01*
X133840476Y-81096190D01*
X133792857Y-81120000D01*
X133745238Y-81167619D01*
X133721428Y-81262857D01*
X133721428Y-81429523D01*
X133745238Y-81524761D01*
X133792857Y-81572380D01*
X133840476Y-81596190D01*
X133935714Y-81596190D01*
X133435714Y-81310476D02*
X133483333Y-81286666D01*
X133507142Y-81262857D01*
X133530952Y-81215238D01*
X133530952Y-81191428D01*
X133507142Y-81143809D01*
X133483333Y-81120000D01*
X133435714Y-81096190D01*
X133340476Y-81096190D01*
X133292857Y-81120000D01*
X133269047Y-81143809D01*
X133245238Y-81191428D01*
X133245238Y-81215238D01*
X133269047Y-81262857D01*
X133292857Y-81286666D01*
X133340476Y-81310476D01*
X133435714Y-81310476D01*
X133483333Y-81334285D01*
X133507142Y-81358095D01*
X133530952Y-81405714D01*
X133530952Y-81500952D01*
X133507142Y-81548571D01*
X133483333Y-81572380D01*
X133435714Y-81596190D01*
X133340476Y-81596190D01*
X133292857Y-81572380D01*
X133269047Y-81548571D01*
X133245238Y-81500952D01*
X133245238Y-81405714D01*
X133269047Y-81358095D01*
X133292857Y-81334285D01*
X133340476Y-81310476D01*
D10*
X134635714Y-83793095D02*
X134719047Y-83674047D01*
X134778571Y-83793095D02*
X134778571Y-83543095D01*
X134683333Y-83543095D01*
X134659523Y-83555000D01*
X134647619Y-83566904D01*
X134635714Y-83590714D01*
X134635714Y-83626428D01*
X134647619Y-83650238D01*
X134659523Y-83662142D01*
X134683333Y-83674047D01*
X134778571Y-83674047D01*
X134540476Y-83566904D02*
X134528571Y-83555000D01*
X134504761Y-83543095D01*
X134445238Y-83543095D01*
X134421428Y-83555000D01*
X134409523Y-83566904D01*
X134397619Y-83590714D01*
X134397619Y-83614523D01*
X134409523Y-83650238D01*
X134552380Y-83793095D01*
X134397619Y-83793095D01*
X134314285Y-83543095D02*
X134147619Y-83543095D01*
X134254761Y-83793095D01*
X134915714Y-79103095D02*
X134999047Y-78984047D01*
X135058571Y-79103095D02*
X135058571Y-78853095D01*
X134963333Y-78853095D01*
X134939523Y-78865000D01*
X134927619Y-78876904D01*
X134915714Y-78900714D01*
X134915714Y-78936428D01*
X134927619Y-78960238D01*
X134939523Y-78972142D01*
X134963333Y-78984047D01*
X135058571Y-78984047D01*
X134820476Y-78876904D02*
X134808571Y-78865000D01*
X134784761Y-78853095D01*
X134725238Y-78853095D01*
X134701428Y-78865000D01*
X134689523Y-78876904D01*
X134677619Y-78900714D01*
X134677619Y-78924523D01*
X134689523Y-78960238D01*
X134832380Y-79103095D01*
X134677619Y-79103095D01*
X134558571Y-79103095D02*
X134510952Y-79103095D01*
X134487142Y-79091190D01*
X134475238Y-79079285D01*
X134451428Y-79043571D01*
X134439523Y-78995952D01*
X134439523Y-78900714D01*
X134451428Y-78876904D01*
X134463333Y-78865000D01*
X134487142Y-78853095D01*
X134534761Y-78853095D01*
X134558571Y-78865000D01*
X134570476Y-78876904D01*
X134582380Y-78900714D01*
X134582380Y-78960238D01*
X134570476Y-78984047D01*
X134558571Y-78995952D01*
X134534761Y-79007857D01*
X134487142Y-79007857D01*
X134463333Y-78995952D01*
X134451428Y-78984047D01*
X134439523Y-78960238D01*
D11*
X137069523Y-103941904D02*
X137069523Y-104589523D01*
X137031428Y-104665714D01*
X136993333Y-104703809D01*
X136917142Y-104741904D01*
X136764761Y-104741904D01*
X136688571Y-104703809D01*
X136650476Y-104665714D01*
X136612380Y-104589523D01*
X136612380Y-103941904D01*
X135850476Y-103941904D02*
X136231428Y-103941904D01*
X136269523Y-104322857D01*
X136231428Y-104284761D01*
X136155238Y-104246666D01*
X135964761Y-104246666D01*
X135888571Y-104284761D01*
X135850476Y-104322857D01*
X135812380Y-104399047D01*
X135812380Y-104589523D01*
X135850476Y-104665714D01*
X135888571Y-104703809D01*
X135964761Y-104741904D01*
X136155238Y-104741904D01*
X136231428Y-104703809D01*
X136269523Y-104665714D01*
X162873333Y-133352380D02*
X162873333Y-134066666D01*
X162920952Y-134209523D01*
X163016190Y-134304761D01*
X163159047Y-134352380D01*
X163254285Y-134352380D01*
X161968571Y-133685714D02*
X161968571Y-134352380D01*
X162206666Y-133304761D02*
X162444761Y-134019047D01*
X161825714Y-134019047D01*
D10*
X131723095Y-107519285D02*
X131604047Y-107435952D01*
X131723095Y-107376428D02*
X131473095Y-107376428D01*
X131473095Y-107471666D01*
X131485000Y-107495476D01*
X131496904Y-107507380D01*
X131520714Y-107519285D01*
X131556428Y-107519285D01*
X131580238Y-107507380D01*
X131592142Y-107495476D01*
X131604047Y-107471666D01*
X131604047Y-107376428D01*
X131496904Y-107614523D02*
X131485000Y-107626428D01*
X131473095Y-107650238D01*
X131473095Y-107709761D01*
X131485000Y-107733571D01*
X131496904Y-107745476D01*
X131520714Y-107757380D01*
X131544523Y-107757380D01*
X131580238Y-107745476D01*
X131723095Y-107602619D01*
X131723095Y-107757380D01*
X131556428Y-107971666D02*
X131723095Y-107971666D01*
X131461190Y-107912142D02*
X131639761Y-107852619D01*
X131639761Y-108007380D01*
X102928095Y-136759285D02*
X102809047Y-136675952D01*
X102928095Y-136616428D02*
X102678095Y-136616428D01*
X102678095Y-136711666D01*
X102690000Y-136735476D01*
X102701904Y-136747380D01*
X102725714Y-136759285D01*
X102761428Y-136759285D01*
X102785238Y-136747380D01*
X102797142Y-136735476D01*
X102809047Y-136711666D01*
X102809047Y-136616428D01*
X102701904Y-136854523D02*
X102690000Y-136866428D01*
X102678095Y-136890238D01*
X102678095Y-136949761D01*
X102690000Y-136973571D01*
X102701904Y-136985476D01*
X102725714Y-136997380D01*
X102749523Y-136997380D01*
X102785238Y-136985476D01*
X102928095Y-136842619D01*
X102928095Y-136997380D01*
X102678095Y-137080714D02*
X102678095Y-137235476D01*
X102773333Y-137152142D01*
X102773333Y-137187857D01*
X102785238Y-137211666D01*
X102797142Y-137223571D01*
X102820952Y-137235476D01*
X102880476Y-137235476D01*
X102904285Y-137223571D01*
X102916190Y-137211666D01*
X102928095Y-137187857D01*
X102928095Y-137116428D01*
X102916190Y-137092619D01*
X102904285Y-137080714D01*
X107001666Y-131893095D02*
X107085000Y-131774047D01*
X107144523Y-131893095D02*
X107144523Y-131643095D01*
X107049285Y-131643095D01*
X107025476Y-131655000D01*
X107013571Y-131666904D01*
X107001666Y-131690714D01*
X107001666Y-131726428D01*
X107013571Y-131750238D01*
X107025476Y-131762142D01*
X107049285Y-131774047D01*
X107144523Y-131774047D01*
X106918333Y-131643095D02*
X106763571Y-131643095D01*
X106846904Y-131738333D01*
X106811190Y-131738333D01*
X106787380Y-131750238D01*
X106775476Y-131762142D01*
X106763571Y-131785952D01*
X106763571Y-131845476D01*
X106775476Y-131869285D01*
X106787380Y-131881190D01*
X106811190Y-131893095D01*
X106882619Y-131893095D01*
X106906428Y-131881190D01*
X106918333Y-131869285D01*
D13*
X121982857Y-118943333D02*
X122001904Y-118924285D01*
X122020952Y-118867142D01*
X122020952Y-118829047D01*
X122001904Y-118771904D01*
X121963809Y-118733809D01*
X121925714Y-118714761D01*
X121849523Y-118695714D01*
X121792380Y-118695714D01*
X121716190Y-118714761D01*
X121678095Y-118733809D01*
X121640000Y-118771904D01*
X121620952Y-118829047D01*
X121620952Y-118867142D01*
X121640000Y-118924285D01*
X121659047Y-118943333D01*
X121620952Y-119076666D02*
X121620952Y-119324285D01*
X121773333Y-119190952D01*
X121773333Y-119248095D01*
X121792380Y-119286190D01*
X121811428Y-119305238D01*
X121849523Y-119324285D01*
X121944761Y-119324285D01*
X121982857Y-119305238D01*
X122001904Y-119286190D01*
X122020952Y-119248095D01*
X122020952Y-119133809D01*
X122001904Y-119095714D01*
X121982857Y-119076666D01*
X126112857Y-119125357D02*
X126131904Y-119106309D01*
X126150952Y-119049166D01*
X126150952Y-119011071D01*
X126131904Y-118953928D01*
X126093809Y-118915833D01*
X126055714Y-118896785D01*
X125979523Y-118877738D01*
X125922380Y-118877738D01*
X125846190Y-118896785D01*
X125808095Y-118915833D01*
X125770000Y-118953928D01*
X125750952Y-119011071D01*
X125750952Y-119049166D01*
X125770000Y-119106309D01*
X125789047Y-119125357D01*
X126150952Y-119506309D02*
X126150952Y-119277738D01*
X126150952Y-119392023D02*
X125750952Y-119392023D01*
X125808095Y-119353928D01*
X125846190Y-119315833D01*
X125865238Y-119277738D01*
X126150952Y-119887261D02*
X126150952Y-119658690D01*
X126150952Y-119772976D02*
X125750952Y-119772976D01*
X125808095Y-119734880D01*
X125846190Y-119696785D01*
X125865238Y-119658690D01*
X133208857Y-119125357D02*
X133227904Y-119106309D01*
X133246952Y-119049166D01*
X133246952Y-119011071D01*
X133227904Y-118953928D01*
X133189809Y-118915833D01*
X133151714Y-118896785D01*
X133075523Y-118877738D01*
X133018380Y-118877738D01*
X132942190Y-118896785D01*
X132904095Y-118915833D01*
X132866000Y-118953928D01*
X132846952Y-119011071D01*
X132846952Y-119049166D01*
X132866000Y-119106309D01*
X132885047Y-119125357D01*
X133246952Y-119506309D02*
X133246952Y-119277738D01*
X133246952Y-119392023D02*
X132846952Y-119392023D01*
X132904095Y-119353928D01*
X132942190Y-119315833D01*
X132961238Y-119277738D01*
X132846952Y-119868214D02*
X132846952Y-119677738D01*
X133037428Y-119658690D01*
X133018380Y-119677738D01*
X132999333Y-119715833D01*
X132999333Y-119811071D01*
X133018380Y-119849166D01*
X133037428Y-119868214D01*
X133075523Y-119887261D01*
X133170761Y-119887261D01*
X133208857Y-119868214D01*
X133227904Y-119849166D01*
X133246952Y-119811071D01*
X133246952Y-119715833D01*
X133227904Y-119677738D01*
X133208857Y-119658690D01*
X128156857Y-119007857D02*
X128175904Y-118988809D01*
X128194952Y-118931666D01*
X128194952Y-118893571D01*
X128175904Y-118836428D01*
X128137809Y-118798333D01*
X128099714Y-118779285D01*
X128023523Y-118760238D01*
X127966380Y-118760238D01*
X127890190Y-118779285D01*
X127852095Y-118798333D01*
X127814000Y-118836428D01*
X127794952Y-118893571D01*
X127794952Y-118931666D01*
X127814000Y-118988809D01*
X127833047Y-119007857D01*
X128194952Y-119388809D02*
X128194952Y-119160238D01*
X128194952Y-119274523D02*
X127794952Y-119274523D01*
X127852095Y-119236428D01*
X127890190Y-119198333D01*
X127909238Y-119160238D01*
X127833047Y-119541190D02*
X127814000Y-119560238D01*
X127794952Y-119598333D01*
X127794952Y-119693571D01*
X127814000Y-119731666D01*
X127833047Y-119750714D01*
X127871142Y-119769761D01*
X127909238Y-119769761D01*
X127966380Y-119750714D01*
X128194952Y-119522142D01*
X128194952Y-119769761D01*
X131434857Y-119125357D02*
X131453904Y-119106309D01*
X131472952Y-119049166D01*
X131472952Y-119011071D01*
X131453904Y-118953928D01*
X131415809Y-118915833D01*
X131377714Y-118896785D01*
X131301523Y-118877738D01*
X131244380Y-118877738D01*
X131168190Y-118896785D01*
X131130095Y-118915833D01*
X131092000Y-118953928D01*
X131072952Y-119011071D01*
X131072952Y-119049166D01*
X131092000Y-119106309D01*
X131111047Y-119125357D01*
X131472952Y-119506309D02*
X131472952Y-119277738D01*
X131472952Y-119392023D02*
X131072952Y-119392023D01*
X131130095Y-119353928D01*
X131168190Y-119315833D01*
X131187238Y-119277738D01*
X131206285Y-119849166D02*
X131472952Y-119849166D01*
X131053904Y-119753928D02*
X131339619Y-119658690D01*
X131339619Y-119906309D01*
D11*
X128128095Y-114297380D02*
X128128095Y-113297380D01*
X127890000Y-113297380D01*
X127747142Y-113345000D01*
X127651904Y-113440238D01*
X127604285Y-113535476D01*
X127556666Y-113725952D01*
X127556666Y-113868809D01*
X127604285Y-114059285D01*
X127651904Y-114154523D01*
X127747142Y-114249761D01*
X127890000Y-114297380D01*
X128128095Y-114297380D01*
X127175714Y-113392619D02*
X127128095Y-113345000D01*
X127032857Y-113297380D01*
X126794761Y-113297380D01*
X126699523Y-113345000D01*
X126651904Y-113392619D01*
X126604285Y-113487857D01*
X126604285Y-113583095D01*
X126651904Y-113725952D01*
X127223333Y-114297380D01*
X126604285Y-114297380D01*
D10*
X122878095Y-93459285D02*
X122759047Y-93375952D01*
X122878095Y-93316428D02*
X122628095Y-93316428D01*
X122628095Y-93411666D01*
X122640000Y-93435476D01*
X122651904Y-93447380D01*
X122675714Y-93459285D01*
X122711428Y-93459285D01*
X122735238Y-93447380D01*
X122747142Y-93435476D01*
X122759047Y-93411666D01*
X122759047Y-93316428D01*
X122651904Y-93554523D02*
X122640000Y-93566428D01*
X122628095Y-93590238D01*
X122628095Y-93649761D01*
X122640000Y-93673571D01*
X122651904Y-93685476D01*
X122675714Y-93697380D01*
X122699523Y-93697380D01*
X122735238Y-93685476D01*
X122878095Y-93542619D01*
X122878095Y-93697380D01*
X122651904Y-93792619D02*
X122640000Y-93804523D01*
X122628095Y-93828333D01*
X122628095Y-93887857D01*
X122640000Y-93911666D01*
X122651904Y-93923571D01*
X122675714Y-93935476D01*
X122699523Y-93935476D01*
X122735238Y-93923571D01*
X122878095Y-93780714D01*
X122878095Y-93935476D01*
X131950714Y-73503095D02*
X132034047Y-73384047D01*
X132093571Y-73503095D02*
X132093571Y-73253095D01*
X131998333Y-73253095D01*
X131974523Y-73265000D01*
X131962619Y-73276904D01*
X131950714Y-73300714D01*
X131950714Y-73336428D01*
X131962619Y-73360238D01*
X131974523Y-73372142D01*
X131998333Y-73384047D01*
X132093571Y-73384047D01*
X131855476Y-73276904D02*
X131843571Y-73265000D01*
X131819761Y-73253095D01*
X131760238Y-73253095D01*
X131736428Y-73265000D01*
X131724523Y-73276904D01*
X131712619Y-73300714D01*
X131712619Y-73324523D01*
X131724523Y-73360238D01*
X131867380Y-73503095D01*
X131712619Y-73503095D01*
X131498333Y-73253095D02*
X131545952Y-73253095D01*
X131569761Y-73265000D01*
X131581666Y-73276904D01*
X131605476Y-73312619D01*
X131617380Y-73360238D01*
X131617380Y-73455476D01*
X131605476Y-73479285D01*
X131593571Y-73491190D01*
X131569761Y-73503095D01*
X131522142Y-73503095D01*
X131498333Y-73491190D01*
X131486428Y-73479285D01*
X131474523Y-73455476D01*
X131474523Y-73395952D01*
X131486428Y-73372142D01*
X131498333Y-73360238D01*
X131522142Y-73348333D01*
X131569761Y-73348333D01*
X131593571Y-73360238D01*
X131605476Y-73372142D01*
X131617380Y-73395952D01*
X129735714Y-73513095D02*
X129819047Y-73394047D01*
X129878571Y-73513095D02*
X129878571Y-73263095D01*
X129783333Y-73263095D01*
X129759523Y-73275000D01*
X129747619Y-73286904D01*
X129735714Y-73310714D01*
X129735714Y-73346428D01*
X129747619Y-73370238D01*
X129759523Y-73382142D01*
X129783333Y-73394047D01*
X129878571Y-73394047D01*
X129497619Y-73513095D02*
X129640476Y-73513095D01*
X129569047Y-73513095D02*
X129569047Y-73263095D01*
X129592857Y-73298809D01*
X129616666Y-73322619D01*
X129640476Y-73334523D01*
X129259523Y-73513095D02*
X129402380Y-73513095D01*
X129330952Y-73513095D02*
X129330952Y-73263095D01*
X129354761Y-73298809D01*
X129378571Y-73322619D01*
X129402380Y-73334523D01*
X131749285Y-103919285D02*
X131761190Y-103907380D01*
X131773095Y-103871666D01*
X131773095Y-103847857D01*
X131761190Y-103812142D01*
X131737380Y-103788333D01*
X131713571Y-103776428D01*
X131665952Y-103764523D01*
X131630238Y-103764523D01*
X131582619Y-103776428D01*
X131558809Y-103788333D01*
X131535000Y-103812142D01*
X131523095Y-103847857D01*
X131523095Y-103871666D01*
X131535000Y-103907380D01*
X131546904Y-103919285D01*
X131546904Y-104014523D02*
X131535000Y-104026428D01*
X131523095Y-104050238D01*
X131523095Y-104109761D01*
X131535000Y-104133571D01*
X131546904Y-104145476D01*
X131570714Y-104157380D01*
X131594523Y-104157380D01*
X131630238Y-104145476D01*
X131773095Y-104002619D01*
X131773095Y-104157380D01*
X131606428Y-104371666D02*
X131773095Y-104371666D01*
X131511190Y-104312142D02*
X131689761Y-104252619D01*
X131689761Y-104407380D01*
D12*
X116863809Y-114697380D02*
X116840000Y-114649761D01*
X116792380Y-114602142D01*
X116720952Y-114530714D01*
X116697142Y-114483095D01*
X116697142Y-114435476D01*
X116816190Y-114459285D02*
X116792380Y-114411666D01*
X116744761Y-114364047D01*
X116649523Y-114340238D01*
X116482857Y-114340238D01*
X116387619Y-114364047D01*
X116340000Y-114411666D01*
X116316190Y-114459285D01*
X116316190Y-114554523D01*
X116340000Y-114602142D01*
X116387619Y-114649761D01*
X116482857Y-114673571D01*
X116649523Y-114673571D01*
X116744761Y-114649761D01*
X116792380Y-114602142D01*
X116816190Y-114554523D01*
X116816190Y-114459285D01*
X116363809Y-114864047D02*
X116340000Y-114887857D01*
X116316190Y-114935476D01*
X116316190Y-115054523D01*
X116340000Y-115102142D01*
X116363809Y-115125952D01*
X116411428Y-115149761D01*
X116459047Y-115149761D01*
X116530476Y-115125952D01*
X116816190Y-114840238D01*
X116816190Y-115149761D01*
D13*
X120322857Y-118963333D02*
X120341904Y-118944285D01*
X120360952Y-118887142D01*
X120360952Y-118849047D01*
X120341904Y-118791904D01*
X120303809Y-118753809D01*
X120265714Y-118734761D01*
X120189523Y-118715714D01*
X120132380Y-118715714D01*
X120056190Y-118734761D01*
X120018095Y-118753809D01*
X119980000Y-118791904D01*
X119960952Y-118849047D01*
X119960952Y-118887142D01*
X119980000Y-118944285D01*
X119999047Y-118963333D01*
X120360952Y-119344285D02*
X120360952Y-119115714D01*
X120360952Y-119230000D02*
X119960952Y-119230000D01*
X120018095Y-119191904D01*
X120056190Y-119153809D01*
X120075238Y-119115714D01*
X129660857Y-119125357D02*
X129679904Y-119106309D01*
X129698952Y-119049166D01*
X129698952Y-119011071D01*
X129679904Y-118953928D01*
X129641809Y-118915833D01*
X129603714Y-118896785D01*
X129527523Y-118877738D01*
X129470380Y-118877738D01*
X129394190Y-118896785D01*
X129356095Y-118915833D01*
X129318000Y-118953928D01*
X129298952Y-119011071D01*
X129298952Y-119049166D01*
X129318000Y-119106309D01*
X129337047Y-119125357D01*
X129698952Y-119506309D02*
X129698952Y-119277738D01*
X129698952Y-119392023D02*
X129298952Y-119392023D01*
X129356095Y-119353928D01*
X129394190Y-119315833D01*
X129413238Y-119277738D01*
X129298952Y-119639642D02*
X129298952Y-119887261D01*
X129451333Y-119753928D01*
X129451333Y-119811071D01*
X129470380Y-119849166D01*
X129489428Y-119868214D01*
X129527523Y-119887261D01*
X129622761Y-119887261D01*
X129660857Y-119868214D01*
X129679904Y-119849166D01*
X129698952Y-119811071D01*
X129698952Y-119696785D01*
X129679904Y-119658690D01*
X129660857Y-119639642D01*
D10*
X112601017Y-119123005D02*
X112477207Y-119036338D01*
X112601017Y-118974433D02*
X112341017Y-118974433D01*
X112341017Y-119073481D01*
X112353398Y-119098243D01*
X112365778Y-119110624D01*
X112390540Y-119123005D01*
X112427683Y-119123005D01*
X112452445Y-119110624D01*
X112464826Y-119098243D01*
X112477207Y-119073481D01*
X112477207Y-118974433D01*
X112341017Y-119209671D02*
X112341017Y-119370624D01*
X112440064Y-119283957D01*
X112440064Y-119321100D01*
X112452445Y-119345862D01*
X112464826Y-119358243D01*
X112489588Y-119370624D01*
X112551493Y-119370624D01*
X112576255Y-119358243D01*
X112588636Y-119345862D01*
X112601017Y-119321100D01*
X112601017Y-119246814D01*
X112588636Y-119222052D01*
X112576255Y-119209671D01*
X112341017Y-119531576D02*
X112341017Y-119556338D01*
X112353398Y-119581100D01*
X112365778Y-119593481D01*
X112390540Y-119605862D01*
X112440064Y-119618243D01*
X112501969Y-119618243D01*
X112551493Y-119605862D01*
X112576255Y-119593481D01*
X112588636Y-119581100D01*
X112601017Y-119556338D01*
X112601017Y-119531576D01*
X112588636Y-119506814D01*
X112576255Y-119494433D01*
X112551493Y-119482052D01*
X112501969Y-119469671D01*
X112440064Y-119469671D01*
X112390540Y-119482052D01*
X112365778Y-119494433D01*
X112353398Y-119506814D01*
X112341017Y-119531576D01*
D15*
X112307819Y-128249341D02*
X112474486Y-128249341D01*
X112474486Y-128511246D02*
X112474486Y-128011246D01*
X112236391Y-128011246D01*
X111784010Y-128511246D02*
X112069724Y-128511246D01*
X111926867Y-128511246D02*
X111926867Y-128011246D01*
X111974486Y-128082675D01*
X112022105Y-128130294D01*
X112069724Y-128154103D01*
D10*
X111577619Y-119112857D02*
X111453809Y-119026190D01*
X111577619Y-118964285D02*
X111317619Y-118964285D01*
X111317619Y-119063333D01*
X111330000Y-119088095D01*
X111342380Y-119100476D01*
X111367142Y-119112857D01*
X111404285Y-119112857D01*
X111429047Y-119100476D01*
X111441428Y-119088095D01*
X111453809Y-119063333D01*
X111453809Y-118964285D01*
X111317619Y-119199523D02*
X111317619Y-119360476D01*
X111416666Y-119273809D01*
X111416666Y-119310952D01*
X111429047Y-119335714D01*
X111441428Y-119348095D01*
X111466190Y-119360476D01*
X111528095Y-119360476D01*
X111552857Y-119348095D01*
X111565238Y-119335714D01*
X111577619Y-119310952D01*
X111577619Y-119236666D01*
X111565238Y-119211904D01*
X111552857Y-119199523D01*
X111577619Y-119608095D02*
X111577619Y-119459523D01*
X111577619Y-119533809D02*
X111317619Y-119533809D01*
X111354761Y-119509047D01*
X111379523Y-119484285D01*
X111391904Y-119459523D01*
X109778095Y-133869285D02*
X109659047Y-133785952D01*
X109778095Y-133726428D02*
X109528095Y-133726428D01*
X109528095Y-133821666D01*
X109540000Y-133845476D01*
X109551904Y-133857380D01*
X109575714Y-133869285D01*
X109611428Y-133869285D01*
X109635238Y-133857380D01*
X109647142Y-133845476D01*
X109659047Y-133821666D01*
X109659047Y-133726428D01*
X109551904Y-133964523D02*
X109540000Y-133976428D01*
X109528095Y-134000238D01*
X109528095Y-134059761D01*
X109540000Y-134083571D01*
X109551904Y-134095476D01*
X109575714Y-134107380D01*
X109599523Y-134107380D01*
X109635238Y-134095476D01*
X109778095Y-133952619D01*
X109778095Y-134107380D01*
X109528095Y-134333571D02*
X109528095Y-134214523D01*
X109647142Y-134202619D01*
X109635238Y-134214523D01*
X109623333Y-134238333D01*
X109623333Y-134297857D01*
X109635238Y-134321666D01*
X109647142Y-134333571D01*
X109670952Y-134345476D01*
X109730476Y-134345476D01*
X109754285Y-134333571D01*
X109766190Y-134321666D01*
X109778095Y-134297857D01*
X109778095Y-134238333D01*
X109766190Y-134214523D01*
X109754285Y-134202619D01*
D16*
X126430000Y-93380000D02*
X125930000Y-93380000D01*
X125930000Y-94380000D02*
X126430000Y-94380000D01*
X126430000Y-94380000D02*
X126430000Y-93380000D01*
X125930000Y-93380000D02*
X125930000Y-94380000D01*
X125570000Y-71015000D02*
X125070000Y-71015000D01*
X125570000Y-72015000D02*
X125570000Y-71015000D01*
X125070000Y-71015000D02*
X125070000Y-72015000D01*
X125070000Y-72015000D02*
X125570000Y-72015000D01*
X131765000Y-113520000D02*
X131365000Y-112920000D01*
X130965000Y-113520000D02*
X131765000Y-113520000D01*
X131365000Y-112920000D02*
X130965000Y-113520000D01*
X131365000Y-113520000D02*
X131365000Y-114020000D01*
X132265000Y-114670000D02*
X132265000Y-111870000D01*
X131365000Y-112520000D02*
X131365000Y-112920000D01*
X130465000Y-111870000D02*
X130465000Y-114670000D01*
X132265000Y-111870000D02*
X130465000Y-111870000D01*
X131365000Y-112920000D02*
X131915000Y-112920000D01*
X130465000Y-114670000D02*
X132265000Y-114670000D01*
X131365000Y-112920000D02*
X130815000Y-112920000D01*
X127530000Y-75090000D02*
X129980000Y-75090000D01*
X130000000Y-75090000D02*
X130000000Y-76490000D01*
X126960000Y-76490000D02*
X130000000Y-76490000D01*
X126960000Y-75640000D02*
X126960000Y-76490000D01*
X127530000Y-75090000D02*
X126960000Y-75640000D01*
X134440000Y-120182500D02*
X135240000Y-120182500D01*
X135240000Y-118582500D02*
X134440000Y-118582500D01*
X134440000Y-118582500D02*
X134440000Y-120182500D01*
X135240000Y-120182500D02*
X135240000Y-118582500D01*
X128840000Y-115320000D02*
X128840000Y-113520000D01*
X127190000Y-114020000D02*
X127190000Y-114820000D01*
X127790000Y-114420000D02*
X127790000Y-114970000D01*
X127790000Y-114420000D02*
X127190000Y-114020000D01*
X126040000Y-115320000D02*
X128840000Y-115320000D01*
X126040000Y-113520000D02*
X126040000Y-115320000D01*
X128190000Y-114420000D02*
X127790000Y-114420000D01*
X127790000Y-114420000D02*
X127790000Y-113870000D01*
X128840000Y-113520000D02*
X126040000Y-113520000D01*
X127190000Y-114820000D02*
X127790000Y-114420000D01*
X127190000Y-114420000D02*
X126690000Y-114420000D01*
X118100000Y-118250000D02*
X118100000Y-119850000D01*
X118900000Y-118250000D02*
X118100000Y-118250000D01*
X118100000Y-119850000D02*
X118900000Y-119850000D01*
X118900000Y-119850000D02*
X118900000Y-118250000D01*
X125780000Y-76075000D02*
X125780000Y-77075000D01*
X126280000Y-77075000D02*
X126280000Y-76075000D01*
X126280000Y-76075000D02*
X125780000Y-76075000D01*
X125780000Y-77075000D02*
X126280000Y-77075000D01*
X125780000Y-74045000D02*
X125780000Y-75045000D01*
X126280000Y-75045000D02*
X126280000Y-74045000D01*
X126280000Y-74045000D02*
X125780000Y-74045000D01*
X125780000Y-75045000D02*
X126280000Y-75045000D01*
X125180000Y-94380000D02*
X125180000Y-93380000D01*
X124680000Y-93380000D02*
X124680000Y-94380000D01*
X125180000Y-93380000D02*
X124680000Y-93380000D01*
X124680000Y-94380000D02*
X125180000Y-94380000D01*
X138715000Y-131770000D02*
X138215000Y-131770000D01*
X140965000Y-134770000D02*
X140465000Y-134062893D01*
X140215000Y-131770000D02*
X140215000Y-131270000D01*
X138215000Y-131770000D02*
X138215000Y-131270000D01*
X140465000Y-134062893D02*
X139965000Y-134770000D01*
X138715000Y-131270000D02*
X138715000Y-131770000D01*
X143440000Y-134770000D02*
X135490000Y-134770000D01*
X135490000Y-134770000D02*
X135490000Y-129770000D01*
X143440000Y-134770000D02*
X143440000Y-129770000D01*
X140215000Y-131270000D02*
X140715000Y-131270000D01*
X140715000Y-131270000D02*
X140715000Y-131770000D01*
X140715000Y-131770000D02*
X140215000Y-131770000D01*
X138215000Y-131270000D02*
X138715000Y-131270000D01*
X143440000Y-126770000D02*
X135490000Y-126770000D01*
X129215000Y-116120000D02*
X127615000Y-116120000D01*
X127615000Y-116120000D02*
X127615000Y-116920000D01*
X127615000Y-116920000D02*
X129215000Y-116920000D01*
X129215000Y-116920000D02*
X129215000Y-116120000D01*
X124220000Y-71015000D02*
X123720000Y-71015000D01*
X123720000Y-72015000D02*
X124220000Y-72015000D01*
X123720000Y-71015000D02*
X123720000Y-72015000D01*
X124220000Y-72015000D02*
X124220000Y-71015000D01*
X125442939Y-123130356D02*
X117892939Y-123130356D01*
X125442939Y-123130356D02*
X132992939Y-123130356D01*
X117902939Y-127080356D02*
X125382939Y-127100356D01*
X117892939Y-123130356D02*
X117892939Y-127080356D01*
X132992939Y-127100356D02*
X125382939Y-127100356D01*
X119692939Y-123837463D02*
X120192939Y-123130356D01*
X132992939Y-123130356D02*
X132992939Y-127100356D01*
X119192939Y-123130356D02*
X119692939Y-123837463D01*
X119700000Y-116680000D02*
X122200000Y-116680000D01*
X122200000Y-113480000D02*
X119700000Y-113480000D01*
X122200000Y-116680000D02*
X122200000Y-113480000D01*
X119700000Y-113480000D02*
X119700000Y-116680000D01*
X121630000Y-69550000D02*
X122130000Y-69050000D01*
X122130000Y-88830000D02*
X104130000Y-88830000D01*
X104130000Y-88830000D02*
X104130000Y-63325000D01*
X122130000Y-70050000D02*
X122130000Y-88830000D01*
X122130000Y-70050000D02*
X121630000Y-69550000D01*
X122130000Y-63325000D02*
X104130000Y-63325000D01*
X122130000Y-63325000D02*
X122130000Y-69050000D01*
X132430000Y-116920000D02*
X132430000Y-116120000D01*
X130830000Y-116120000D02*
X130830000Y-116920000D01*
X132430000Y-116120000D02*
X130830000Y-116120000D01*
X130830000Y-116920000D02*
X132430000Y-116920000D01*
X124380000Y-119525000D02*
X124380000Y-117525000D01*
X124380000Y-117525000D02*
X123180000Y-117525000D01*
X123180000Y-117525000D02*
X123180000Y-119525000D01*
X123180000Y-119525000D02*
X124380000Y-119525000D01*
X116340000Y-120070000D02*
X116840000Y-120070000D01*
X116840000Y-120070000D02*
X116840000Y-119070000D01*
X116840000Y-119070000D02*
X116340000Y-119070000D01*
X116340000Y-119070000D02*
X116340000Y-120070000D01*
X124410000Y-113395000D02*
X123210000Y-113395000D01*
X123210000Y-113395000D02*
X123210000Y-115395000D01*
X124410000Y-115395000D02*
X124410000Y-113395000D01*
X123210000Y-115395000D02*
X124410000Y-115395000D01*
X134165000Y-113420000D02*
X136615000Y-113420000D01*
X133595000Y-113970000D02*
X133595000Y-114820000D01*
X136635000Y-113420000D02*
X136635000Y-114820000D01*
X134165000Y-113420000D02*
X133595000Y-113970000D01*
X133595000Y-114820000D02*
X136635000Y-114820000D01*
X134450000Y-111460000D02*
X133450000Y-111460000D01*
X133450000Y-111960000D02*
X134450000Y-111960000D01*
X133450000Y-111460000D02*
X133450000Y-111960000D01*
X134450000Y-111960000D02*
X134450000Y-111460000D01*
X135455000Y-111960000D02*
X136455000Y-111960000D01*
X136455000Y-111460000D02*
X135455000Y-111460000D01*
X136455000Y-111960000D02*
X136455000Y-111460000D01*
X135455000Y-111460000D02*
X135455000Y-111960000D01*
X127480000Y-78880000D02*
X127480000Y-79880000D01*
X127480000Y-79880000D02*
X127980000Y-79880000D01*
X127980000Y-78880000D02*
X127480000Y-78880000D01*
X127980000Y-79880000D02*
X127980000Y-78880000D01*
X127480000Y-81940000D02*
X127980000Y-81940000D01*
X127480000Y-80940000D02*
X127480000Y-81940000D01*
X127980000Y-80940000D02*
X127480000Y-80940000D01*
X127980000Y-81940000D02*
X127980000Y-80940000D01*
X115615000Y-119070000D02*
X115115000Y-119070000D01*
X115115000Y-119070000D02*
X115115000Y-120070000D01*
X115115000Y-120070000D02*
X115615000Y-120070000D01*
X115615000Y-120070000D02*
X115615000Y-119070000D01*
X120865000Y-96040000D02*
X119465000Y-96040000D01*
X120865000Y-93570000D02*
X120315000Y-93000000D01*
X119465000Y-93000000D02*
X119465000Y-96040000D01*
X120315000Y-93000000D02*
X119465000Y-93000000D01*
X120865000Y-93570000D02*
X120865000Y-96020000D01*
X123015000Y-95220000D02*
X122515000Y-95220000D01*
X123015000Y-96220000D02*
X123015000Y-95220000D01*
X122515000Y-95220000D02*
X122515000Y-96220000D01*
X122515000Y-96220000D02*
X123015000Y-96220000D01*
D18*
X103040000Y-99080000D02*
X102740000Y-97280000D01*
X102440000Y-96130000D02*
X102440000Y-93430000D01*
X103140000Y-100780000D02*
X103040000Y-99080000D01*
X116440000Y-108130000D02*
X103140000Y-108130000D01*
X116440000Y-93430000D02*
X102440000Y-93430000D01*
X116440000Y-108130000D02*
X116440000Y-93430000D01*
D14*
X101050000Y-110390000D02*
X101050000Y-90870000D01*
D18*
X101820000Y-107330000D02*
X103140000Y-107330000D01*
X102740000Y-97280000D02*
X102440000Y-96080000D01*
X101120000Y-106630000D02*
X101120000Y-96830000D01*
X101820000Y-96130000D02*
X102440000Y-96130000D01*
X103140000Y-108130000D02*
X103140000Y-100780000D01*
X115940000Y-93430000D02*
X116440000Y-93930000D01*
X101120000Y-106630000D02*
G75*
G03*
X101820000Y-107330000I699999J-1D01*
G01*
X101820000Y-96130000D02*
G75*
G03*
X101120000Y-96830000I-1J-699999D01*
G01*
D16*
X119850000Y-99270000D02*
X119850000Y-99770000D01*
X119850000Y-99770000D02*
X120850000Y-99770000D01*
X120850000Y-99770000D02*
X120850000Y-99270000D01*
X120850000Y-99270000D02*
X119850000Y-99270000D01*
X119850000Y-100395666D02*
X119850000Y-100895666D01*
X120850000Y-100895666D02*
X120850000Y-100395666D01*
X119850000Y-100895666D02*
X120850000Y-100895666D01*
X120850000Y-100395666D02*
X119850000Y-100395666D01*
X119850000Y-103772664D02*
X119850000Y-104272664D01*
X119850000Y-104272664D02*
X120850000Y-104272664D01*
X120850000Y-103772664D02*
X119850000Y-103772664D01*
X120850000Y-104272664D02*
X120850000Y-103772664D01*
X119850000Y-101521332D02*
X119850000Y-102021332D01*
X119850000Y-102021332D02*
X120850000Y-102021332D01*
X120850000Y-102021332D02*
X120850000Y-101521332D01*
X120850000Y-101521332D02*
X119850000Y-101521332D01*
X120850000Y-102646998D02*
X119850000Y-102646998D01*
X120850000Y-103146998D02*
X120850000Y-102646998D01*
X119850000Y-103146998D02*
X120850000Y-103146998D01*
X119850000Y-102646998D02*
X119850000Y-103146998D01*
X119890000Y-105398330D02*
X120890000Y-105398330D01*
X119890000Y-104898330D02*
X119890000Y-105398330D01*
X120890000Y-104898330D02*
X119890000Y-104898330D01*
X120890000Y-105398330D02*
X120890000Y-104898330D01*
X120890000Y-106524000D02*
X120890000Y-106024000D01*
X120890000Y-106024000D02*
X119890000Y-106024000D01*
X119890000Y-106024000D02*
X119890000Y-106524000D01*
X119890000Y-106524000D02*
X120890000Y-106524000D01*
X139015000Y-138570000D02*
X140015000Y-138570000D01*
X139015000Y-138070000D02*
X139015000Y-138570000D01*
X140015000Y-138070000D02*
X139015000Y-138070000D01*
X140015000Y-138570000D02*
X140015000Y-138070000D01*
X111115000Y-131220000D02*
X110545000Y-131770000D01*
X110545000Y-131770000D02*
X110545000Y-132620000D01*
X111115000Y-131220000D02*
X113565000Y-131220000D01*
X113585000Y-131220000D02*
X113585000Y-132620000D01*
X110545000Y-132620000D02*
X113585000Y-132620000D01*
X104660000Y-139080000D02*
X105660000Y-139080000D01*
X104660000Y-138580000D02*
X104660000Y-139080000D01*
X105660000Y-139080000D02*
X105660000Y-138580000D01*
X105660000Y-138580000D02*
X104660000Y-138580000D01*
X113160000Y-138430000D02*
X113160000Y-137930000D01*
X112160000Y-138430000D02*
X113160000Y-138430000D01*
X113160000Y-137930000D02*
X112160000Y-137930000D01*
X112160000Y-137930000D02*
X112160000Y-138430000D01*
X113818000Y-136550000D02*
X113818000Y-134750000D01*
X111368000Y-134750000D02*
X110718000Y-135400000D01*
X110718000Y-136550000D02*
X110718000Y-135400000D01*
X111368000Y-134750000D02*
X113818000Y-134750000D01*
X110718000Y-136550000D02*
X113818000Y-136550000D01*
X111560000Y-123020000D02*
X110910000Y-123670000D01*
X111560000Y-123020000D02*
X114010000Y-123020000D01*
X114010000Y-124820000D02*
X114010000Y-123020000D01*
X110910000Y-124820000D02*
X110910000Y-123670000D01*
X110910000Y-124820000D02*
X114010000Y-124820000D01*
X105910000Y-133630000D02*
X104910000Y-133630000D01*
X104910000Y-133630000D02*
X104910000Y-134130000D01*
X105910000Y-134130000D02*
X105910000Y-133630000D01*
X104910000Y-134130000D02*
X105910000Y-134130000D01*
X108350000Y-135780000D02*
X107550000Y-135780000D01*
X108350000Y-137380000D02*
X108350000Y-135780000D01*
X107550000Y-135780000D02*
X107550000Y-137380000D01*
X107550000Y-137380000D02*
X108350000Y-137380000D01*
X110010000Y-137380000D02*
X110010000Y-135780000D01*
X110010000Y-135780000D02*
X109210000Y-135780000D01*
X109210000Y-137380000D02*
X110010000Y-137380000D01*
X109210000Y-135780000D02*
X109210000Y-137380000D01*
X115365000Y-131470000D02*
X115765000Y-130870000D01*
X114965000Y-130870000D02*
X115365000Y-131470000D01*
X116265000Y-132520000D02*
X116265000Y-129720000D01*
X116265000Y-129720000D02*
X114465000Y-129720000D01*
X115365000Y-131470000D02*
X115915000Y-131470000D01*
X115765000Y-130870000D02*
X114965000Y-130870000D01*
X115365000Y-131470000D02*
X114815000Y-131470000D01*
X115365000Y-131870000D02*
X115365000Y-131470000D01*
X114465000Y-132520000D02*
X116265000Y-132520000D01*
X115365000Y-130870000D02*
X115365000Y-130370000D01*
X114465000Y-129720000D02*
X114465000Y-132520000D01*
X108610000Y-130250000D02*
X108610000Y-121310000D01*
X108610000Y-130250000D02*
X101310000Y-130250000D01*
X101310000Y-130250000D02*
X101310000Y-121310000D01*
X108610000Y-121310000D02*
X101310000Y-121310000D01*
X106910000Y-135450000D02*
X106910000Y-136600000D01*
X103810000Y-135450000D02*
X103810000Y-137250000D01*
X106260000Y-137250000D02*
X106910000Y-136600000D01*
X106260000Y-137250000D02*
X103810000Y-137250000D01*
X106910000Y-135450000D02*
X103810000Y-135450000D01*
X108960000Y-119280000D02*
X109960000Y-118280000D01*
X105960000Y-119280000D02*
X108960000Y-119280000D01*
X109960000Y-118280000D02*
X109960000Y-115280000D01*
X105960000Y-115280000D02*
X105960000Y-119280000D01*
X109960000Y-115280000D02*
X105960000Y-115280000D01*
X110846000Y-112007000D02*
X110846000Y-112857000D01*
X110846000Y-112007000D02*
X108646000Y-112007000D01*
X110846000Y-112857000D02*
X110346000Y-113357000D01*
X110346000Y-113357000D02*
X108646000Y-113357000D01*
X108646000Y-112007000D02*
X108646000Y-113357000D01*
X104210000Y-117020000D02*
X104210000Y-118020000D01*
X104710000Y-117020000D02*
X104210000Y-117020000D01*
X104210000Y-118020000D02*
X104710000Y-118020000D01*
X104710000Y-118020000D02*
X104710000Y-117020000D01*
X131290000Y-74740000D02*
X132290000Y-74740000D01*
X131290000Y-74240000D02*
X131290000Y-74740000D01*
X132290000Y-74740000D02*
X132290000Y-74240000D01*
X132290000Y-74240000D02*
X131290000Y-74240000D01*
X127035000Y-73150000D02*
X127035000Y-73650000D01*
X128035000Y-73150000D02*
X127035000Y-73150000D01*
X127035000Y-73650000D02*
X128035000Y-73650000D01*
X128035000Y-73650000D02*
X128035000Y-73150000D01*
D14*
X128042000Y-85840000D02*
X140042000Y-85840000D01*
X128042000Y-97840000D02*
X140042000Y-97840000D01*
X140042000Y-97840000D02*
X140042000Y-85840000D01*
X128042000Y-85840000D02*
X128042000Y-97840000D01*
D16*
X133120000Y-79240000D02*
X133120000Y-78740000D01*
X132120000Y-79240000D02*
X133120000Y-79240000D01*
X132120000Y-78740000D02*
X132120000Y-79240000D01*
X133120000Y-78740000D02*
X132120000Y-78740000D01*
X132130000Y-82070000D02*
X135170000Y-82070000D01*
X132130000Y-81220000D02*
X132130000Y-82070000D01*
X132700000Y-80670000D02*
X135150000Y-80670000D01*
X135170000Y-80670000D02*
X135170000Y-82070000D01*
X132700000Y-80670000D02*
X132130000Y-81220000D01*
X133975000Y-83430000D02*
X133975000Y-83930000D01*
X134975000Y-83930000D02*
X134975000Y-83430000D01*
X133975000Y-83930000D02*
X134975000Y-83930000D01*
X134975000Y-83430000D02*
X133975000Y-83430000D01*
X134255000Y-78740000D02*
X134255000Y-79240000D01*
X135255000Y-78740000D02*
X134255000Y-78740000D01*
X135255000Y-79240000D02*
X135255000Y-78740000D01*
X134255000Y-79240000D02*
X135255000Y-79240000D01*
X134260000Y-106630000D02*
X135260000Y-107630000D01*
X134260000Y-101130000D02*
X134260000Y-106630000D01*
X138660000Y-107630000D02*
X138660000Y-101130000D01*
X138660000Y-101130000D02*
X134260000Y-101130000D01*
X135260000Y-107630000D02*
X138660000Y-107630000D01*
D14*
X135149366Y-107246948D02*
G75*
G03*
X135149366Y-107246948I-205183J0D01*
G01*
X135017516Y-107221966D02*
G75*
G03*
X135017516Y-107221966I-56569J0D01*
G01*
X135055350Y-107251966D02*
G75*
G03*
X135055350Y-107251966I-104403J0D01*
G01*
D16*
X155240000Y-137500000D02*
X155240000Y-136440000D01*
X177460000Y-130300000D02*
X178100000Y-130300000D01*
X165400000Y-130300000D02*
X165400000Y-131360000D01*
X146980000Y-137500000D02*
X147620000Y-137500000D01*
X162220000Y-136440000D02*
X162220000Y-137500000D01*
X172380000Y-136440000D02*
X172380000Y-137500000D01*
X177460000Y-136440000D02*
X177460000Y-137500000D01*
X177460000Y-131360000D02*
X177460000Y-130300000D01*
X172380000Y-130300000D02*
X173020000Y-130300000D01*
X159680000Y-137500000D02*
X160320000Y-137500000D01*
X149520000Y-131360000D02*
X149520000Y-130300000D01*
X169840000Y-130300000D02*
X170480000Y-130300000D01*
X146980000Y-130300000D02*
X147620000Y-130300000D01*
X179050000Y-136440000D02*
X179050000Y-131360000D01*
X170480000Y-130300000D02*
X170480000Y-131360000D01*
X147620000Y-137500000D02*
X147620000Y-136440000D01*
X174920000Y-130300000D02*
X175560000Y-130300000D01*
X160320000Y-130300000D02*
X160320000Y-131360000D01*
X157140000Y-130300000D02*
X157780000Y-130300000D01*
X157140000Y-136440000D02*
X157140000Y-137500000D01*
X162220000Y-130300000D02*
X162860000Y-130300000D01*
X162220000Y-131360000D02*
X162220000Y-130300000D01*
X169840000Y-136440000D02*
X169840000Y-137500000D01*
X150160000Y-137500000D02*
X150160000Y-136440000D01*
X149520000Y-136440000D02*
X149520000Y-137500000D01*
X149520000Y-137500000D02*
X150160000Y-137500000D01*
X157140000Y-137500000D02*
X157780000Y-137500000D01*
X154600000Y-130300000D02*
X155240000Y-130300000D01*
X174920000Y-131360000D02*
X174920000Y-130300000D01*
X152700000Y-137500000D02*
X152700000Y-136440000D01*
X152700000Y-130300000D02*
X152700000Y-131360000D01*
X167300000Y-131360000D02*
X167300000Y-130300000D01*
X169840000Y-131360000D02*
X169840000Y-130300000D01*
X175560000Y-137500000D02*
X175560000Y-136440000D01*
X169840000Y-137500000D02*
X170480000Y-137500000D01*
X152060000Y-136440000D02*
X152060000Y-137500000D01*
X162860000Y-137500000D02*
X162860000Y-136440000D01*
X167300000Y-130300000D02*
X167940000Y-130300000D01*
X159680000Y-136440000D02*
X159680000Y-137500000D01*
X152060000Y-131360000D02*
X152060000Y-130300000D01*
X178100000Y-130300000D02*
X178100000Y-131360000D01*
X146030000Y-132310000D02*
X146030000Y-136440000D01*
X152060000Y-130300000D02*
X152700000Y-130300000D01*
X164760000Y-137500000D02*
X165400000Y-137500000D01*
X159680000Y-130300000D02*
X160320000Y-130300000D01*
X167300000Y-136440000D02*
X167300000Y-137500000D01*
X179050000Y-131360000D02*
X146980000Y-131360000D01*
X157780000Y-137500000D02*
X157780000Y-136440000D01*
X172380000Y-137500000D02*
X173020000Y-137500000D01*
X164760000Y-131360000D02*
X164760000Y-130300000D01*
X154600000Y-136440000D02*
X154600000Y-137500000D01*
X155240000Y-130300000D02*
X155240000Y-131360000D01*
X167940000Y-130300000D02*
X167940000Y-131360000D01*
X157140000Y-131360000D02*
X157140000Y-130300000D01*
X173020000Y-137500000D02*
X173020000Y-136440000D01*
X160320000Y-137500000D02*
X160320000Y-136440000D01*
X167940000Y-137500000D02*
X167940000Y-136440000D01*
X147620000Y-130300000D02*
X147620000Y-131360000D01*
X162860000Y-130300000D02*
X162860000Y-131360000D01*
X150160000Y-130300000D02*
X150160000Y-131360000D01*
X146030000Y-136440000D02*
X179050000Y-136440000D01*
X164760000Y-130300000D02*
X165400000Y-130300000D01*
X149520000Y-130300000D02*
X150160000Y-130300000D01*
X170480000Y-137500000D02*
X170480000Y-136440000D01*
X154600000Y-131360000D02*
X154600000Y-130300000D01*
X159680000Y-131360000D02*
X159680000Y-130300000D01*
X174920000Y-136440000D02*
X174920000Y-137500000D01*
X173020000Y-130300000D02*
X173020000Y-131360000D01*
X172380000Y-131360000D02*
X172380000Y-130300000D01*
X167300000Y-137500000D02*
X167940000Y-137500000D01*
X174920000Y-137500000D02*
X175560000Y-137500000D01*
X175560000Y-130300000D02*
X175560000Y-131360000D01*
X146980000Y-131360000D02*
X146030000Y-132310000D01*
X178100000Y-137500000D02*
X178100000Y-136440000D01*
X152060000Y-137500000D02*
X152700000Y-137500000D01*
X157780000Y-130300000D02*
X157780000Y-131360000D01*
X154600000Y-137500000D02*
X155240000Y-137500000D01*
X146980000Y-131360000D02*
X146980000Y-130300000D01*
X146980000Y-136440000D02*
X146980000Y-137500000D01*
X165400000Y-137500000D02*
X165400000Y-136440000D01*
X177460000Y-137500000D02*
X178100000Y-137500000D01*
X162220000Y-137500000D02*
X162860000Y-137500000D01*
X164760000Y-136440000D02*
X164760000Y-137500000D01*
X131860000Y-108180000D02*
X131860000Y-107180000D01*
X131360000Y-107180000D02*
X131360000Y-108180000D01*
X131860000Y-107180000D02*
X131360000Y-107180000D01*
X131360000Y-108180000D02*
X131860000Y-108180000D01*
X103065000Y-136420000D02*
X102565000Y-136420000D01*
X103065000Y-137420000D02*
X103065000Y-136420000D01*
X102565000Y-137420000D02*
X103065000Y-137420000D01*
X102565000Y-136420000D02*
X102565000Y-137420000D01*
X106460000Y-132030000D02*
X107460000Y-132030000D01*
X107460000Y-132030000D02*
X107460000Y-131530000D01*
X106460000Y-131530000D02*
X106460000Y-132030000D01*
X107460000Y-131530000D02*
X106460000Y-131530000D01*
X122240000Y-118210000D02*
X121440000Y-118210000D01*
X122240000Y-119810000D02*
X122240000Y-118210000D01*
X121440000Y-118210000D02*
X121440000Y-119810000D01*
X121440000Y-119810000D02*
X122240000Y-119810000D01*
X126370000Y-118582500D02*
X125570000Y-118582500D01*
X125570000Y-118582500D02*
X125570000Y-120182500D01*
X125570000Y-120182500D02*
X126370000Y-120182500D01*
X126370000Y-120182500D02*
X126370000Y-118582500D01*
X133466000Y-120182500D02*
X133466000Y-118582500D01*
X132666000Y-120182500D02*
X133466000Y-120182500D01*
X132666000Y-118582500D02*
X132666000Y-120182500D01*
X133466000Y-118582500D02*
X132666000Y-118582500D01*
X128144000Y-120182500D02*
X128144000Y-118582500D01*
X128144000Y-118582500D02*
X127344000Y-118582500D01*
X127344000Y-120182500D02*
X128144000Y-120182500D01*
X127344000Y-118582500D02*
X127344000Y-120182500D01*
X130892000Y-120182500D02*
X131692000Y-120182500D01*
X131692000Y-120182500D02*
X131692000Y-118582500D01*
X130892000Y-118582500D02*
X130892000Y-120182500D01*
X131692000Y-118582500D02*
X130892000Y-118582500D01*
X127640000Y-111445000D02*
X127040000Y-111845000D01*
X125990000Y-110945000D02*
X125990000Y-112745000D01*
X128790000Y-112745000D02*
X128790000Y-110945000D01*
X127040000Y-111845000D02*
X127040000Y-112395000D01*
X126640000Y-111845000D02*
X127040000Y-111845000D01*
X125990000Y-112745000D02*
X128790000Y-112745000D01*
X127640000Y-111845000D02*
X128140000Y-111845000D01*
X127040000Y-111845000D02*
X127640000Y-112245000D01*
X127040000Y-111845000D02*
X127040000Y-111295000D01*
X127640000Y-112245000D02*
X127640000Y-111445000D01*
X128790000Y-110945000D02*
X125990000Y-110945000D01*
X122515000Y-93120000D02*
X122515000Y-94120000D01*
X122515000Y-94120000D02*
X123015000Y-94120000D01*
X123015000Y-94120000D02*
X123015000Y-93120000D01*
X123015000Y-93120000D02*
X122515000Y-93120000D01*
X132290000Y-73140000D02*
X131290000Y-73140000D01*
X131290000Y-73140000D02*
X131290000Y-73640000D01*
X132290000Y-73640000D02*
X132290000Y-73140000D01*
X131290000Y-73640000D02*
X132290000Y-73640000D01*
X130075000Y-73150000D02*
X129075000Y-73150000D01*
X130075000Y-73650000D02*
X130075000Y-73150000D01*
X129075000Y-73650000D02*
X130075000Y-73650000D01*
X129075000Y-73150000D02*
X129075000Y-73650000D01*
X131910000Y-103580000D02*
X131410000Y-103580000D01*
X131910000Y-104580000D02*
X131910000Y-103580000D01*
X131410000Y-103580000D02*
X131410000Y-104580000D01*
X131410000Y-104580000D02*
X131910000Y-104580000D01*
X117290000Y-113795000D02*
X117290000Y-116245000D01*
X116740000Y-113225000D02*
X115890000Y-113225000D01*
X117290000Y-113795000D02*
X116740000Y-113225000D01*
X115890000Y-113225000D02*
X115890000Y-116265000D01*
X117290000Y-116265000D02*
X115890000Y-116265000D01*
X120580000Y-118230000D02*
X119780000Y-118230000D01*
X119780000Y-119830000D02*
X120580000Y-119830000D01*
X119780000Y-118230000D02*
X119780000Y-119830000D01*
X120580000Y-119830000D02*
X120580000Y-118230000D01*
X129918000Y-118582500D02*
X129118000Y-118582500D01*
X129918000Y-120182500D02*
X129918000Y-118582500D01*
X129118000Y-118582500D02*
X129118000Y-120182500D01*
X129118000Y-120182500D02*
X129918000Y-120182500D01*
X112753398Y-118765148D02*
X112213398Y-118765148D01*
X112213398Y-118765148D02*
X112213398Y-119815148D01*
X112753398Y-119815148D02*
X112753398Y-118765148D01*
X112213398Y-119815148D02*
X112753398Y-119815148D01*
X113141153Y-128885056D02*
X113141153Y-127685056D01*
X111141153Y-128885056D02*
X113141153Y-128885056D01*
X113141153Y-127685056D02*
X111141153Y-127685056D01*
X111141153Y-127685056D02*
X111141153Y-128885056D01*
X111730000Y-119805000D02*
X111730000Y-118755000D01*
X111190000Y-118755000D02*
X111190000Y-119805000D01*
X111190000Y-119805000D02*
X111730000Y-119805000D01*
X111730000Y-118755000D02*
X111190000Y-118755000D01*
D14*
X190810000Y-104250000D02*
X194610000Y-104250000D01*
X194610000Y-104250000D02*
X194610000Y-113250000D01*
X194610000Y-113250000D02*
X190810000Y-113250000D01*
X190810000Y-113250000D02*
X190810000Y-104250000D01*
X190810000Y-124570000D02*
X194610000Y-124570000D01*
X194610000Y-124570000D02*
X194610000Y-133570000D01*
X194610000Y-133570000D02*
X190810000Y-133570000D01*
X190810000Y-133570000D02*
X190810000Y-124570000D01*
X102866498Y-132905901D02*
X103046498Y-133305901D01*
X102060000Y-132580000D02*
X102430000Y-132580000D01*
X102686498Y-133305901D02*
X102866498Y-132905901D01*
X102060000Y-132580000D02*
X102060000Y-133780000D01*
X102060000Y-133780000D02*
X102430000Y-133780000D01*
X103046498Y-133305901D02*
X102686498Y-133305901D01*
D16*
X102560000Y-132330000D02*
X103160000Y-132330000D01*
X103160000Y-132330000D02*
X103160000Y-134030000D01*
X103160000Y-134030000D02*
X102560000Y-134030000D01*
X102560000Y-134030000D02*
X102560000Y-132330000D01*
D14*
X190810000Y-68920000D02*
X194610000Y-68920000D01*
X194610000Y-68920000D02*
X194610000Y-77920000D01*
X194610000Y-77920000D02*
X190810000Y-77920000D01*
X190810000Y-77920000D02*
X190810000Y-68920000D01*
D16*
X109415000Y-134530000D02*
X109915000Y-134530000D01*
X109915000Y-133530000D02*
X109415000Y-133530000D01*
X109915000Y-134530000D02*
X109915000Y-133530000D01*
X109415000Y-133530000D02*
X109415000Y-134530000D01*
D14*
X190810000Y-86585000D02*
X194610000Y-86585000D01*
X194610000Y-86585000D02*
X194610000Y-95585000D01*
X194610000Y-95585000D02*
X190810000Y-95585000D01*
X190810000Y-95585000D02*
X190810000Y-86585000D01*
M02*
