G04 #@! TF.GenerationSoftware,KiCad,Pcbnew,(6.0.2)*
G04 #@! TF.CreationDate,2022-07-18T21:19:01-05:00*
G04 #@! TF.ProjectId,paperd_ink_rev4,70617065-7264-45f6-996e-6b5f72657634,rev?*
G04 #@! TF.SameCoordinates,Original*
G04 #@! TF.FileFunction,Copper,L1,Top*
G04 #@! TF.FilePolarity,Positive*
%FSLAX46Y46*%
G04 Gerber Fmt 4.6, Leading zero omitted, Abs format (unit mm)*
G04 Created by KiCad (PCBNEW (6.0.2)) date 2022-07-18 21:19:01*
%MOMM*%
%LPD*%
G01*
G04 APERTURE LIST*
G04 #@! TA.AperFunction,ComponentPad*
%ADD10O,1.600000X1.000000*%
G04 #@! TD*
G04 #@! TA.AperFunction,ComponentPad*
%ADD11O,2.100000X1.000000*%
G04 #@! TD*
G04 #@! TA.AperFunction,ViaPad*
%ADD12C,0.600000*%
G04 #@! TD*
G04 #@! TA.AperFunction,Conductor*
%ADD13C,0.300000*%
G04 #@! TD*
G04 #@! TA.AperFunction,Conductor*
%ADD14C,0.400000*%
G04 #@! TD*
G04 #@! TA.AperFunction,Conductor*
%ADD15C,0.254000*%
G04 #@! TD*
G04 #@! TA.AperFunction,Conductor*
%ADD16C,0.130000*%
G04 #@! TD*
G04 #@! TA.AperFunction,Conductor*
%ADD17C,0.200000*%
G04 #@! TD*
G04 APERTURE END LIST*
D10*
X103910000Y-130100000D03*
D11*
X108090000Y-121460000D03*
D10*
X103910000Y-121460000D03*
D11*
X108090000Y-130100000D03*
D12*
X182297500Y-73145000D03*
X144690000Y-79070000D03*
X178130000Y-102797775D03*
X169795000Y-85006110D03*
X106210000Y-136330000D03*
X173962500Y-96867220D03*
X169795000Y-108728330D03*
X114165000Y-78357500D03*
X182297500Y-126520000D03*
X143510000Y-137242500D03*
X169795000Y-73145000D03*
X161460000Y-84995000D03*
X186465000Y-102797775D03*
X115140000Y-79351250D03*
X169795000Y-79075555D03*
X153045000Y-73145000D03*
X192190000Y-120813750D03*
X169795000Y-90936665D03*
X182297500Y-90936665D03*
X157292500Y-84995000D03*
X188768750Y-138940000D03*
X122760000Y-111180000D03*
X153045000Y-79070000D03*
X124465000Y-108080000D03*
X192190000Y-95295000D03*
X136930000Y-81935000D03*
X186465000Y-73145000D03*
X105960000Y-127780000D03*
X138005000Y-79910000D03*
X173962500Y-79075555D03*
X184206250Y-138940000D03*
X169795000Y-126520000D03*
X122465000Y-104762500D03*
X115140000Y-78357500D03*
X182297500Y-85006110D03*
X165627500Y-114620000D03*
X144690000Y-73145000D03*
X192190000Y-97576250D03*
X108760000Y-118180000D03*
X126465000Y-105695000D03*
X165627500Y-108728330D03*
X182297500Y-102797775D03*
X148957500Y-79070000D03*
X113190000Y-77363750D03*
X104410000Y-136330000D03*
X109665000Y-95720000D03*
X192190000Y-77545000D03*
X161460000Y-102770000D03*
X157292500Y-108695000D03*
X123860000Y-112080000D03*
X173962500Y-120589440D03*
X169795000Y-102797775D03*
X161460000Y-79070000D03*
X106065000Y-103820000D03*
X186487500Y-138940000D03*
X161460000Y-73145000D03*
X128915000Y-80420000D03*
X148957500Y-96845000D03*
X106065000Y-101870000D03*
X178130000Y-114658885D03*
X157292500Y-102770000D03*
X135815000Y-135346666D03*
X165627500Y-120589440D03*
X112265000Y-135630000D03*
X182297500Y-96867220D03*
X109665000Y-104760000D03*
X112870000Y-113010000D03*
X107060000Y-118180000D03*
X178130000Y-90936665D03*
X107865000Y-100240000D03*
X182297500Y-108728330D03*
X192190000Y-116251250D03*
X192190000Y-102138750D03*
X157292500Y-96845000D03*
X134865000Y-133980000D03*
X161460000Y-96845000D03*
X178130000Y-96867220D03*
X114165000Y-79351250D03*
X173962500Y-73145000D03*
X178130000Y-73145000D03*
X135015000Y-116820000D03*
X165627500Y-90936665D03*
X115140000Y-77363750D03*
X107865000Y-107020000D03*
X136930000Y-79910000D03*
X173962500Y-108728330D03*
X134865000Y-138080000D03*
X113165000Y-135630000D03*
X122465000Y-101445000D03*
X126015000Y-73145000D03*
X169795000Y-120589440D03*
X138005000Y-81935000D03*
X106110000Y-120980000D03*
X157292500Y-73145000D03*
X133265000Y-117845000D03*
X111365000Y-135630000D03*
X109665000Y-107020000D03*
X186465000Y-126520000D03*
X153045000Y-84995000D03*
X109665000Y-97980000D03*
X192190000Y-118532500D03*
X122465000Y-108080000D03*
X108065000Y-104760000D03*
X123860000Y-111180000D03*
X108760000Y-116405000D03*
X107865000Y-95720000D03*
X186465000Y-114658885D03*
X192190000Y-123095000D03*
X192190000Y-99857500D03*
X114165000Y-77363750D03*
X165627500Y-73145000D03*
X157292500Y-79070000D03*
X122465000Y-103103750D03*
X178130000Y-108728330D03*
X165627500Y-85006110D03*
X153045000Y-90920000D03*
X135815000Y-138080000D03*
X109665000Y-100240000D03*
X134865000Y-136713332D03*
X169795000Y-96867220D03*
X186465000Y-90936665D03*
X165627500Y-102797775D03*
X113190000Y-78357500D03*
X161460000Y-90920000D03*
X178130000Y-85006110D03*
X127615000Y-115745000D03*
X182297500Y-79075555D03*
X178130000Y-120589440D03*
X169795000Y-114658885D03*
X105310000Y-136330000D03*
X153045000Y-96845000D03*
X122600000Y-120980000D03*
X142510000Y-138180000D03*
X186465000Y-96867220D03*
X186465000Y-120589440D03*
X192190000Y-79826250D03*
X107885000Y-117305000D03*
X173962500Y-126520000D03*
X107965000Y-97980000D03*
X144690000Y-96845000D03*
X173962500Y-102797775D03*
X134865000Y-135346666D03*
X122465000Y-106421250D03*
X109665000Y-102500000D03*
X157292500Y-90920000D03*
X113190000Y-79351250D03*
X191050000Y-138940000D03*
X148957500Y-90920000D03*
X178130000Y-126520000D03*
X136930000Y-80922500D03*
X165627500Y-79075555D03*
X192190000Y-84388750D03*
X173962500Y-85006110D03*
X161460000Y-114620000D03*
X144690000Y-84995000D03*
X106065000Y-99920000D03*
X127740000Y-123820000D03*
X186465000Y-85006110D03*
X138005000Y-80922500D03*
X107060000Y-116405000D03*
X126465000Y-108080000D03*
X182297500Y-114658885D03*
X135815000Y-133980000D03*
X161460000Y-108695000D03*
X148957500Y-73145000D03*
X192190000Y-82107500D03*
X186465000Y-108728330D03*
X165627500Y-96867220D03*
X153045000Y-102770000D03*
X108065000Y-102500000D03*
X182297500Y-120589440D03*
X148957500Y-84995000D03*
X173962500Y-114658885D03*
X178130000Y-79075555D03*
X143510000Y-138180000D03*
X181925000Y-138940000D03*
X186465000Y-79075555D03*
X144690000Y-90920000D03*
X173962500Y-90936665D03*
X135815000Y-136713332D03*
X152990000Y-111545000D03*
X141765000Y-135320000D03*
X123865000Y-96620000D03*
X107910000Y-134630000D03*
X107910000Y-133830000D03*
X124965000Y-95545000D03*
X124800000Y-75230000D03*
X137310000Y-88310000D03*
X128160000Y-109580000D03*
X103790000Y-112245000D03*
X124800000Y-74255000D03*
X175240000Y-138720000D03*
X130210000Y-108657500D03*
X106960000Y-133880000D03*
X128560000Y-101880000D03*
X130210000Y-109580000D03*
X126240000Y-95545000D03*
X124800000Y-73280000D03*
X128160000Y-108657500D03*
X104460000Y-119020000D03*
X109610000Y-138330000D03*
X108265000Y-132120000D03*
X118765000Y-116670000D03*
X115060000Y-116920000D03*
X132225000Y-72250000D03*
X105665000Y-91295000D03*
X122715000Y-91145000D03*
X110465000Y-110820000D03*
X123515000Y-73420000D03*
X123365000Y-77095000D03*
X123660000Y-124610000D03*
X117500000Y-90120000D03*
X124340000Y-125310000D03*
X123659999Y-120745000D03*
X106640000Y-90570000D03*
X114340000Y-119645000D03*
X102820000Y-73350000D03*
X125040000Y-121070000D03*
X113205001Y-103005001D03*
X106310000Y-81010000D03*
X115110000Y-100820000D03*
X125870000Y-121180000D03*
X111260000Y-100470000D03*
X102820000Y-72100000D03*
X111840000Y-117410000D03*
X102800000Y-75860000D03*
X145665000Y-132620000D03*
X112710000Y-105110000D03*
X106310000Y-79730000D03*
X152165000Y-128970000D03*
X145720000Y-131590000D03*
X102800000Y-74600000D03*
X111770000Y-116670000D03*
X111627482Y-113582518D03*
X109090000Y-110795000D03*
X106310000Y-77140000D03*
X111990000Y-99590000D03*
X121865000Y-99520000D03*
X118210000Y-95230000D03*
X108410000Y-113110000D03*
X104680000Y-88460000D03*
X134920000Y-110550000D03*
X121390000Y-91020000D03*
X111640000Y-92900000D03*
X106310000Y-82280000D03*
X115139999Y-126294999D03*
X123420000Y-74625000D03*
X105310000Y-132080000D03*
X114615000Y-135070000D03*
X114390000Y-90895000D03*
X116525000Y-128180000D03*
X105490000Y-90390000D03*
X123300989Y-78375157D03*
X123560500Y-92970000D03*
X119265000Y-107320000D03*
X131910000Y-101480000D03*
X134860000Y-108280000D03*
X136110000Y-105230000D03*
X103660000Y-138530000D03*
X155415000Y-139709001D03*
X190390000Y-127095000D03*
X107465000Y-86720000D03*
X190415000Y-106720000D03*
X106315000Y-85920000D03*
X190190000Y-88770000D03*
X119890000Y-84570000D03*
X190165000Y-71470000D03*
X119665000Y-85695000D03*
X113370000Y-126580000D03*
X110480000Y-126350000D03*
X110300000Y-125000500D03*
X112715066Y-120618791D03*
X107650000Y-127020000D03*
X107550000Y-124210000D03*
X110711456Y-119803573D03*
D13*
X104460000Y-119020000D02*
X105180000Y-119740000D01*
X105180000Y-119740000D02*
X105180000Y-130880000D01*
X105180000Y-130880000D02*
X104540000Y-131520000D01*
X104540000Y-131520000D02*
X104540000Y-132395000D01*
X104540000Y-132395000D02*
X104924501Y-132779501D01*
X104924501Y-132779501D02*
X107605499Y-132779501D01*
X107605499Y-132779501D02*
X108265000Y-132120000D01*
X152990000Y-111545000D02*
X152990000Y-131720000D01*
X152990000Y-131720000D02*
X151190000Y-133520000D01*
X142530000Y-133520000D02*
X141765000Y-134285000D01*
X151190000Y-133520000D02*
X142530000Y-133520000D01*
X141765000Y-134285000D02*
X141765000Y-135320000D01*
D14*
X128560000Y-106990000D02*
X128560000Y-101855000D01*
X102740000Y-133850000D02*
X102740000Y-113295000D01*
X175240000Y-138720000D02*
X174880499Y-139079501D01*
X124805000Y-73285000D02*
X124800000Y-73280000D01*
X124965000Y-95545000D02*
X126240000Y-95545000D01*
X124190000Y-95545000D02*
X124190000Y-78267128D01*
X124800000Y-77657128D02*
X124800000Y-73280000D01*
X128560000Y-101855000D02*
X128560000Y-101880000D01*
X106009501Y-139079501D02*
X102740000Y-135810000D01*
X130227500Y-108657500D02*
X130227500Y-108662500D01*
X106960000Y-133880000D02*
X102770000Y-133880000D01*
X102770000Y-133880000D02*
X102740000Y-133850000D01*
X124190000Y-78267128D02*
X124800000Y-77657128D01*
X123865000Y-96620000D02*
X123865000Y-95870000D01*
X123865000Y-95870000D02*
X124190000Y-95545000D01*
X174880499Y-139079501D02*
X106009501Y-139079501D01*
X128560000Y-106990000D02*
X128560000Y-108730000D01*
X124965000Y-95545000D02*
X124190000Y-95545000D01*
X130075000Y-95545000D02*
X137310000Y-88310000D01*
X130227500Y-108657500D02*
X130237500Y-108657500D01*
X102740000Y-135810000D02*
X102740000Y-133850000D01*
X102740000Y-113295000D02*
X103790000Y-112245000D01*
X126240000Y-95545000D02*
X130075000Y-95545000D01*
D13*
X108265000Y-132120000D02*
X108865000Y-132720000D01*
X108865000Y-132720000D02*
X108865000Y-137585000D01*
X108865000Y-137585000D02*
X109610000Y-138330000D01*
D15*
X118515000Y-116920000D02*
X118765000Y-116670000D01*
X115060000Y-116920000D02*
X118515000Y-116920000D01*
D16*
X123795489Y-79039511D02*
X122715000Y-80120000D01*
X104615000Y-109045000D02*
X105615000Y-110045000D01*
X109690000Y-110045000D02*
X110465000Y-110820000D01*
X132065000Y-72090000D02*
X132225000Y-72250000D01*
X124065000Y-73970000D02*
X124065000Y-77834206D01*
X123515000Y-72200000D02*
X123625000Y-72090000D01*
X123625000Y-72090000D02*
X132065000Y-72090000D01*
X122715000Y-80120000D02*
X122715000Y-91145000D01*
X123515000Y-73420000D02*
X124065000Y-73970000D01*
X105665000Y-91295000D02*
X104615000Y-92345000D01*
X123795489Y-78103717D02*
X123795489Y-79039511D01*
X123515000Y-73420000D02*
X123515000Y-72200000D01*
X124065000Y-77834206D02*
X123795489Y-78103717D01*
X105615000Y-110045000D02*
X109690000Y-110045000D01*
X104615000Y-92345000D02*
X104615000Y-109045000D01*
X122290000Y-77095000D02*
X123365000Y-77095000D01*
X124370000Y-124610000D02*
X123660000Y-124610000D01*
X116950000Y-88830000D02*
X120610000Y-88830000D01*
X115680000Y-90100000D02*
X116950000Y-88830000D01*
X126580000Y-117040000D02*
X126580000Y-122400000D01*
X126580000Y-122400000D02*
X124370000Y-124610000D01*
X121830000Y-77555000D02*
X122290000Y-77095000D01*
X115680000Y-106140000D02*
X126580000Y-117040000D01*
X115680000Y-106140000D02*
X115680000Y-90100000D01*
X120610000Y-88830000D02*
X121830000Y-87610000D01*
X121830000Y-87610000D02*
X121830000Y-77555000D01*
X127020000Y-116990000D02*
X127020000Y-122630000D01*
X117500000Y-90120000D02*
X116550000Y-90120000D01*
X116240000Y-90430000D02*
X116240000Y-106210000D01*
X127020000Y-122630000D02*
X124340000Y-125310000D01*
X116240000Y-106210000D02*
X127020000Y-116990000D01*
X116550000Y-90120000D02*
X116240000Y-90430000D01*
X110764999Y-100945001D02*
X112140000Y-102320002D01*
X123659999Y-117014999D02*
X112140000Y-105495000D01*
X107140000Y-90570000D02*
X110764999Y-94194999D01*
X106640000Y-90570000D02*
X107140000Y-90570000D01*
X112140000Y-105495000D02*
X112140000Y-102320002D01*
X123659999Y-120745000D02*
X123659999Y-117014999D01*
X110764999Y-94194999D02*
X110764999Y-100945001D01*
X103715000Y-109915000D02*
X103715000Y-74245000D01*
X108320000Y-114520000D02*
X103715000Y-109915000D01*
X110390000Y-114520000D02*
X108320000Y-114520000D01*
X114340000Y-118470000D02*
X110390000Y-114520000D01*
X114340000Y-119645000D02*
X114340000Y-118470000D01*
X103715000Y-74245000D02*
X102820000Y-73350000D01*
X113205001Y-104722709D02*
X125040000Y-116557708D01*
X105515000Y-83807602D02*
X105515000Y-85995000D01*
X113205001Y-93685001D02*
X113205001Y-103005001D01*
X113205001Y-103005001D02*
X113205001Y-104722709D01*
X105515000Y-85995000D02*
X113205001Y-93685001D01*
X106805001Y-82517601D02*
X105515000Y-83807602D01*
X106805001Y-81515001D02*
X106805001Y-82517601D01*
X106300000Y-81010000D02*
X106805001Y-81515001D01*
X125040000Y-121070000D02*
X125040000Y-116557708D01*
X125870000Y-117020000D02*
X115110000Y-106260000D01*
X115110000Y-106260000D02*
X115110000Y-100820000D01*
X111260000Y-100470000D02*
X111260000Y-94170000D01*
X104100000Y-73390000D02*
X102810000Y-72100000D01*
X104100000Y-87010000D02*
X104100000Y-73390000D01*
X125870000Y-121180000D02*
X125870000Y-117020000D01*
X111260000Y-94170000D02*
X104100000Y-87010000D01*
X144665000Y-128345000D02*
X143715000Y-127395000D01*
X109390000Y-115120000D02*
X108044893Y-115120000D01*
X111680000Y-117410000D02*
X109390000Y-115120000D01*
X145665000Y-132620000D02*
X144665000Y-131620000D01*
X102615000Y-109690107D02*
X102615000Y-76045000D01*
X144665000Y-131620000D02*
X144665000Y-128345000D01*
X108044893Y-115120000D02*
X102615000Y-109690107D01*
X115097984Y-127395000D02*
X113315000Y-125612016D01*
X102615000Y-76045000D02*
X102800000Y-75860000D01*
X113315000Y-118885000D02*
X111840000Y-117410000D01*
X143715000Y-127395000D02*
X115097984Y-127395000D01*
X113315000Y-125612016D02*
X113315000Y-118885000D01*
X111840000Y-117410000D02*
X111680000Y-117410000D01*
X144290000Y-126445000D02*
X124290000Y-126445000D01*
X124290000Y-126445000D02*
X122965000Y-125120000D01*
X124390000Y-116790000D02*
X112710000Y-105110000D01*
X104846761Y-81193239D02*
X104846761Y-86916761D01*
X106310000Y-79730000D02*
X104846761Y-81193239D01*
X122965000Y-125120000D02*
X122965000Y-122745000D01*
X146815000Y-128970000D02*
X144290000Y-126445000D01*
X152165000Y-128970000D02*
X146815000Y-128970000D01*
X124390000Y-121320000D02*
X124390000Y-116790000D01*
X122965000Y-122745000D02*
X124390000Y-121320000D01*
X112710000Y-94780000D02*
X112710000Y-105110000D01*
X104846761Y-86916761D02*
X112710000Y-94780000D01*
X145720000Y-128750000D02*
X143965000Y-126995000D01*
X102800000Y-74600000D02*
X103390000Y-75190000D01*
X145720000Y-131590000D02*
X145720000Y-128750000D01*
X109920000Y-114820000D02*
X111770000Y-116670000D01*
X103390000Y-75190000D02*
X103390000Y-110097398D01*
X108112602Y-114820000D02*
X109920000Y-114820000D01*
X143965000Y-126995000D02*
X115065000Y-126995000D01*
X103390000Y-110097398D02*
X108112602Y-114820000D01*
X115065000Y-126995000D02*
X113640000Y-125570000D01*
X113640000Y-125570000D02*
X113640000Y-118320000D01*
X113640000Y-118320000D02*
X111990000Y-116670000D01*
X111990000Y-116670000D02*
X111770000Y-116670000D01*
X110102518Y-113582518D02*
X111627482Y-113582518D01*
X110102518Y-113582518D02*
X109090000Y-112570000D01*
X109090000Y-112570000D02*
X109090000Y-110795000D01*
X104860000Y-77140000D02*
X106340000Y-77140000D01*
X104479990Y-77520010D02*
X104860000Y-77140000D01*
X104479990Y-86939990D02*
X104479990Y-77520010D01*
X111990000Y-94450000D02*
X104479990Y-86939990D01*
X111990000Y-99590000D02*
X111990000Y-94450000D01*
D15*
X118210000Y-97365000D02*
X118210000Y-95230000D01*
X121865000Y-99520000D02*
X120365000Y-99520000D01*
X120365000Y-99520000D02*
X118210000Y-97365000D01*
D16*
X107460000Y-113110000D02*
X108410000Y-113110000D01*
X104680000Y-88460000D02*
X104040000Y-89100000D01*
X104040000Y-89100000D02*
X104040000Y-109690000D01*
X104040000Y-109690000D02*
X107460000Y-113110000D01*
X116670000Y-95740000D02*
X116670000Y-105920000D01*
X121270000Y-110520000D02*
X134890000Y-110520000D01*
X116670000Y-105920000D02*
X121270000Y-110520000D01*
X121390000Y-91020000D02*
X116670000Y-95740000D01*
X134890000Y-110520000D02*
X134920000Y-110550000D01*
X105180000Y-86440000D02*
X105180000Y-82640000D01*
X105540000Y-82280000D02*
X106310000Y-82280000D01*
X111640000Y-92900000D02*
X105180000Y-86440000D01*
X105180000Y-82640000D02*
X105540000Y-82280000D01*
X123360000Y-74625000D02*
X121490000Y-76495000D01*
X115064999Y-126219999D02*
X115139999Y-126294999D01*
X115064999Y-126219999D02*
X115064999Y-118494999D01*
X104965000Y-92970000D02*
X104965000Y-108945000D01*
X105490000Y-90390000D02*
X106390000Y-91290000D01*
X105790000Y-109770000D02*
X110440000Y-109770000D01*
X116525000Y-134160000D02*
X116525000Y-131030000D01*
X104965000Y-108945000D02*
X105790000Y-109770000D01*
X105310000Y-132080000D02*
X105790000Y-131600000D01*
X106390000Y-91545000D02*
X104965000Y-92970000D01*
X115615000Y-135070000D02*
X116525000Y-134160000D01*
X114615000Y-135070000D02*
X115615000Y-135070000D01*
X116375479Y-128030479D02*
X116525000Y-128180000D01*
X123420000Y-74625000D02*
X123360000Y-74625000D01*
X116790000Y-88495000D02*
X114390000Y-90895000D01*
X110440000Y-109770000D02*
X112122483Y-111452483D01*
X107295101Y-128030479D02*
X116375479Y-128030479D01*
X121490000Y-87395000D02*
X120390000Y-88495000D01*
X116525000Y-131030000D02*
X116525000Y-128180000D01*
X105790000Y-131600000D02*
X105790000Y-129535580D01*
X105790000Y-129535580D02*
X107295101Y-128030479D01*
X112122483Y-115552483D02*
X115064999Y-118494999D01*
X106390000Y-91290000D02*
X106390000Y-91545000D01*
X112122483Y-111452483D02*
X112122483Y-115552483D01*
X121490000Y-76495000D02*
X121490000Y-87395000D01*
X120390000Y-88495000D02*
X116790000Y-88495000D01*
X122534843Y-78375157D02*
X123300989Y-78375157D01*
X123560500Y-92970000D02*
X122165000Y-91574500D01*
X122165000Y-91574500D02*
X122165000Y-78745000D01*
X122165000Y-78745000D02*
X122534843Y-78375157D01*
X131165000Y-110220000D02*
X131207500Y-110177500D01*
X122165000Y-110220000D02*
X131165000Y-110220000D01*
X119265000Y-107320000D02*
X122165000Y-110220000D01*
X131910000Y-109475000D02*
X131207500Y-110177500D01*
X131910000Y-101480000D02*
X131910000Y-109475000D01*
D15*
X134860000Y-108280000D02*
X136110000Y-107030000D01*
X136110000Y-107030000D02*
X136110000Y-105230000D01*
D16*
X155415000Y-139709001D02*
X155335999Y-139630000D01*
X155335999Y-139630000D02*
X104760000Y-139630000D01*
X104760000Y-139630000D02*
X103660000Y-138530000D01*
X107764999Y-87019999D02*
X107465000Y-86720000D01*
X121229990Y-86005010D02*
X120215001Y-87019999D01*
X189165000Y-72695000D02*
X187890000Y-71420000D01*
X187890000Y-71420000D02*
X121890000Y-71420000D01*
X121890000Y-71420000D02*
X121229990Y-72080010D01*
X120215001Y-87019999D02*
X107764999Y-87019999D01*
X121229990Y-72080010D02*
X121229990Y-86005010D01*
X190390000Y-127095000D02*
X189165000Y-125870000D01*
X189165000Y-125870000D02*
X189165000Y-72695000D01*
X119940000Y-86695000D02*
X108315000Y-86695000D01*
X121720000Y-71045000D02*
X120890000Y-71875000D01*
X189694999Y-72574999D02*
X188165000Y-71045000D01*
X120890000Y-71875000D02*
X120890000Y-85745000D01*
X189694999Y-105999999D02*
X189694999Y-72574999D01*
X190415000Y-106720000D02*
X189694999Y-105999999D01*
X120890000Y-85745000D02*
X119940000Y-86695000D01*
X107540000Y-85920000D02*
X106315000Y-85920000D01*
X188165000Y-71045000D02*
X121720000Y-71045000D01*
X108315000Y-86695000D02*
X107540000Y-85920000D01*
X119890000Y-84570000D02*
X120440000Y-84020000D01*
X188565000Y-70745000D02*
X190190000Y-72370000D01*
X121490000Y-70745000D02*
X188565000Y-70745000D01*
X120440000Y-84020000D02*
X120440000Y-71795000D01*
X190190000Y-72370000D02*
X190190000Y-88770000D01*
X120440000Y-71795000D02*
X121490000Y-70745000D01*
X119365001Y-85395001D02*
X119365001Y-84289999D01*
X189040000Y-70345000D02*
X190165000Y-71470000D01*
X120005000Y-83650000D02*
X120005000Y-71760000D01*
X121420000Y-70345000D02*
X189040000Y-70345000D01*
X119665000Y-85695000D02*
X119365001Y-85395001D01*
X119365001Y-84289999D02*
X120005000Y-83650000D01*
X120005000Y-71760000D02*
X121420000Y-70345000D01*
D17*
X113140000Y-126350000D02*
X113370000Y-126580000D01*
X113140000Y-126350000D02*
X111649500Y-126350000D01*
X110480000Y-126350000D02*
X113140000Y-126350000D01*
X111649500Y-126350000D02*
X110300000Y-125000500D01*
D16*
X112715066Y-120618791D02*
X107650000Y-125683857D01*
X107650000Y-125683857D02*
X107650000Y-127020000D01*
X107550000Y-124210000D02*
X108030000Y-124210000D01*
X108030000Y-124210000D02*
X110711456Y-121528544D01*
X110711456Y-121528544D02*
X110711456Y-119803573D01*
G04 #@! TA.AperFunction,Conductor*
G36*
X130552121Y-108350002D02*
G01*
X130598614Y-108403658D01*
X130610000Y-108456000D01*
X130610000Y-109898500D01*
X130589998Y-109966621D01*
X130536342Y-110013114D01*
X130484000Y-110024500D01*
X127786000Y-110024500D01*
X127717879Y-110004498D01*
X127671386Y-109950842D01*
X127660000Y-109898500D01*
X127660000Y-108456000D01*
X127680002Y-108387879D01*
X127733658Y-108341386D01*
X127786000Y-108330000D01*
X130484000Y-108330000D01*
X130552121Y-108350002D01*
G37*
G04 #@! TD.AperFunction*
G04 #@! TA.AperFunction,Conductor*
G36*
X125152121Y-72700002D02*
G01*
X125198614Y-72753658D01*
X125210000Y-72806000D01*
X125210000Y-75604000D01*
X125189998Y-75672121D01*
X125136342Y-75718614D01*
X125084000Y-75730000D01*
X124386500Y-75730000D01*
X124318379Y-75709998D01*
X124271886Y-75656342D01*
X124260500Y-75604000D01*
X124260500Y-74004794D01*
X124260598Y-74003068D01*
X124264239Y-73992700D01*
X124262670Y-73978600D01*
X124262670Y-73978598D01*
X124261273Y-73966050D01*
X124260819Y-73957858D01*
X124260500Y-73955024D01*
X124260500Y-73947958D01*
X124258929Y-73941070D01*
X124258548Y-73937684D01*
X124257287Y-73930233D01*
X124255942Y-73918149D01*
X124254373Y-73904053D01*
X124248256Y-73894282D01*
X124245691Y-73883039D01*
X124229274Y-73862437D01*
X124224756Y-73856055D01*
X124222728Y-73853507D01*
X124218947Y-73847469D01*
X124213905Y-73842427D01*
X124211994Y-73840027D01*
X124206647Y-73834042D01*
X124198947Y-73824379D01*
X124190105Y-73813283D01*
X124180074Y-73808445D01*
X124178645Y-73807167D01*
X124146905Y-73775427D01*
X124112879Y-73713115D01*
X124110000Y-73686332D01*
X124110000Y-72806000D01*
X124130002Y-72737879D01*
X124183658Y-72691386D01*
X124236000Y-72680000D01*
X125084000Y-72680000D01*
X125152121Y-72700002D01*
G37*
G04 #@! TD.AperFunction*
G04 #@! TA.AperFunction,Conductor*
G36*
X108402121Y-133400002D02*
G01*
X108448614Y-133453658D01*
X108460000Y-133506000D01*
X108460000Y-134904000D01*
X108439998Y-134972121D01*
X108386342Y-135018614D01*
X108334000Y-135030000D01*
X106810000Y-135030000D01*
X106810000Y-135154000D01*
X106789998Y-135222121D01*
X106736342Y-135268614D01*
X106684000Y-135280000D01*
X105736000Y-135280000D01*
X105667879Y-135259998D01*
X105621386Y-135206342D01*
X105610000Y-135154000D01*
X105610000Y-133506000D01*
X105630002Y-133437879D01*
X105683658Y-133391386D01*
X105736000Y-133380000D01*
X108334000Y-133380000D01*
X108402121Y-133400002D01*
G37*
G04 #@! TD.AperFunction*
G04 #@! TA.AperFunction,Conductor*
G36*
X193697343Y-70099707D02*
G01*
X193766584Y-70154926D01*
X193805011Y-70234718D01*
X193810000Y-70279000D01*
X193810000Y-139831000D01*
X193790293Y-139917343D01*
X193735074Y-139986584D01*
X193655282Y-140025011D01*
X193611000Y-140030000D01*
X156154905Y-140030000D01*
X156068562Y-140010293D01*
X155999321Y-139955074D01*
X155960894Y-139875282D01*
X155957608Y-139805025D01*
X155970250Y-139709001D01*
X155973028Y-139709367D01*
X155988254Y-139642658D01*
X156043473Y-139573417D01*
X156123265Y-139534990D01*
X156167547Y-139530001D01*
X174841974Y-139530001D01*
X174865363Y-139531380D01*
X174880036Y-139533117D01*
X174880039Y-139533117D01*
X174894809Y-139534865D01*
X174921442Y-139530001D01*
X174951394Y-139524531D01*
X174957559Y-139523505D01*
X175014461Y-139514950D01*
X175020974Y-139511822D01*
X175028072Y-139510526D01*
X175041269Y-139503671D01*
X175041274Y-139503669D01*
X175079112Y-139484014D01*
X175084646Y-139481248D01*
X175136578Y-139456310D01*
X175141882Y-139451407D01*
X175148287Y-139448080D01*
X175153327Y-139443776D01*
X175189545Y-139407558D01*
X175195178Y-139402141D01*
X175225134Y-139374451D01*
X175225136Y-139374448D01*
X175236055Y-139364355D01*
X175240207Y-139357206D01*
X175242876Y-139354227D01*
X175289761Y-139307342D01*
X175364749Y-139260223D01*
X175372649Y-139257786D01*
X175383709Y-139256330D01*
X175468102Y-139221374D01*
X175505574Y-139205853D01*
X175505576Y-139205852D01*
X175517625Y-139200861D01*
X175632621Y-139112621D01*
X175720861Y-138997625D01*
X175748641Y-138930559D01*
X175771339Y-138875759D01*
X175771339Y-138875758D01*
X175776330Y-138863709D01*
X175795250Y-138720000D01*
X175776330Y-138576291D01*
X175762514Y-138542935D01*
X175725853Y-138454426D01*
X175725852Y-138454424D01*
X175720861Y-138442375D01*
X175632621Y-138327379D01*
X175517625Y-138239139D01*
X175505576Y-138234148D01*
X175505574Y-138234147D01*
X175395759Y-138188661D01*
X175395758Y-138188661D01*
X175383709Y-138183670D01*
X175240000Y-138164750D01*
X175096291Y-138183670D01*
X175084242Y-138188661D01*
X175084241Y-138188661D01*
X174974426Y-138234147D01*
X174974424Y-138234148D01*
X174962375Y-138239139D01*
X174847379Y-138327379D01*
X174759139Y-138442375D01*
X174732721Y-138506155D01*
X174681472Y-138578384D01*
X174603960Y-138621223D01*
X174548869Y-138629001D01*
X134364000Y-138629001D01*
X134277657Y-138609294D01*
X134208416Y-138554075D01*
X134169989Y-138474283D01*
X134165000Y-138430001D01*
X134165000Y-136733591D01*
X191129922Y-136733591D01*
X191139321Y-136912921D01*
X191142183Y-136923311D01*
X191164291Y-137003573D01*
X191187008Y-137086049D01*
X191192035Y-137095584D01*
X191192036Y-137095586D01*
X191231432Y-137170306D01*
X191270760Y-137244898D01*
X191386668Y-137382058D01*
X191395222Y-137388598D01*
X191395224Y-137388600D01*
X191435126Y-137419107D01*
X191529326Y-137491128D01*
X191692077Y-137567020D01*
X191788357Y-137588541D01*
X191859350Y-137604410D01*
X191859353Y-137604410D01*
X191867328Y-137606193D01*
X191872819Y-137606500D01*
X192004866Y-137606500D01*
X192010223Y-137605918D01*
X192010224Y-137605918D01*
X192028688Y-137603912D01*
X192138525Y-137591980D01*
X192226234Y-137562463D01*
X192298507Y-137538141D01*
X192298509Y-137538140D01*
X192308722Y-137534703D01*
X192462648Y-137442214D01*
X192593123Y-137318830D01*
X192599183Y-137309913D01*
X192688001Y-137179222D01*
X192688002Y-137179220D01*
X192694060Y-137170306D01*
X192760748Y-137003573D01*
X192777538Y-136902159D01*
X192788318Y-136837042D01*
X192788318Y-136837039D01*
X192790078Y-136826409D01*
X192780679Y-136647079D01*
X192758637Y-136567056D01*
X192735855Y-136484344D01*
X192735854Y-136484341D01*
X192732992Y-136473951D01*
X192693846Y-136399703D01*
X192654267Y-136324636D01*
X192654266Y-136324634D01*
X192649240Y-136315102D01*
X192533332Y-136177942D01*
X192524778Y-136171402D01*
X192524776Y-136171400D01*
X192454651Y-136117786D01*
X192390674Y-136068872D01*
X192227923Y-135992980D01*
X192116258Y-135968020D01*
X192060650Y-135955590D01*
X192060647Y-135955590D01*
X192052672Y-135953807D01*
X192047181Y-135953500D01*
X191915134Y-135953500D01*
X191909777Y-135954082D01*
X191909776Y-135954082D01*
X191895895Y-135955590D01*
X191781475Y-135968020D01*
X191771256Y-135971459D01*
X191621493Y-136021859D01*
X191621491Y-136021860D01*
X191611278Y-136025297D01*
X191457352Y-136117786D01*
X191449521Y-136125192D01*
X191449519Y-136125193D01*
X191401990Y-136170139D01*
X191326877Y-136241170D01*
X191320817Y-136250087D01*
X191282227Y-136306871D01*
X191225940Y-136389694D01*
X191159252Y-136556427D01*
X191157493Y-136567053D01*
X191157492Y-136567056D01*
X191131682Y-136722958D01*
X191129922Y-136733591D01*
X134165000Y-136733591D01*
X134165000Y-127909500D01*
X134184707Y-127823157D01*
X134239926Y-127753916D01*
X134319718Y-127715489D01*
X134364000Y-127710500D01*
X143501888Y-127710500D01*
X143588231Y-127730207D01*
X143642602Y-127768786D01*
X144291214Y-128417399D01*
X144338333Y-128492388D01*
X144349500Y-128558113D01*
X144349500Y-131597535D01*
X144348743Y-131614881D01*
X144345852Y-131647922D01*
X144350358Y-131664739D01*
X144350358Y-131664740D01*
X144354435Y-131679957D01*
X144358191Y-131696901D01*
X144360929Y-131712426D01*
X144360930Y-131712429D01*
X144363953Y-131729572D01*
X144371001Y-131741780D01*
X144374649Y-131755393D01*
X144384635Y-131769654D01*
X144393672Y-131782560D01*
X144402998Y-131797199D01*
X144407958Y-131805789D01*
X144419585Y-131825928D01*
X144432919Y-131837117D01*
X144432921Y-131837119D01*
X144444993Y-131847248D01*
X144457792Y-131858976D01*
X145053166Y-132454351D01*
X145100285Y-132529340D01*
X145111452Y-132595061D01*
X145111452Y-132607069D01*
X145109750Y-132620000D01*
X145128670Y-132763709D01*
X145133661Y-132775758D01*
X145162071Y-132844347D01*
X145176906Y-132931659D01*
X145152388Y-133016761D01*
X145093374Y-133082797D01*
X145011552Y-133116688D01*
X144978219Y-133119500D01*
X142498481Y-133119500D01*
X142498477Y-133119501D01*
X142466567Y-133119501D01*
X142451115Y-133124521D01*
X142420750Y-133131811D01*
X142420323Y-133131879D01*
X142404696Y-133134354D01*
X142390742Y-133141464D01*
X142390222Y-133141729D01*
X142361365Y-133153683D01*
X142345910Y-133158704D01*
X142333242Y-133167908D01*
X142332763Y-133168256D01*
X142306138Y-133184572D01*
X142291658Y-133191950D01*
X142269091Y-133214517D01*
X141459516Y-134024091D01*
X141459513Y-134024095D01*
X141436950Y-134046658D01*
X141429840Y-134060613D01*
X141429576Y-134061131D01*
X141413260Y-134087758D01*
X141403704Y-134100910D01*
X141398863Y-134115809D01*
X141398682Y-134116366D01*
X141386732Y-134145216D01*
X141386465Y-134145739D01*
X141386464Y-134145742D01*
X141379354Y-134159696D01*
X141376813Y-134175743D01*
X141369522Y-134206110D01*
X141364500Y-134221567D01*
X141364500Y-134870095D01*
X141344793Y-134956438D01*
X141323377Y-134991238D01*
X141292081Y-135032023D01*
X141292077Y-135032030D01*
X141284139Y-135042375D01*
X141279148Y-135054424D01*
X141279147Y-135054426D01*
X141240111Y-135148669D01*
X141228670Y-135176291D01*
X141209750Y-135320000D01*
X141228670Y-135463709D01*
X141233661Y-135475758D01*
X141233661Y-135475759D01*
X141266837Y-135555853D01*
X141284139Y-135597625D01*
X141372379Y-135712621D01*
X141487375Y-135800861D01*
X141499424Y-135805852D01*
X141499426Y-135805853D01*
X141609241Y-135851339D01*
X141621291Y-135856330D01*
X141765000Y-135875250D01*
X141908709Y-135856330D01*
X141920759Y-135851339D01*
X142030574Y-135805853D01*
X142030576Y-135805852D01*
X142042625Y-135800861D01*
X142157621Y-135712621D01*
X142245861Y-135597625D01*
X142263164Y-135555853D01*
X142296339Y-135475759D01*
X142296339Y-135475758D01*
X142301330Y-135463709D01*
X142320250Y-135320000D01*
X142301330Y-135176291D01*
X142289889Y-135148669D01*
X142250853Y-135054426D01*
X142250852Y-135054424D01*
X142245861Y-135042375D01*
X142237923Y-135032030D01*
X142237919Y-135032023D01*
X142206623Y-134991238D01*
X142169695Y-134910741D01*
X142165500Y-134870095D01*
X142165500Y-134533321D01*
X142185207Y-134446978D01*
X142223786Y-134392607D01*
X142637606Y-133978786D01*
X142712594Y-133931667D01*
X142778320Y-133920500D01*
X151253433Y-133920500D01*
X151268890Y-133915478D01*
X151299257Y-133908187D01*
X151315304Y-133905646D01*
X151329258Y-133898536D01*
X151329261Y-133898535D01*
X151329784Y-133898268D01*
X151358634Y-133886318D01*
X151359191Y-133886137D01*
X151374090Y-133881296D01*
X151387242Y-133871740D01*
X151413869Y-133855424D01*
X151428342Y-133848050D01*
X151450905Y-133825487D01*
X151450909Y-133825484D01*
X153295483Y-131980909D01*
X153318050Y-131958342D01*
X153325428Y-131943862D01*
X153341744Y-131917237D01*
X153342092Y-131916758D01*
X153351296Y-131904090D01*
X153356317Y-131888635D01*
X153368271Y-131859778D01*
X153368536Y-131859258D01*
X153375646Y-131845304D01*
X153378189Y-131829250D01*
X153385479Y-131798883D01*
X153385660Y-131798325D01*
X153390499Y-131783433D01*
X153390499Y-131751525D01*
X153390500Y-131751519D01*
X153390500Y-130180412D01*
X191880773Y-130180412D01*
X191890696Y-130338138D01*
X191894563Y-130350040D01*
X191894564Y-130350044D01*
X191933571Y-130470093D01*
X191939533Y-130488441D01*
X192024214Y-130621877D01*
X192139418Y-130730062D01*
X192277908Y-130806197D01*
X192430981Y-130845500D01*
X192549350Y-130845500D01*
X192578305Y-130841842D01*
X192654368Y-130832234D01*
X192654372Y-130832233D01*
X192666792Y-130830664D01*
X192813732Y-130772486D01*
X192941587Y-130679594D01*
X193042324Y-130557823D01*
X193109614Y-130414826D01*
X193139227Y-130259588D01*
X193129304Y-130101862D01*
X193125437Y-130089960D01*
X193125436Y-130089956D01*
X193084337Y-129963469D01*
X193084336Y-129963468D01*
X193080467Y-129951559D01*
X192995786Y-129818123D01*
X192880582Y-129709938D01*
X192742092Y-129633803D01*
X192589019Y-129594500D01*
X192470650Y-129594500D01*
X192446000Y-129597614D01*
X192365632Y-129607766D01*
X192365628Y-129607767D01*
X192353208Y-129609336D01*
X192206268Y-129667514D01*
X192196138Y-129674874D01*
X192196136Y-129674875D01*
X192136079Y-129718509D01*
X192078413Y-129760406D01*
X191977676Y-129882177D01*
X191910386Y-130025174D01*
X191880773Y-130180412D01*
X153390500Y-130180412D01*
X153390500Y-127880412D01*
X191880773Y-127880412D01*
X191890696Y-128038138D01*
X191894563Y-128050040D01*
X191894564Y-128050044D01*
X191935663Y-128176531D01*
X191939533Y-128188441D01*
X192024214Y-128321877D01*
X192139418Y-128430062D01*
X192277908Y-128506197D01*
X192430981Y-128545500D01*
X192549350Y-128545500D01*
X192578305Y-128541842D01*
X192654368Y-128532234D01*
X192654372Y-128532233D01*
X192666792Y-128530664D01*
X192813732Y-128472486D01*
X192834187Y-128457625D01*
X192931454Y-128386956D01*
X192941587Y-128379594D01*
X193042324Y-128257823D01*
X193109614Y-128114826D01*
X193139227Y-127959588D01*
X193129304Y-127801862D01*
X193125437Y-127789960D01*
X193125436Y-127789956D01*
X193084337Y-127663469D01*
X193084336Y-127663468D01*
X193080467Y-127651559D01*
X193073165Y-127640053D01*
X193002496Y-127528696D01*
X193002495Y-127528695D01*
X192995786Y-127518123D01*
X192880582Y-127409938D01*
X192816802Y-127374875D01*
X192753068Y-127339837D01*
X192742092Y-127333803D01*
X192589019Y-127294500D01*
X192470650Y-127294500D01*
X192441695Y-127298158D01*
X192365632Y-127307766D01*
X192365628Y-127307767D01*
X192353208Y-127309336D01*
X192206268Y-127367514D01*
X192196138Y-127374874D01*
X192196136Y-127374875D01*
X192168664Y-127394835D01*
X192078413Y-127460406D01*
X192030666Y-127518123D01*
X191988545Y-127569039D01*
X191977676Y-127582177D01*
X191972347Y-127593501D01*
X191972346Y-127593503D01*
X191954546Y-127631330D01*
X191910386Y-127725174D01*
X191880773Y-127880412D01*
X153390500Y-127880412D01*
X153390500Y-111994905D01*
X153410207Y-111908562D01*
X153431623Y-111873762D01*
X153462919Y-111832977D01*
X153462923Y-111832970D01*
X153470861Y-111822625D01*
X153495087Y-111764139D01*
X153521339Y-111700759D01*
X153521339Y-111700758D01*
X153526330Y-111688709D01*
X153545250Y-111545000D01*
X153526330Y-111401291D01*
X153521339Y-111389241D01*
X153475853Y-111279426D01*
X153475852Y-111279424D01*
X153470861Y-111267375D01*
X153382621Y-111152379D01*
X153267625Y-111064139D01*
X153255576Y-111059148D01*
X153255574Y-111059147D01*
X153145759Y-111013661D01*
X153145758Y-111013661D01*
X153133709Y-111008670D01*
X152990000Y-110989750D01*
X152846291Y-111008670D01*
X152834242Y-111013661D01*
X152834241Y-111013661D01*
X152724426Y-111059147D01*
X152724424Y-111059148D01*
X152712375Y-111064139D01*
X152597379Y-111152379D01*
X152509139Y-111267375D01*
X152504148Y-111279424D01*
X152504147Y-111279426D01*
X152458661Y-111389241D01*
X152453670Y-111401291D01*
X152434750Y-111545000D01*
X152453670Y-111688709D01*
X152458661Y-111700758D01*
X152458661Y-111700759D01*
X152484914Y-111764139D01*
X152509139Y-111822625D01*
X152517077Y-111832970D01*
X152517081Y-111832977D01*
X152548377Y-111873762D01*
X152585305Y-111954259D01*
X152589500Y-111994905D01*
X152589500Y-128252153D01*
X152569793Y-128338496D01*
X152514574Y-128407737D01*
X152434782Y-128446164D01*
X152346218Y-128446164D01*
X152332798Y-128441887D01*
X152320760Y-128438662D01*
X152308709Y-128433670D01*
X152165000Y-128414750D01*
X152021291Y-128433670D01*
X152009242Y-128438661D01*
X152009241Y-128438661D01*
X151899426Y-128484147D01*
X151899424Y-128484148D01*
X151887375Y-128489139D01*
X151772379Y-128577379D01*
X151764439Y-128587727D01*
X151755954Y-128596212D01*
X151680966Y-128643332D01*
X151615238Y-128654500D01*
X147028112Y-128654500D01*
X146941769Y-128634793D01*
X146887398Y-128596214D01*
X144528981Y-126237797D01*
X144517252Y-126224998D01*
X144507117Y-126212919D01*
X144507115Y-126212918D01*
X144495928Y-126199585D01*
X144467199Y-126182998D01*
X144452560Y-126173672D01*
X144439654Y-126164635D01*
X144439655Y-126164635D01*
X144425393Y-126154649D01*
X144411780Y-126151001D01*
X144399572Y-126143953D01*
X144382429Y-126140930D01*
X144382426Y-126140929D01*
X144366901Y-126138191D01*
X144349957Y-126134435D01*
X144334740Y-126130358D01*
X144334739Y-126130358D01*
X144317922Y-126125852D01*
X144300581Y-126127369D01*
X144300579Y-126127369D01*
X144284877Y-126128743D01*
X144267533Y-126129500D01*
X124762537Y-126129500D01*
X124676194Y-126109793D01*
X124606953Y-126054574D01*
X124568526Y-125974782D01*
X124568526Y-125886218D01*
X124606953Y-125806426D01*
X124641393Y-125772623D01*
X124722276Y-125710559D01*
X124732621Y-125702621D01*
X124820861Y-125587625D01*
X124831444Y-125562077D01*
X124871339Y-125465759D01*
X124871339Y-125465758D01*
X124876330Y-125453709D01*
X124895250Y-125310000D01*
X124893547Y-125297065D01*
X124893547Y-125285065D01*
X124913254Y-125198722D01*
X124951833Y-125144351D01*
X127227203Y-122868981D01*
X127240002Y-122857252D01*
X127252076Y-122847121D01*
X127252077Y-122847120D01*
X127265415Y-122835928D01*
X127282005Y-122807193D01*
X127291315Y-122792579D01*
X127310351Y-122765394D01*
X127313999Y-122751780D01*
X127321047Y-122739572D01*
X127324071Y-122722425D01*
X127326811Y-122706889D01*
X127330566Y-122689950D01*
X127334641Y-122674740D01*
X127339147Y-122657922D01*
X127336257Y-122624885D01*
X127335500Y-122607544D01*
X127335500Y-117012465D01*
X127336257Y-116995119D01*
X127337631Y-116979421D01*
X127337631Y-116979418D01*
X127339148Y-116962078D01*
X127332047Y-116935574D01*
X127330565Y-116930043D01*
X127326809Y-116913099D01*
X127324071Y-116897574D01*
X127324070Y-116897571D01*
X127321047Y-116880428D01*
X127313999Y-116868220D01*
X127310351Y-116854607D01*
X127291326Y-116827438D01*
X127282002Y-116812801D01*
X127274119Y-116799148D01*
X127265415Y-116784072D01*
X127252081Y-116772883D01*
X127252079Y-116772881D01*
X127240007Y-116762752D01*
X127227208Y-116751024D01*
X121651398Y-111175214D01*
X121604279Y-111100226D01*
X121594363Y-111012219D01*
X121623614Y-110928626D01*
X121686238Y-110866002D01*
X121769831Y-110836751D01*
X121792112Y-110835500D01*
X134347046Y-110835500D01*
X134433389Y-110855207D01*
X134504923Y-110913356D01*
X134527379Y-110942621D01*
X134642375Y-111030861D01*
X134654424Y-111035852D01*
X134654426Y-111035853D01*
X134764241Y-111081339D01*
X134776291Y-111086330D01*
X134920000Y-111105250D01*
X135063709Y-111086330D01*
X135075759Y-111081339D01*
X135185574Y-111035853D01*
X135185576Y-111035852D01*
X135197625Y-111030861D01*
X135312621Y-110942621D01*
X135400861Y-110827625D01*
X135419733Y-110782065D01*
X135451339Y-110705759D01*
X135451339Y-110705758D01*
X135456330Y-110693709D01*
X135475250Y-110550000D01*
X135456330Y-110406291D01*
X135438874Y-110364148D01*
X135405853Y-110284426D01*
X135405852Y-110284424D01*
X135400861Y-110272375D01*
X135312621Y-110157379D01*
X135197625Y-110069139D01*
X135185576Y-110064148D01*
X135185574Y-110064147D01*
X135075759Y-110018661D01*
X135075758Y-110018661D01*
X135063709Y-110013670D01*
X134920000Y-109994750D01*
X134776291Y-110013670D01*
X134764242Y-110018661D01*
X134764241Y-110018661D01*
X134654426Y-110064147D01*
X134654424Y-110064148D01*
X134642375Y-110069139D01*
X134527379Y-110157379D01*
X134526014Y-110155600D01*
X134465963Y-110193333D01*
X134400237Y-110204500D01*
X132107112Y-110204500D01*
X132020769Y-110184793D01*
X131951528Y-110129574D01*
X131913101Y-110049782D01*
X131913101Y-109961218D01*
X131951528Y-109881426D01*
X131966398Y-109864786D01*
X132117203Y-109713981D01*
X132130002Y-109702252D01*
X132142081Y-109692117D01*
X132142082Y-109692115D01*
X132155415Y-109680928D01*
X132172002Y-109652199D01*
X132181328Y-109637560D01*
X132190365Y-109624654D01*
X132200351Y-109610393D01*
X132203999Y-109596780D01*
X132211047Y-109584572D01*
X132214070Y-109567429D01*
X132214071Y-109567426D01*
X132216809Y-109551901D01*
X132220565Y-109534957D01*
X132224642Y-109519740D01*
X132224642Y-109519739D01*
X132229148Y-109502922D01*
X132226699Y-109474923D01*
X132226257Y-109469877D01*
X132225500Y-109452533D01*
X132225500Y-108280000D01*
X134304750Y-108280000D01*
X134323670Y-108423709D01*
X134379139Y-108557625D01*
X134467379Y-108672621D01*
X134582375Y-108760861D01*
X134594424Y-108765852D01*
X134594426Y-108765853D01*
X134704241Y-108811339D01*
X134716291Y-108816330D01*
X134860000Y-108835250D01*
X135003709Y-108816330D01*
X135015759Y-108811339D01*
X135125574Y-108765853D01*
X135125576Y-108765852D01*
X135137625Y-108760861D01*
X135252621Y-108672621D01*
X135340861Y-108557625D01*
X135396330Y-108423709D01*
X135409675Y-108322346D01*
X135440483Y-108239314D01*
X135466258Y-108207607D01*
X136333457Y-107340408D01*
X136341998Y-107333510D01*
X136341592Y-107333063D01*
X136353756Y-107321994D01*
X136367575Y-107313072D01*
X136389705Y-107285001D01*
X136393469Y-107280396D01*
X136399109Y-107274756D01*
X136403880Y-107268080D01*
X136403885Y-107268074D01*
X136409260Y-107260552D01*
X136414889Y-107253055D01*
X136415100Y-107252787D01*
X136445380Y-107214377D01*
X136448397Y-107205785D01*
X136453694Y-107198373D01*
X136467815Y-107151154D01*
X136470696Y-107142287D01*
X136487021Y-107095801D01*
X136487500Y-107090270D01*
X136487500Y-107085992D01*
X136487533Y-107085219D01*
X136489702Y-107077967D01*
X136488506Y-107047514D01*
X136487653Y-107025817D01*
X136487500Y-107018004D01*
X136487500Y-105709879D01*
X136507207Y-105623536D01*
X136528623Y-105588735D01*
X136582921Y-105517973D01*
X136582922Y-105517971D01*
X136590861Y-105507625D01*
X136601795Y-105481229D01*
X136641339Y-105385759D01*
X136641339Y-105385758D01*
X136646330Y-105373709D01*
X136665250Y-105230000D01*
X136646330Y-105086291D01*
X136641339Y-105074241D01*
X136595853Y-104964426D01*
X136595852Y-104964424D01*
X136590861Y-104952375D01*
X136502621Y-104837379D01*
X136387625Y-104749139D01*
X136375576Y-104744148D01*
X136375574Y-104744147D01*
X136265759Y-104698661D01*
X136265758Y-104698661D01*
X136253709Y-104693670D01*
X136110000Y-104674750D01*
X135966291Y-104693670D01*
X135954242Y-104698661D01*
X135954241Y-104698661D01*
X135844426Y-104744147D01*
X135844424Y-104744148D01*
X135832375Y-104749139D01*
X135717379Y-104837379D01*
X135629139Y-104952375D01*
X135624148Y-104964424D01*
X135624147Y-104964426D01*
X135578661Y-105074241D01*
X135573670Y-105086291D01*
X135554750Y-105230000D01*
X135573670Y-105373709D01*
X135578661Y-105385758D01*
X135578661Y-105385759D01*
X135618206Y-105481229D01*
X135629139Y-105507625D01*
X135637078Y-105517971D01*
X135637079Y-105517973D01*
X135691377Y-105588735D01*
X135728305Y-105669233D01*
X135732500Y-105709879D01*
X135732500Y-106791207D01*
X135712793Y-106877550D01*
X135674214Y-106931921D01*
X134932392Y-107673742D01*
X134857403Y-107720861D01*
X134817653Y-107730325D01*
X134716291Y-107743670D01*
X134704242Y-107748661D01*
X134704241Y-107748661D01*
X134594426Y-107794147D01*
X134594424Y-107794148D01*
X134582375Y-107799139D01*
X134467379Y-107887379D01*
X134379139Y-108002375D01*
X134374148Y-108014424D01*
X134374147Y-108014426D01*
X134332630Y-108114660D01*
X134323670Y-108136291D01*
X134304750Y-108280000D01*
X132225500Y-108280000D01*
X132225500Y-102029762D01*
X132245207Y-101943419D01*
X132283788Y-101889046D01*
X132292273Y-101880561D01*
X132302621Y-101872621D01*
X132390861Y-101757625D01*
X132400551Y-101734233D01*
X132441339Y-101635759D01*
X132441339Y-101635758D01*
X132446330Y-101623709D01*
X132465250Y-101480000D01*
X132446330Y-101336291D01*
X132410728Y-101250338D01*
X132395853Y-101214426D01*
X132395852Y-101214424D01*
X132390861Y-101202375D01*
X132302621Y-101087379D01*
X132187625Y-100999139D01*
X132175576Y-100994148D01*
X132175574Y-100994147D01*
X132065759Y-100948661D01*
X132065758Y-100948661D01*
X132053709Y-100943670D01*
X131910000Y-100924750D01*
X131766291Y-100943670D01*
X131754242Y-100948661D01*
X131754241Y-100948661D01*
X131644426Y-100994147D01*
X131644424Y-100994148D01*
X131632375Y-100999139D01*
X131517379Y-101087379D01*
X131429139Y-101202375D01*
X131424148Y-101214424D01*
X131424147Y-101214426D01*
X131409272Y-101250338D01*
X131373670Y-101336291D01*
X131354750Y-101480000D01*
X131373670Y-101623709D01*
X131378661Y-101635758D01*
X131378661Y-101635759D01*
X131419450Y-101734233D01*
X131429139Y-101757625D01*
X131517379Y-101872621D01*
X131527727Y-101880561D01*
X131536212Y-101889046D01*
X131583332Y-101964034D01*
X131594500Y-102029762D01*
X131594500Y-109261888D01*
X131574793Y-109348231D01*
X131536214Y-109402602D01*
X131199714Y-109739102D01*
X131124726Y-109786221D01*
X131036719Y-109796137D01*
X130953126Y-109766886D01*
X130890502Y-109704262D01*
X130861251Y-109620669D01*
X130860000Y-109598388D01*
X130860000Y-108456000D01*
X130854287Y-108402860D01*
X130842901Y-108350518D01*
X130835821Y-108324709D01*
X130810362Y-108280000D01*
X130792393Y-108248444D01*
X130792392Y-108248443D01*
X130787552Y-108239943D01*
X130772339Y-108222386D01*
X130743966Y-108189641D01*
X130743957Y-108189632D01*
X130741059Y-108186287D01*
X130708988Y-108155341D01*
X130622554Y-108110129D01*
X130576247Y-108096532D01*
X130561252Y-108092129D01*
X130561249Y-108092128D01*
X130554433Y-108090127D01*
X130547402Y-108089116D01*
X130547397Y-108089115D01*
X130518957Y-108085026D01*
X130484000Y-108080000D01*
X129209500Y-108080000D01*
X129123157Y-108060293D01*
X129053916Y-108005074D01*
X129015489Y-107925282D01*
X129010500Y-107881000D01*
X129010500Y-102260128D01*
X129030207Y-102173785D01*
X129034071Y-102166474D01*
X129040861Y-102157625D01*
X129096330Y-102023709D01*
X129115250Y-101880000D01*
X129096330Y-101736291D01*
X129040861Y-101602375D01*
X128952621Y-101487379D01*
X128837625Y-101399139D01*
X128825576Y-101394148D01*
X128825574Y-101394147D01*
X128715759Y-101348661D01*
X128715758Y-101348661D01*
X128703709Y-101343670D01*
X128560000Y-101324750D01*
X128416291Y-101343670D01*
X128404242Y-101348661D01*
X128404241Y-101348661D01*
X128294426Y-101394147D01*
X128294424Y-101394148D01*
X128282375Y-101399139D01*
X128167379Y-101487379D01*
X128079139Y-101602375D01*
X128023670Y-101736291D01*
X128004750Y-101880000D01*
X128023670Y-102023709D01*
X128079139Y-102157625D01*
X128083778Y-102163671D01*
X128108944Y-102245258D01*
X128109500Y-102260128D01*
X128109500Y-107881000D01*
X128089793Y-107967343D01*
X128034574Y-108036584D01*
X127954782Y-108075011D01*
X127910500Y-108080000D01*
X127786000Y-108080000D01*
X127732860Y-108085713D01*
X127680518Y-108097099D01*
X127654709Y-108104179D01*
X127643892Y-108110339D01*
X127643891Y-108110339D01*
X127598317Y-108136291D01*
X127569943Y-108152448D01*
X127562550Y-108158854D01*
X127519641Y-108196034D01*
X127519632Y-108196043D01*
X127516287Y-108198941D01*
X127485341Y-108231012D01*
X127440129Y-108317446D01*
X127420127Y-108385567D01*
X127419116Y-108392598D01*
X127419115Y-108392603D01*
X127416878Y-108408165D01*
X127410000Y-108456000D01*
X127410000Y-109705500D01*
X127390293Y-109791843D01*
X127335074Y-109861084D01*
X127255282Y-109899511D01*
X127211000Y-109904500D01*
X122378112Y-109904500D01*
X122291769Y-109884793D01*
X122237398Y-109846214D01*
X119876833Y-107485649D01*
X119829714Y-107410661D01*
X119818547Y-107344935D01*
X119818547Y-107332935D01*
X119820250Y-107320000D01*
X119801330Y-107176291D01*
X119791685Y-107153005D01*
X119750853Y-107054426D01*
X119750852Y-107054424D01*
X119745861Y-107042375D01*
X119657621Y-106927379D01*
X119542625Y-106839139D01*
X119530576Y-106834148D01*
X119530574Y-106834147D01*
X119420759Y-106788661D01*
X119420758Y-106788661D01*
X119408709Y-106783670D01*
X119265000Y-106764750D01*
X119121291Y-106783670D01*
X119109242Y-106788661D01*
X119109241Y-106788661D01*
X118999426Y-106834147D01*
X118999424Y-106834148D01*
X118987375Y-106839139D01*
X118872379Y-106927379D01*
X118784139Y-107042375D01*
X118779149Y-107054423D01*
X118779148Y-107054424D01*
X118738315Y-107153005D01*
X118687066Y-107225234D01*
X118609553Y-107268074D01*
X118521129Y-107273039D01*
X118439307Y-107239148D01*
X118413749Y-107217565D01*
X117043786Y-105847602D01*
X116996667Y-105772614D01*
X116985500Y-105706888D01*
X116985500Y-95953112D01*
X117005207Y-95866769D01*
X117043786Y-95812398D01*
X117407701Y-95448483D01*
X117482689Y-95401364D01*
X117570696Y-95391448D01*
X117654289Y-95420699D01*
X117720754Y-95489697D01*
X117724147Y-95495574D01*
X117729139Y-95507625D01*
X117737078Y-95517971D01*
X117737079Y-95517973D01*
X117791377Y-95588735D01*
X117828305Y-95669233D01*
X117832500Y-95709879D01*
X117832500Y-97303522D01*
X117831338Y-97314436D01*
X117831942Y-97314464D01*
X117831167Y-97330890D01*
X117827705Y-97346971D01*
X117829638Y-97363304D01*
X117829638Y-97363307D01*
X117831904Y-97382451D01*
X117832500Y-97388381D01*
X117832500Y-97396362D01*
X117833847Y-97404456D01*
X117833848Y-97404467D01*
X117835365Y-97413581D01*
X117836685Y-97422857D01*
X117840541Y-97455433D01*
X117840542Y-97455438D01*
X117842476Y-97471775D01*
X117846419Y-97479985D01*
X117847914Y-97488970D01*
X117855728Y-97503451D01*
X117855728Y-97503452D01*
X117871296Y-97532304D01*
X117875553Y-97540659D01*
X117891454Y-97573772D01*
X117891457Y-97573776D01*
X117896878Y-97585066D01*
X117900450Y-97589315D01*
X117903498Y-97592363D01*
X117903995Y-97592904D01*
X117907592Y-97599572D01*
X117919627Y-97610697D01*
X117945931Y-97635012D01*
X117951564Y-97640429D01*
X120054593Y-99743458D01*
X120061488Y-99751996D01*
X120061936Y-99751589D01*
X120073003Y-99763752D01*
X120081928Y-99777575D01*
X120094850Y-99787762D01*
X120094851Y-99787763D01*
X120109983Y-99799693D01*
X120114601Y-99803467D01*
X120120243Y-99809109D01*
X120126919Y-99813880D01*
X120126925Y-99813885D01*
X120134466Y-99819274D01*
X120141938Y-99824884D01*
X120180623Y-99855380D01*
X120189216Y-99858398D01*
X120196626Y-99863693D01*
X120243820Y-99877807D01*
X120252725Y-99880701D01*
X120299199Y-99897021D01*
X120304730Y-99897500D01*
X120309029Y-99897500D01*
X120309779Y-99897532D01*
X120317033Y-99899702D01*
X120333402Y-99899059D01*
X120333404Y-99899059D01*
X120369183Y-99897653D01*
X120376996Y-99897500D01*
X121385121Y-99897500D01*
X121471464Y-99917207D01*
X121506265Y-99938623D01*
X121526446Y-99954108D01*
X121587375Y-100000861D01*
X121599424Y-100005852D01*
X121599426Y-100005853D01*
X121629240Y-100018202D01*
X121721291Y-100056330D01*
X121865000Y-100075250D01*
X122008709Y-100056330D01*
X122100760Y-100018202D01*
X122130574Y-100005853D01*
X122130576Y-100005852D01*
X122142625Y-100000861D01*
X122257621Y-99912621D01*
X122345861Y-99797625D01*
X122362094Y-99758436D01*
X122396339Y-99675759D01*
X122396339Y-99675758D01*
X122401330Y-99663709D01*
X122420250Y-99520000D01*
X122401330Y-99376291D01*
X122345861Y-99242375D01*
X122257621Y-99127379D01*
X122142625Y-99039139D01*
X122130576Y-99034148D01*
X122130574Y-99034147D01*
X122020759Y-98988661D01*
X122020758Y-98988661D01*
X122008709Y-98983670D01*
X121865000Y-98964750D01*
X121721291Y-98983670D01*
X121709242Y-98988661D01*
X121709241Y-98988661D01*
X121599426Y-99034147D01*
X121599424Y-99034148D01*
X121587375Y-99039139D01*
X121577029Y-99047078D01*
X121577027Y-99047079D01*
X121506265Y-99101377D01*
X121425767Y-99138305D01*
X121385121Y-99142500D01*
X120603794Y-99142500D01*
X120517451Y-99122793D01*
X120463080Y-99084214D01*
X118645786Y-97266920D01*
X118598667Y-97191932D01*
X118587500Y-97126206D01*
X118587500Y-95709879D01*
X118607207Y-95623536D01*
X118628623Y-95588735D01*
X118682921Y-95517973D01*
X118682922Y-95517971D01*
X118690861Y-95507625D01*
X118726867Y-95420699D01*
X118741339Y-95385759D01*
X118741339Y-95385758D01*
X118746330Y-95373709D01*
X118765250Y-95230000D01*
X118746330Y-95086291D01*
X118739003Y-95068602D01*
X118695853Y-94964426D01*
X118695852Y-94964424D01*
X118690861Y-94952375D01*
X118602621Y-94837379D01*
X118487625Y-94749139D01*
X118475575Y-94744148D01*
X118469697Y-94740754D01*
X118404775Y-94680515D01*
X118372420Y-94598074D01*
X118379038Y-94509758D01*
X118428483Y-94427701D01*
X121224351Y-91631833D01*
X121299339Y-91584714D01*
X121365065Y-91573547D01*
X121377065Y-91573547D01*
X121390000Y-91575250D01*
X121533709Y-91556330D01*
X121591411Y-91532430D01*
X121678720Y-91517595D01*
X121763822Y-91542113D01*
X121829859Y-91601127D01*
X121851108Y-91651973D01*
X121854974Y-91650566D01*
X121860930Y-91666931D01*
X121863953Y-91684072D01*
X121871001Y-91696280D01*
X121874649Y-91709893D01*
X121892825Y-91735850D01*
X121893672Y-91737060D01*
X121902998Y-91751699D01*
X121919585Y-91780428D01*
X121932919Y-91791617D01*
X121932921Y-91791619D01*
X121944993Y-91801748D01*
X121957792Y-91813476D01*
X122948667Y-92804351D01*
X122995786Y-92879339D01*
X123006953Y-92945065D01*
X123006953Y-92957065D01*
X123005250Y-92970000D01*
X123024170Y-93113709D01*
X123029161Y-93125758D01*
X123029161Y-93125759D01*
X123069869Y-93224037D01*
X123079639Y-93247625D01*
X123167879Y-93362621D01*
X123282875Y-93450861D01*
X123294924Y-93455852D01*
X123294926Y-93455853D01*
X123387390Y-93494152D01*
X123416791Y-93506330D01*
X123560500Y-93525250D01*
X123560134Y-93528028D01*
X123626843Y-93543254D01*
X123696084Y-93598473D01*
X123734511Y-93678265D01*
X123739500Y-93722547D01*
X123739500Y-95275969D01*
X123719793Y-95362312D01*
X123681214Y-95416683D01*
X123573691Y-95524206D01*
X123556178Y-95539769D01*
X123544573Y-95548917D01*
X123544570Y-95548920D01*
X123532890Y-95558128D01*
X123524432Y-95570366D01*
X123524431Y-95570367D01*
X123500189Y-95605443D01*
X123496556Y-95610527D01*
X123462366Y-95656816D01*
X123459973Y-95663632D01*
X123455869Y-95669569D01*
X123451381Y-95683760D01*
X123438524Y-95724412D01*
X123436546Y-95730340D01*
X123417481Y-95784631D01*
X123417198Y-95791845D01*
X123415020Y-95798730D01*
X123414500Y-95805337D01*
X123414500Y-95856575D01*
X123414347Y-95864386D01*
X123412162Y-95919994D01*
X123414280Y-95927984D01*
X123414500Y-95931973D01*
X123414500Y-96239872D01*
X123394793Y-96326215D01*
X123390929Y-96333526D01*
X123384139Y-96342375D01*
X123328670Y-96476291D01*
X123309750Y-96620000D01*
X123328670Y-96763709D01*
X123384139Y-96897625D01*
X123472379Y-97012621D01*
X123587375Y-97100861D01*
X123599424Y-97105852D01*
X123599426Y-97105853D01*
X123709241Y-97151339D01*
X123721291Y-97156330D01*
X123865000Y-97175250D01*
X124008709Y-97156330D01*
X124020759Y-97151339D01*
X124130574Y-97105853D01*
X124130576Y-97105852D01*
X124142625Y-97100861D01*
X124257621Y-97012621D01*
X124345861Y-96897625D01*
X124401330Y-96763709D01*
X124420250Y-96620000D01*
X124401330Y-96476291D01*
X124345861Y-96342375D01*
X124341222Y-96336329D01*
X124316056Y-96254742D01*
X124315500Y-96239872D01*
X124315500Y-96194500D01*
X124335207Y-96108157D01*
X124390426Y-96038916D01*
X124470218Y-96000489D01*
X124514500Y-95995500D01*
X124584872Y-95995500D01*
X124671215Y-96015207D01*
X124678526Y-96019071D01*
X124687375Y-96025861D01*
X124821291Y-96081330D01*
X124965000Y-96100250D01*
X125108709Y-96081330D01*
X125242625Y-96025861D01*
X125248671Y-96021222D01*
X125330258Y-95996056D01*
X125345128Y-95995500D01*
X125859872Y-95995500D01*
X125946215Y-96015207D01*
X125953526Y-96019071D01*
X125962375Y-96025861D01*
X126096291Y-96081330D01*
X126240000Y-96100250D01*
X126383709Y-96081330D01*
X126517625Y-96025861D01*
X126523671Y-96021222D01*
X126605258Y-95996056D01*
X126620128Y-95995500D01*
X130036475Y-95995500D01*
X130059864Y-95996879D01*
X130074537Y-95998616D01*
X130074540Y-95998616D01*
X130089310Y-96000364D01*
X130108392Y-95996879D01*
X130145895Y-95990030D01*
X130152060Y-95989004D01*
X130208962Y-95980449D01*
X130215475Y-95977321D01*
X130222573Y-95976025D01*
X130235770Y-95969170D01*
X130235775Y-95969168D01*
X130273613Y-95949513D01*
X130279147Y-95946747D01*
X130331079Y-95921809D01*
X130336383Y-95916906D01*
X130342788Y-95913579D01*
X130347828Y-95909275D01*
X130384046Y-95873057D01*
X130389679Y-95867640D01*
X130419635Y-95839950D01*
X130419637Y-95839947D01*
X130430556Y-95829854D01*
X130434708Y-95822705D01*
X130437377Y-95819726D01*
X137359761Y-88897342D01*
X137434749Y-88850223D01*
X137442649Y-88847786D01*
X137453709Y-88846330D01*
X137465766Y-88841336D01*
X137575574Y-88795853D01*
X137575576Y-88795852D01*
X137587625Y-88790861D01*
X137702621Y-88702621D01*
X137790861Y-88587625D01*
X137803805Y-88556377D01*
X137841339Y-88465759D01*
X137841339Y-88465758D01*
X137846330Y-88453709D01*
X137865250Y-88310000D01*
X137846330Y-88166291D01*
X137790861Y-88032375D01*
X137702621Y-87917379D01*
X137587625Y-87829139D01*
X137575576Y-87824148D01*
X137575574Y-87824147D01*
X137465759Y-87778661D01*
X137465758Y-87778661D01*
X137453709Y-87773670D01*
X137310000Y-87754750D01*
X137166291Y-87773670D01*
X137154242Y-87778661D01*
X137154241Y-87778661D01*
X137044426Y-87824147D01*
X137044424Y-87824148D01*
X137032375Y-87829139D01*
X136917379Y-87917379D01*
X136829139Y-88032375D01*
X136773670Y-88166291D01*
X136772675Y-88173846D01*
X136732781Y-88249329D01*
X136722658Y-88260239D01*
X129946683Y-95036214D01*
X129871695Y-95083333D01*
X129805969Y-95094500D01*
X126620128Y-95094500D01*
X126533785Y-95074793D01*
X126526474Y-95070929D01*
X126517625Y-95064139D01*
X126383709Y-95008670D01*
X126240000Y-94989750D01*
X126096291Y-95008670D01*
X125962375Y-95064139D01*
X125956329Y-95068778D01*
X125874742Y-95093944D01*
X125859872Y-95094500D01*
X125345128Y-95094500D01*
X125258785Y-95074793D01*
X125251474Y-95070929D01*
X125242625Y-95064139D01*
X125108709Y-95008670D01*
X124965000Y-94989750D01*
X124865475Y-95002853D01*
X124777299Y-94994585D01*
X124701442Y-94948877D01*
X124652929Y-94874783D01*
X124640500Y-94805556D01*
X124640500Y-82728032D01*
X124660207Y-82641689D01*
X124715426Y-82572448D01*
X124795218Y-82534021D01*
X124838990Y-82529033D01*
X126640381Y-82524418D01*
X128365000Y-82520000D01*
X128365000Y-78320000D01*
X125251250Y-78327873D01*
X125164859Y-78308385D01*
X125095478Y-78253341D01*
X125056850Y-78173646D01*
X125056626Y-78085083D01*
X125094850Y-78005193D01*
X125110655Y-77989438D01*
X125110245Y-77989053D01*
X125120427Y-77978210D01*
X125132110Y-77969000D01*
X125164814Y-77921681D01*
X125168447Y-77916597D01*
X125193794Y-77882280D01*
X125202634Y-77870312D01*
X125205027Y-77863496D01*
X125209131Y-77857559D01*
X125226476Y-77802716D01*
X125228454Y-77796788D01*
X125242590Y-77756533D01*
X125247519Y-77742497D01*
X125247802Y-77735283D01*
X125249980Y-77728398D01*
X125250500Y-77721791D01*
X125250500Y-77670553D01*
X125250653Y-77662739D01*
X125252254Y-77621999D01*
X125252254Y-77621998D01*
X125252838Y-77607134D01*
X125250719Y-77599144D01*
X125250500Y-77595160D01*
X125250500Y-76041373D01*
X125270207Y-75955030D01*
X125319184Y-75890978D01*
X125350361Y-75863964D01*
X125350367Y-75863958D01*
X125353713Y-75861059D01*
X125384659Y-75828988D01*
X125429871Y-75742554D01*
X125443073Y-75697591D01*
X125447871Y-75681252D01*
X125447872Y-75681249D01*
X125449873Y-75674433D01*
X125460000Y-75604000D01*
X125460000Y-73390000D01*
X135544318Y-73390000D01*
X135564956Y-73546762D01*
X135625464Y-73692841D01*
X135721718Y-73818282D01*
X135847159Y-73914536D01*
X135859212Y-73919528D01*
X135859211Y-73919528D01*
X135981188Y-73970053D01*
X135981190Y-73970054D01*
X135993238Y-73975044D01*
X136043223Y-73981625D01*
X136104187Y-73989651D01*
X136104193Y-73989651D01*
X136110639Y-73990500D01*
X136189361Y-73990500D01*
X136195807Y-73989651D01*
X136195813Y-73989651D01*
X136256777Y-73981625D01*
X136306762Y-73975044D01*
X136318810Y-73970054D01*
X136318812Y-73970053D01*
X136440789Y-73919528D01*
X136440788Y-73919528D01*
X136452841Y-73914536D01*
X136578282Y-73818282D01*
X136674536Y-73692841D01*
X136735044Y-73546762D01*
X136755682Y-73390000D01*
X136735044Y-73233238D01*
X136674536Y-73087159D01*
X136578282Y-72961718D01*
X136452841Y-72865464D01*
X136356804Y-72825684D01*
X136318812Y-72809947D01*
X136318810Y-72809946D01*
X136306762Y-72804956D01*
X136256777Y-72798375D01*
X136195813Y-72790349D01*
X136195807Y-72790349D01*
X136189361Y-72789500D01*
X136110639Y-72789500D01*
X136104193Y-72790349D01*
X136104187Y-72790349D01*
X136043223Y-72798375D01*
X135993238Y-72804956D01*
X135981190Y-72809946D01*
X135981188Y-72809947D01*
X135943196Y-72825684D01*
X135847159Y-72865464D01*
X135721718Y-72961718D01*
X135625464Y-73087159D01*
X135564956Y-73233238D01*
X135544318Y-73390000D01*
X125460000Y-73390000D01*
X125460000Y-72806000D01*
X125454287Y-72752860D01*
X125442901Y-72700518D01*
X125435821Y-72674709D01*
X125435496Y-72674139D01*
X125421769Y-72593340D01*
X125446288Y-72508238D01*
X125505302Y-72442202D01*
X125587125Y-72408311D01*
X125620456Y-72405500D01*
X131560704Y-72405500D01*
X131647047Y-72425207D01*
X131716288Y-72480426D01*
X131733044Y-72505002D01*
X131739147Y-72515573D01*
X131744139Y-72527625D01*
X131752078Y-72537971D01*
X131752079Y-72537973D01*
X131794564Y-72593340D01*
X131832379Y-72642621D01*
X131947375Y-72730861D01*
X131959424Y-72735852D01*
X131959426Y-72735853D01*
X132066158Y-72780062D01*
X132081291Y-72786330D01*
X132225000Y-72805250D01*
X132368709Y-72786330D01*
X132383842Y-72780062D01*
X132490574Y-72735853D01*
X132490576Y-72735852D01*
X132502625Y-72730861D01*
X132617621Y-72642621D01*
X132705861Y-72527625D01*
X132713892Y-72508238D01*
X132756339Y-72405759D01*
X132756339Y-72405758D01*
X132761330Y-72393709D01*
X132780250Y-72250000D01*
X132761330Y-72106291D01*
X132754760Y-72090428D01*
X132721716Y-72010653D01*
X132706881Y-71923341D01*
X132731399Y-71838239D01*
X132790413Y-71772203D01*
X132872235Y-71738312D01*
X132905568Y-71735500D01*
X187676888Y-71735500D01*
X187763231Y-71755207D01*
X187817602Y-71793786D01*
X188791214Y-72767398D01*
X188838333Y-72842386D01*
X188849500Y-72908112D01*
X188849500Y-125847535D01*
X188848743Y-125864881D01*
X188845852Y-125897922D01*
X188850358Y-125914739D01*
X188850358Y-125914740D01*
X188854435Y-125929957D01*
X188858191Y-125946901D01*
X188860929Y-125962426D01*
X188860930Y-125962429D01*
X188863953Y-125979572D01*
X188871001Y-125991780D01*
X188874649Y-126005393D01*
X188884635Y-126019654D01*
X188893672Y-126032560D01*
X188902998Y-126047199D01*
X188919585Y-126075928D01*
X188932919Y-126087117D01*
X188932921Y-126087119D01*
X188944993Y-126097248D01*
X188957792Y-126108976D01*
X189778166Y-126929351D01*
X189825285Y-127004340D01*
X189836452Y-127070061D01*
X189836452Y-127082069D01*
X189834750Y-127095000D01*
X189853670Y-127238709D01*
X189858661Y-127250758D01*
X189858661Y-127250759D01*
X189893059Y-127333803D01*
X189909139Y-127372625D01*
X189997379Y-127487621D01*
X190112375Y-127575861D01*
X190124424Y-127580852D01*
X190124426Y-127580853D01*
X190190816Y-127608352D01*
X190246291Y-127631330D01*
X190390000Y-127650250D01*
X190533709Y-127631330D01*
X190589184Y-127608352D01*
X190655574Y-127580853D01*
X190655576Y-127580852D01*
X190667625Y-127575861D01*
X190782621Y-127487621D01*
X190870861Y-127372625D01*
X190886942Y-127333803D01*
X190921339Y-127250759D01*
X190921339Y-127250758D01*
X190926330Y-127238709D01*
X190945250Y-127095000D01*
X190926330Y-126951291D01*
X190921339Y-126939241D01*
X190875853Y-126829426D01*
X190875852Y-126829424D01*
X190870861Y-126817375D01*
X190782621Y-126702379D01*
X190667625Y-126614139D01*
X190655576Y-126609148D01*
X190655574Y-126609147D01*
X190545759Y-126563661D01*
X190545758Y-126563661D01*
X190533709Y-126558670D01*
X190390000Y-126539750D01*
X190377069Y-126541452D01*
X190365061Y-126541452D01*
X190278719Y-126521743D01*
X190224351Y-126483166D01*
X189538786Y-125797602D01*
X189491667Y-125722614D01*
X189480500Y-125656888D01*
X189480500Y-109860412D01*
X191880773Y-109860412D01*
X191890696Y-110018138D01*
X191894563Y-110030040D01*
X191894564Y-110030044D01*
X191935663Y-110156531D01*
X191939533Y-110168441D01*
X191946244Y-110179015D01*
X191946244Y-110179016D01*
X192008705Y-110277438D01*
X192024214Y-110301877D01*
X192139418Y-110410062D01*
X192277908Y-110486197D01*
X192430981Y-110525500D01*
X192549350Y-110525500D01*
X192578305Y-110521842D01*
X192654368Y-110512234D01*
X192654372Y-110512233D01*
X192666792Y-110510664D01*
X192813732Y-110452486D01*
X192882699Y-110402379D01*
X192931454Y-110366956D01*
X192941587Y-110359594D01*
X193042324Y-110237823D01*
X193067279Y-110184793D01*
X193104283Y-110106155D01*
X193104283Y-110106154D01*
X193109614Y-110094826D01*
X193139227Y-109939588D01*
X193129304Y-109781862D01*
X193125437Y-109769960D01*
X193125436Y-109769956D01*
X193084337Y-109643469D01*
X193084336Y-109643468D01*
X193080467Y-109631559D01*
X192995786Y-109498123D01*
X192880582Y-109389938D01*
X192742092Y-109313803D01*
X192589019Y-109274500D01*
X192470650Y-109274500D01*
X192446000Y-109277614D01*
X192365632Y-109287766D01*
X192365628Y-109287767D01*
X192353208Y-109289336D01*
X192206268Y-109347514D01*
X192078413Y-109440406D01*
X191977676Y-109562177D01*
X191972347Y-109573501D01*
X191972346Y-109573503D01*
X191935314Y-109652199D01*
X191910386Y-109705174D01*
X191880773Y-109860412D01*
X189480500Y-109860412D01*
X189480500Y-107560412D01*
X191880773Y-107560412D01*
X191890696Y-107718138D01*
X191894563Y-107730040D01*
X191894564Y-107730044D01*
X191919595Y-107807079D01*
X191939533Y-107868441D01*
X191946244Y-107879015D01*
X191946244Y-107879016D01*
X191958117Y-107897724D01*
X192024214Y-108001877D01*
X192139418Y-108110062D01*
X192150392Y-108116095D01*
X192207713Y-108147607D01*
X192277908Y-108186197D01*
X192430981Y-108225500D01*
X192549350Y-108225500D01*
X192586777Y-108220772D01*
X192654368Y-108212234D01*
X192654372Y-108212233D01*
X192666792Y-108210664D01*
X192813732Y-108152486D01*
X192871743Y-108110339D01*
X192931454Y-108066956D01*
X192941587Y-108059594D01*
X193042324Y-107937823D01*
X193048226Y-107925282D01*
X193104283Y-107806155D01*
X193104283Y-107806154D01*
X193109614Y-107794826D01*
X193139227Y-107639588D01*
X193129304Y-107481862D01*
X193125437Y-107469960D01*
X193125436Y-107469956D01*
X193084337Y-107343469D01*
X193084336Y-107343468D01*
X193080467Y-107331559D01*
X193073756Y-107320984D01*
X193002496Y-107208696D01*
X193002495Y-107208695D01*
X192995786Y-107198123D01*
X192880582Y-107089938D01*
X192816802Y-107054875D01*
X192753068Y-107019837D01*
X192742092Y-107013803D01*
X192589019Y-106974500D01*
X192470650Y-106974500D01*
X192446000Y-106977614D01*
X192365632Y-106987766D01*
X192365628Y-106987767D01*
X192353208Y-106989336D01*
X192206268Y-107047514D01*
X192196138Y-107054874D01*
X192196136Y-107054875D01*
X192136079Y-107098509D01*
X192078413Y-107140406D01*
X191977676Y-107262177D01*
X191972347Y-107273501D01*
X191972346Y-107273503D01*
X191915717Y-107393845D01*
X191910386Y-107405174D01*
X191880773Y-107560412D01*
X189480500Y-107560412D01*
X189480500Y-106875457D01*
X189500207Y-106789114D01*
X189555426Y-106719873D01*
X189635218Y-106681446D01*
X189723782Y-106681446D01*
X189803574Y-106719873D01*
X189858793Y-106789114D01*
X189873439Y-106838221D01*
X189873592Y-106838180D01*
X189875052Y-106843629D01*
X189876796Y-106849477D01*
X189878670Y-106863709D01*
X189883661Y-106875758D01*
X189883661Y-106875759D01*
X189924885Y-106975283D01*
X189934139Y-106997625D01*
X190022379Y-107112621D01*
X190137375Y-107200861D01*
X190149424Y-107205852D01*
X190149426Y-107205853D01*
X190229809Y-107239148D01*
X190271291Y-107256330D01*
X190415000Y-107275250D01*
X190558709Y-107256330D01*
X190600191Y-107239148D01*
X190680574Y-107205853D01*
X190680576Y-107205852D01*
X190692625Y-107200861D01*
X190807621Y-107112621D01*
X190895861Y-106997625D01*
X190905116Y-106975283D01*
X190946339Y-106875759D01*
X190946339Y-106875758D01*
X190951330Y-106863709D01*
X190970250Y-106720000D01*
X190951330Y-106576291D01*
X190940370Y-106549831D01*
X190900853Y-106454426D01*
X190900852Y-106454424D01*
X190895861Y-106442375D01*
X190807621Y-106327379D01*
X190692625Y-106239139D01*
X190680576Y-106234148D01*
X190680574Y-106234147D01*
X190570759Y-106188661D01*
X190570758Y-106188661D01*
X190558709Y-106183670D01*
X190415000Y-106164750D01*
X190402065Y-106166453D01*
X190390065Y-106166453D01*
X190303722Y-106146746D01*
X190249351Y-106108167D01*
X190068785Y-105927601D01*
X190021666Y-105852613D01*
X190010499Y-105786887D01*
X190010499Y-92195412D01*
X191880773Y-92195412D01*
X191890696Y-92353138D01*
X191894563Y-92365040D01*
X191894564Y-92365044D01*
X191921612Y-92448288D01*
X191939533Y-92503441D01*
X192024214Y-92636877D01*
X192139418Y-92745062D01*
X192277908Y-92821197D01*
X192430981Y-92860500D01*
X192549350Y-92860500D01*
X192578305Y-92856842D01*
X192654368Y-92847234D01*
X192654372Y-92847233D01*
X192666792Y-92845664D01*
X192813732Y-92787486D01*
X192941587Y-92694594D01*
X193042324Y-92572823D01*
X193109614Y-92429826D01*
X193139227Y-92274588D01*
X193135633Y-92217453D01*
X193130090Y-92129357D01*
X193129304Y-92116862D01*
X193125437Y-92104960D01*
X193125436Y-92104956D01*
X193084337Y-91978469D01*
X193084336Y-91978468D01*
X193080467Y-91966559D01*
X192995786Y-91833123D01*
X192880582Y-91724938D01*
X192869608Y-91718905D01*
X192753068Y-91654837D01*
X192742092Y-91648803D01*
X192589019Y-91609500D01*
X192470650Y-91609500D01*
X192446000Y-91612614D01*
X192365632Y-91622766D01*
X192365628Y-91622767D01*
X192353208Y-91624336D01*
X192206268Y-91682514D01*
X192196138Y-91689874D01*
X192196136Y-91689875D01*
X192168584Y-91709893D01*
X192078413Y-91775406D01*
X191977676Y-91897177D01*
X191910386Y-92040174D01*
X191880773Y-92195412D01*
X190010499Y-92195412D01*
X190010499Y-89895412D01*
X191880773Y-89895412D01*
X191890696Y-90053138D01*
X191894563Y-90065040D01*
X191894564Y-90065044D01*
X191926305Y-90162730D01*
X191939533Y-90203441D01*
X191946244Y-90214015D01*
X191946244Y-90214016D01*
X191990129Y-90283167D01*
X192024214Y-90336877D01*
X192139418Y-90445062D01*
X192150392Y-90451095D01*
X192262496Y-90512724D01*
X192277908Y-90521197D01*
X192430981Y-90560500D01*
X192549350Y-90560500D01*
X192578885Y-90556769D01*
X192654368Y-90547234D01*
X192654372Y-90547233D01*
X192666792Y-90545664D01*
X192813732Y-90487486D01*
X192834724Y-90472235D01*
X192931454Y-90401956D01*
X192941587Y-90394594D01*
X193042324Y-90272823D01*
X193048725Y-90259222D01*
X193104283Y-90141155D01*
X193104283Y-90141154D01*
X193109614Y-90129826D01*
X193139227Y-89974588D01*
X193129304Y-89816862D01*
X193125437Y-89804960D01*
X193125436Y-89804956D01*
X193084337Y-89678469D01*
X193084336Y-89678468D01*
X193080467Y-89666559D01*
X193036436Y-89597177D01*
X193002496Y-89543696D01*
X193002495Y-89543695D01*
X192995786Y-89533123D01*
X192880582Y-89424938D01*
X192742092Y-89348803D01*
X192589019Y-89309500D01*
X192470650Y-89309500D01*
X192446000Y-89312614D01*
X192365632Y-89322766D01*
X192365628Y-89322767D01*
X192353208Y-89324336D01*
X192206268Y-89382514D01*
X192078413Y-89475406D01*
X191977676Y-89597177D01*
X191972347Y-89608501D01*
X191972346Y-89608503D01*
X191950003Y-89655984D01*
X191910386Y-89740174D01*
X191880773Y-89895412D01*
X190010499Y-89895412D01*
X190010499Y-89522547D01*
X190030206Y-89436204D01*
X190085425Y-89366963D01*
X190165217Y-89328536D01*
X190190064Y-89325737D01*
X190190000Y-89325250D01*
X190333709Y-89306330D01*
X190345759Y-89301339D01*
X190455574Y-89255853D01*
X190455576Y-89255852D01*
X190467625Y-89250861D01*
X190582621Y-89162621D01*
X190670861Y-89047625D01*
X190684977Y-89013547D01*
X190721339Y-88925759D01*
X190721339Y-88925758D01*
X190726330Y-88913709D01*
X190745250Y-88770000D01*
X190726330Y-88626291D01*
X190721339Y-88614241D01*
X190675853Y-88504426D01*
X190675852Y-88504424D01*
X190670861Y-88492375D01*
X190582621Y-88377379D01*
X190572273Y-88369439D01*
X190563788Y-88360954D01*
X190516668Y-88285966D01*
X190505500Y-88220238D01*
X190505500Y-74530412D01*
X191880773Y-74530412D01*
X191890696Y-74688138D01*
X191894563Y-74700040D01*
X191894564Y-74700044D01*
X191935663Y-74826531D01*
X191939533Y-74838441D01*
X192024214Y-74971877D01*
X192139418Y-75080062D01*
X192150392Y-75086095D01*
X192186347Y-75105861D01*
X192277908Y-75156197D01*
X192430981Y-75195500D01*
X192549350Y-75195500D01*
X192578305Y-75191842D01*
X192654368Y-75182234D01*
X192654372Y-75182233D01*
X192666792Y-75180664D01*
X192813732Y-75122486D01*
X192836615Y-75105861D01*
X192931454Y-75036956D01*
X192941587Y-75029594D01*
X193042324Y-74907823D01*
X193056535Y-74877625D01*
X193104283Y-74776155D01*
X193104283Y-74776154D01*
X193109614Y-74764826D01*
X193139227Y-74609588D01*
X193129304Y-74451862D01*
X193125437Y-74439960D01*
X193125436Y-74439956D01*
X193084337Y-74313469D01*
X193084336Y-74313468D01*
X193080467Y-74301559D01*
X193036436Y-74232177D01*
X193002496Y-74178696D01*
X193002495Y-74178695D01*
X192995786Y-74168123D01*
X192880582Y-74059938D01*
X192742092Y-73983803D01*
X192589019Y-73944500D01*
X192470650Y-73944500D01*
X192446000Y-73947614D01*
X192365632Y-73957766D01*
X192365628Y-73957767D01*
X192353208Y-73959336D01*
X192206268Y-74017514D01*
X192196138Y-74024874D01*
X192196136Y-74024875D01*
X192134371Y-74069750D01*
X192078413Y-74110406D01*
X192030666Y-74168123D01*
X191998191Y-74207379D01*
X191977676Y-74232177D01*
X191972347Y-74243501D01*
X191972346Y-74243503D01*
X191915717Y-74363845D01*
X191910386Y-74375174D01*
X191880773Y-74530412D01*
X190505500Y-74530412D01*
X190505500Y-72392465D01*
X190506257Y-72375119D01*
X190507631Y-72359421D01*
X190507631Y-72359418D01*
X190509148Y-72342078D01*
X190504642Y-72325260D01*
X190500565Y-72310043D01*
X190496809Y-72293099D01*
X190494071Y-72277574D01*
X190494070Y-72277571D01*
X190491047Y-72260428D01*
X190483999Y-72248220D01*
X190480351Y-72234607D01*
X190477413Y-72230412D01*
X191880773Y-72230412D01*
X191881559Y-72242906D01*
X191881559Y-72242907D01*
X191881707Y-72245263D01*
X191890696Y-72388138D01*
X191894563Y-72400040D01*
X191894564Y-72400044D01*
X191924645Y-72492621D01*
X191939533Y-72538441D01*
X191946244Y-72549015D01*
X191946244Y-72549016D01*
X192005648Y-72642621D01*
X192024214Y-72671877D01*
X192139418Y-72780062D01*
X192150392Y-72786095D01*
X192166136Y-72794750D01*
X192277908Y-72856197D01*
X192430981Y-72895500D01*
X192549350Y-72895500D01*
X192578305Y-72891842D01*
X192654368Y-72882234D01*
X192654372Y-72882233D01*
X192666792Y-72880664D01*
X192813732Y-72822486D01*
X192825867Y-72813670D01*
X192931454Y-72736956D01*
X192941587Y-72729594D01*
X193042324Y-72607823D01*
X193049140Y-72593340D01*
X193104283Y-72476155D01*
X193104283Y-72476154D01*
X193109614Y-72464826D01*
X193139227Y-72309588D01*
X193129304Y-72151862D01*
X193125437Y-72139960D01*
X193125436Y-72139956D01*
X193084337Y-72013469D01*
X193084336Y-72013468D01*
X193080467Y-72001559D01*
X193032461Y-71925913D01*
X193002496Y-71878696D01*
X193002495Y-71878695D01*
X192995786Y-71868123D01*
X192880582Y-71759938D01*
X192816802Y-71724875D01*
X192753068Y-71689837D01*
X192742092Y-71683803D01*
X192589019Y-71644500D01*
X192470650Y-71644500D01*
X192446000Y-71647614D01*
X192365632Y-71657766D01*
X192365628Y-71657767D01*
X192353208Y-71659336D01*
X192206268Y-71717514D01*
X192196138Y-71724874D01*
X192196136Y-71724875D01*
X192156180Y-71753905D01*
X192078413Y-71810406D01*
X191977676Y-71932177D01*
X191972347Y-71943501D01*
X191972346Y-71943503D01*
X191939422Y-72013469D01*
X191910386Y-72075174D01*
X191880773Y-72230412D01*
X190477413Y-72230412D01*
X190461326Y-72207438D01*
X190452002Y-72192800D01*
X190439583Y-72171290D01*
X190413478Y-72086662D01*
X190426677Y-71999087D01*
X190476566Y-71925913D01*
X190490769Y-71913919D01*
X190557621Y-71862621D01*
X190645861Y-71747625D01*
X190650884Y-71735500D01*
X190696339Y-71625759D01*
X190696339Y-71625758D01*
X190701330Y-71613709D01*
X190720250Y-71470000D01*
X190701330Y-71326291D01*
X190645861Y-71192375D01*
X190557621Y-71077379D01*
X190442625Y-70989139D01*
X190430576Y-70984148D01*
X190430574Y-70984147D01*
X190320759Y-70938661D01*
X190320758Y-70938661D01*
X190308709Y-70933670D01*
X190165000Y-70914750D01*
X190152065Y-70916453D01*
X190140065Y-70916453D01*
X190053722Y-70896746D01*
X189999351Y-70858167D01*
X189560898Y-70419714D01*
X189513779Y-70344726D01*
X189503863Y-70256719D01*
X189533114Y-70173126D01*
X189595738Y-70110502D01*
X189679331Y-70081251D01*
X189701612Y-70080000D01*
X193611000Y-70080000D01*
X193697343Y-70099707D01*
G37*
G04 #@! TD.AperFunction*
G04 #@! TA.AperFunction,Conductor*
G36*
X115953096Y-128365686D02*
G01*
X116022337Y-128420905D01*
X116039091Y-128445478D01*
X116039150Y-128445580D01*
X116044139Y-128457625D01*
X116052077Y-128467970D01*
X116121247Y-128558113D01*
X116132379Y-128572621D01*
X116142727Y-128580561D01*
X116151212Y-128589046D01*
X116198332Y-128664034D01*
X116209500Y-128729762D01*
X116209500Y-133946888D01*
X116189793Y-134033231D01*
X116151214Y-134087602D01*
X115542602Y-134696214D01*
X115467614Y-134743333D01*
X115401888Y-134754500D01*
X115164762Y-134754500D01*
X115078419Y-134734793D01*
X115024046Y-134696212D01*
X115015561Y-134687727D01*
X115007621Y-134677379D01*
X114892625Y-134589139D01*
X114880576Y-134584148D01*
X114880574Y-134584147D01*
X114770759Y-134538661D01*
X114770758Y-134538661D01*
X114758709Y-134533670D01*
X114615000Y-134514750D01*
X114471291Y-134533670D01*
X114459242Y-134538661D01*
X114459241Y-134538661D01*
X114349426Y-134584147D01*
X114349424Y-134584148D01*
X114337375Y-134589139D01*
X114222379Y-134677379D01*
X114134139Y-134792375D01*
X114078670Y-134926291D01*
X114059750Y-135070000D01*
X114078670Y-135213709D01*
X114083661Y-135225758D01*
X114083661Y-135225759D01*
X114127668Y-135332002D01*
X114134139Y-135347625D01*
X114222379Y-135462621D01*
X114337375Y-135550861D01*
X114349424Y-135555852D01*
X114349426Y-135555853D01*
X114459241Y-135601339D01*
X114471291Y-135606330D01*
X114615000Y-135625250D01*
X114758709Y-135606330D01*
X114770759Y-135601339D01*
X114880574Y-135555853D01*
X114880576Y-135555852D01*
X114892625Y-135550861D01*
X114986276Y-135479000D01*
X114997275Y-135470560D01*
X114997276Y-135470559D01*
X115007621Y-135462621D01*
X115015561Y-135452273D01*
X115024046Y-135443788D01*
X115099034Y-135396668D01*
X115164762Y-135385500D01*
X115592535Y-135385500D01*
X115609881Y-135386257D01*
X115625579Y-135387631D01*
X115625582Y-135387631D01*
X115642922Y-135389148D01*
X115659739Y-135384642D01*
X115659740Y-135384642D01*
X115674957Y-135380565D01*
X115691901Y-135376809D01*
X115707426Y-135374071D01*
X115707429Y-135374070D01*
X115724572Y-135371047D01*
X115736780Y-135363999D01*
X115750393Y-135360351D01*
X115777562Y-135341326D01*
X115792199Y-135332002D01*
X115805852Y-135324119D01*
X115805851Y-135324119D01*
X115820928Y-135315415D01*
X115832117Y-135302081D01*
X115832119Y-135302079D01*
X115842248Y-135290007D01*
X115853976Y-135277208D01*
X116075286Y-135055898D01*
X116150274Y-135008779D01*
X116238281Y-134998863D01*
X116321874Y-135028114D01*
X116384498Y-135090738D01*
X116413749Y-135174331D01*
X116415000Y-135196612D01*
X116415000Y-138430001D01*
X116395293Y-138516344D01*
X116340074Y-138585585D01*
X116260282Y-138624012D01*
X116216000Y-138629001D01*
X110352801Y-138629001D01*
X110266458Y-138609294D01*
X110197217Y-138554075D01*
X110158790Y-138474283D01*
X110155504Y-138404026D01*
X110156137Y-138399222D01*
X110165250Y-138330000D01*
X110146330Y-138186291D01*
X110137408Y-138164750D01*
X110095853Y-138064426D01*
X110095852Y-138064424D01*
X110090861Y-138052375D01*
X110002621Y-137937379D01*
X109887625Y-137849139D01*
X109875576Y-137844148D01*
X109875574Y-137844147D01*
X109820667Y-137821405D01*
X109753709Y-137793670D01*
X109705438Y-137787315D01*
X109689803Y-137785256D01*
X109606771Y-137754447D01*
X109575066Y-137728673D01*
X109323786Y-137477393D01*
X109276667Y-137402405D01*
X109265500Y-137336679D01*
X109265500Y-132656567D01*
X109260478Y-132641110D01*
X109253187Y-132610743D01*
X109250646Y-132594696D01*
X109243536Y-132580742D01*
X109243535Y-132580739D01*
X109243268Y-132580216D01*
X109231318Y-132551366D01*
X109231135Y-132550803D01*
X109226296Y-132535910D01*
X109216744Y-132522762D01*
X109200428Y-132496138D01*
X109200160Y-132495612D01*
X109193050Y-132481658D01*
X109015467Y-132304075D01*
X108866327Y-132154934D01*
X108819208Y-132079946D01*
X108809744Y-132040197D01*
X108803825Y-131995244D01*
X108801330Y-131976291D01*
X108756320Y-131867625D01*
X108750853Y-131854426D01*
X108750852Y-131854424D01*
X108745861Y-131842375D01*
X108657621Y-131727379D01*
X108542625Y-131639139D01*
X108530576Y-131634148D01*
X108530574Y-131634147D01*
X108420759Y-131588661D01*
X108420758Y-131588661D01*
X108408709Y-131583670D01*
X108265000Y-131564750D01*
X108121291Y-131583670D01*
X108109242Y-131588661D01*
X108109241Y-131588661D01*
X107999426Y-131634147D01*
X107999424Y-131634148D01*
X107987375Y-131639139D01*
X107872379Y-131727379D01*
X107784139Y-131842375D01*
X107779148Y-131854424D01*
X107779147Y-131854426D01*
X107773680Y-131867625D01*
X107728670Y-131976291D01*
X107726175Y-131995244D01*
X107720256Y-132040197D01*
X107689447Y-132123229D01*
X107663673Y-132154934D01*
X107497892Y-132320715D01*
X107422904Y-132367834D01*
X107357178Y-132379001D01*
X106052801Y-132379001D01*
X105966458Y-132359294D01*
X105897217Y-132304075D01*
X105858790Y-132224283D01*
X105855504Y-132154026D01*
X105857464Y-132139139D01*
X105865250Y-132080000D01*
X105863548Y-132067069D01*
X105863548Y-132055061D01*
X105883257Y-131968719D01*
X105921834Y-131914351D01*
X105997209Y-131838976D01*
X106010008Y-131827247D01*
X106022082Y-131817116D01*
X106022083Y-131817115D01*
X106035415Y-131805928D01*
X106048907Y-131782560D01*
X106051999Y-131777205D01*
X106061326Y-131762565D01*
X106070366Y-131749654D01*
X106080352Y-131735393D01*
X106084000Y-131721777D01*
X106091047Y-131709572D01*
X106096808Y-131676900D01*
X106100560Y-131659974D01*
X106109148Y-131627921D01*
X106106257Y-131594876D01*
X106105500Y-131577533D01*
X106105500Y-130370951D01*
X106568950Y-130370951D01*
X106598129Y-130470093D01*
X106605386Y-130488055D01*
X106687955Y-130645994D01*
X106698556Y-130662194D01*
X106810231Y-130801091D01*
X106823783Y-130814930D01*
X106960297Y-130929478D01*
X106976291Y-130940429D01*
X107132457Y-131026283D01*
X107150262Y-131033914D01*
X107320136Y-131087801D01*
X107339080Y-131091828D01*
X107477736Y-131107380D01*
X107488822Y-131108000D01*
X107813577Y-131108000D01*
X107832547Y-131103670D01*
X107836000Y-131096500D01*
X107836000Y-131085577D01*
X108344000Y-131085577D01*
X108348330Y-131104547D01*
X108355500Y-131108000D01*
X108684881Y-131108000D01*
X108694578Y-131107526D01*
X108827045Y-131094537D01*
X108846059Y-131090772D01*
X109016662Y-131039263D01*
X109034567Y-131031884D01*
X109191924Y-130948216D01*
X109208060Y-130937496D01*
X109346165Y-130824860D01*
X109359914Y-130811206D01*
X109473508Y-130673895D01*
X109484343Y-130657831D01*
X109569105Y-130501066D01*
X109576611Y-130483212D01*
X109609978Y-130375419D01*
X109611332Y-130357589D01*
X109599737Y-130354000D01*
X108366423Y-130354000D01*
X108347453Y-130358330D01*
X108344000Y-130365500D01*
X108344000Y-131085577D01*
X107836000Y-131085577D01*
X107836000Y-130376423D01*
X107831670Y-130357453D01*
X107824500Y-130354000D01*
X106586384Y-130354000D01*
X106568950Y-130357979D01*
X106568950Y-130370951D01*
X106105500Y-130370951D01*
X106105500Y-129748692D01*
X106125207Y-129662349D01*
X106163786Y-129607978D01*
X106283880Y-129487884D01*
X106358868Y-129440765D01*
X106446875Y-129430849D01*
X106530468Y-129460100D01*
X106593092Y-129522724D01*
X106622343Y-129606317D01*
X106612427Y-129694324D01*
X106608044Y-129705716D01*
X106603388Y-129716792D01*
X106570022Y-129824581D01*
X106568668Y-129842411D01*
X106580263Y-129846000D01*
X109593616Y-129846000D01*
X109611050Y-129842021D01*
X109611050Y-129829049D01*
X109581871Y-129729907D01*
X109574614Y-129711945D01*
X109492045Y-129554006D01*
X109481444Y-129537806D01*
X109369769Y-129398909D01*
X109356217Y-129385070D01*
X109219703Y-129270522D01*
X109203709Y-129259571D01*
X109047543Y-129173717D01*
X109029738Y-129166086D01*
X108859864Y-129112199D01*
X108840920Y-129108172D01*
X108702264Y-129092620D01*
X108691177Y-129092000D01*
X108305447Y-129092000D01*
X108219104Y-129072293D01*
X108149863Y-129017074D01*
X108111436Y-128937282D01*
X108113229Y-128841491D01*
X108115696Y-128832286D01*
X108120687Y-128820236D01*
X108140466Y-128670000D01*
X108138764Y-128657072D01*
X108138764Y-128657065D01*
X108127427Y-128570954D01*
X108135695Y-128482778D01*
X108181403Y-128406921D01*
X108255497Y-128358408D01*
X108324724Y-128345979D01*
X115866753Y-128345979D01*
X115953096Y-128365686D01*
G37*
G04 #@! TD.AperFunction*
G04 #@! TA.AperFunction,Conductor*
G36*
X105247343Y-134350207D02*
G01*
X105316584Y-134405426D01*
X105355011Y-134485218D01*
X105360000Y-134529500D01*
X105360000Y-135154000D01*
X105365713Y-135207140D01*
X105377099Y-135259482D01*
X105384179Y-135285291D01*
X105390339Y-135296108D01*
X105390339Y-135296109D01*
X105421235Y-135350365D01*
X105432448Y-135370057D01*
X105438854Y-135377450D01*
X105476034Y-135420359D01*
X105476043Y-135420368D01*
X105478941Y-135423713D01*
X105511012Y-135454659D01*
X105597446Y-135499871D01*
X105639425Y-135512197D01*
X105658748Y-135517871D01*
X105658751Y-135517872D01*
X105665567Y-135519873D01*
X105672598Y-135520884D01*
X105672603Y-135520885D01*
X105696266Y-135524287D01*
X105736000Y-135530000D01*
X106684000Y-135530000D01*
X106737140Y-135524287D01*
X106789482Y-135512901D01*
X106815291Y-135505821D01*
X106862392Y-135479000D01*
X106891556Y-135462393D01*
X106891557Y-135462392D01*
X106900057Y-135457552D01*
X106926409Y-135434718D01*
X106950359Y-135413966D01*
X106950368Y-135413957D01*
X106953713Y-135411059D01*
X106984659Y-135378988D01*
X106991255Y-135366378D01*
X106993975Y-135362606D01*
X107060461Y-135304099D01*
X107145748Y-135280234D01*
X107155386Y-135280000D01*
X108265500Y-135280000D01*
X108351843Y-135299707D01*
X108421084Y-135354926D01*
X108459511Y-135434718D01*
X108464500Y-135479000D01*
X108464500Y-137648433D01*
X108469339Y-137663324D01*
X108469521Y-137663884D01*
X108476813Y-137694257D01*
X108479354Y-137710304D01*
X108486464Y-137724258D01*
X108486465Y-137724261D01*
X108486732Y-137724784D01*
X108498682Y-137753634D01*
X108503704Y-137769090D01*
X108513260Y-137782242D01*
X108529575Y-137808867D01*
X108536950Y-137823342D01*
X108559513Y-137845905D01*
X108559516Y-137845909D01*
X109002894Y-138289287D01*
X109050013Y-138364275D01*
X109059929Y-138452282D01*
X109030678Y-138535875D01*
X108968054Y-138598499D01*
X108884461Y-138627750D01*
X108862180Y-138629001D01*
X106278532Y-138629001D01*
X106192189Y-138609294D01*
X106137818Y-138570715D01*
X103248786Y-135681683D01*
X103201667Y-135606695D01*
X103190500Y-135540969D01*
X103190500Y-134529500D01*
X103210207Y-134443157D01*
X103265426Y-134373916D01*
X103345218Y-134335489D01*
X103389500Y-134330500D01*
X105161000Y-134330500D01*
X105247343Y-134350207D01*
G37*
G04 #@! TD.AperFunction*
G04 #@! TA.AperFunction,Conductor*
G36*
X104603130Y-112150052D02*
G01*
X104674618Y-112195909D01*
X105052546Y-112573837D01*
X105099665Y-112648825D01*
X105109581Y-112736832D01*
X105080330Y-112820425D01*
X105017706Y-112883049D01*
X104933325Y-112912387D01*
X104914477Y-112914435D01*
X104881475Y-112918020D01*
X104871256Y-112921459D01*
X104721493Y-112971859D01*
X104721491Y-112971860D01*
X104711278Y-112975297D01*
X104557352Y-113067786D01*
X104549521Y-113075192D01*
X104549519Y-113075193D01*
X104535308Y-113088632D01*
X104426877Y-113191170D01*
X104420817Y-113200087D01*
X104375331Y-113267018D01*
X104325940Y-113339694D01*
X104311590Y-113375573D01*
X104270747Y-113477688D01*
X104259252Y-113506427D01*
X104257493Y-113517053D01*
X104257492Y-113517056D01*
X104235809Y-113648032D01*
X104229922Y-113683591D01*
X104239321Y-113862921D01*
X104242183Y-113873311D01*
X104266519Y-113961662D01*
X104287008Y-114036049D01*
X104292035Y-114045584D01*
X104292036Y-114045586D01*
X104350131Y-114155772D01*
X104370760Y-114194898D01*
X104486668Y-114332058D01*
X104495222Y-114338598D01*
X104495224Y-114338600D01*
X104555661Y-114384807D01*
X104629326Y-114441128D01*
X104792077Y-114517020D01*
X104888357Y-114538541D01*
X104959350Y-114554410D01*
X104959353Y-114554410D01*
X104967328Y-114556193D01*
X104972819Y-114556500D01*
X105104866Y-114556500D01*
X105110223Y-114555918D01*
X105110224Y-114555918D01*
X105128688Y-114553912D01*
X105238525Y-114541980D01*
X105326234Y-114512463D01*
X105398507Y-114488141D01*
X105398509Y-114488140D01*
X105408722Y-114484703D01*
X105562648Y-114392214D01*
X105623082Y-114335065D01*
X105685287Y-114276240D01*
X105693123Y-114268830D01*
X105703993Y-114252836D01*
X105788001Y-114129222D01*
X105788002Y-114129220D01*
X105794060Y-114120306D01*
X105851841Y-113975842D01*
X105856747Y-113963577D01*
X105856748Y-113963575D01*
X105860748Y-113953573D01*
X105862508Y-113942944D01*
X105878685Y-113845229D01*
X105912231Y-113763264D01*
X105978017Y-113703971D01*
X106063014Y-113679094D01*
X106150388Y-113693559D01*
X106215727Y-113737018D01*
X107805912Y-115327203D01*
X107817641Y-115340002D01*
X107838965Y-115365415D01*
X107854042Y-115374119D01*
X107854041Y-115374119D01*
X107867694Y-115382002D01*
X107882331Y-115391326D01*
X107909500Y-115410351D01*
X107923113Y-115413998D01*
X107935321Y-115421047D01*
X107952469Y-115424071D01*
X107952470Y-115424071D01*
X107967993Y-115426808D01*
X107984939Y-115430564D01*
X108016971Y-115439147D01*
X108034314Y-115437630D01*
X108034315Y-115437630D01*
X108050007Y-115436257D01*
X108067349Y-115435500D01*
X109176888Y-115435500D01*
X109263231Y-115455207D01*
X109317602Y-115493786D01*
X111244707Y-117420891D01*
X111291826Y-117495879D01*
X111301289Y-117535625D01*
X111303670Y-117553709D01*
X111359139Y-117687625D01*
X111447379Y-117802621D01*
X111562375Y-117890861D01*
X111574424Y-117895852D01*
X111574426Y-117895853D01*
X111684241Y-117941339D01*
X111696291Y-117946330D01*
X111827065Y-117963547D01*
X111840000Y-117965250D01*
X111852935Y-117963547D01*
X111864935Y-117963547D01*
X111951278Y-117983254D01*
X112005649Y-118021833D01*
X112941214Y-118957398D01*
X112988333Y-119032386D01*
X112999500Y-119098112D01*
X112999500Y-119874072D01*
X112979793Y-119960415D01*
X112924574Y-120029656D01*
X112844782Y-120068083D01*
X112774525Y-120071369D01*
X112728001Y-120065244D01*
X112715066Y-120063541D01*
X112571357Y-120082461D01*
X112559308Y-120087452D01*
X112559307Y-120087452D01*
X112449492Y-120132938D01*
X112449490Y-120132939D01*
X112437441Y-120137930D01*
X112322445Y-120226170D01*
X112234205Y-120341166D01*
X112229214Y-120353215D01*
X112229213Y-120353217D01*
X112201077Y-120421145D01*
X112178736Y-120475082D01*
X112159816Y-120618791D01*
X112161519Y-120631726D01*
X112161519Y-120643726D01*
X112141812Y-120730069D01*
X112103233Y-120784440D01*
X111366670Y-121521003D01*
X111291682Y-121568122D01*
X111203675Y-121578038D01*
X111120082Y-121548787D01*
X111057458Y-121486163D01*
X111028207Y-121402570D01*
X111026956Y-121380289D01*
X111026956Y-120353335D01*
X111046663Y-120266992D01*
X111085244Y-120212619D01*
X111093729Y-120204134D01*
X111104077Y-120196194D01*
X111114979Y-120181987D01*
X111152615Y-120132938D01*
X111192317Y-120081198D01*
X111197750Y-120068083D01*
X111242795Y-119959332D01*
X111242795Y-119959331D01*
X111247786Y-119947282D01*
X111266706Y-119803573D01*
X111247786Y-119659864D01*
X111242133Y-119646216D01*
X111197309Y-119537999D01*
X111197308Y-119537997D01*
X111192317Y-119525948D01*
X111104077Y-119410952D01*
X110989081Y-119322712D01*
X110977032Y-119317721D01*
X110977030Y-119317720D01*
X110867215Y-119272234D01*
X110867214Y-119272234D01*
X110855165Y-119267243D01*
X110711456Y-119248323D01*
X110567747Y-119267243D01*
X110555698Y-119272234D01*
X110555697Y-119272234D01*
X110445882Y-119317720D01*
X110445880Y-119317721D01*
X110433831Y-119322712D01*
X110318835Y-119410952D01*
X110230595Y-119525948D01*
X110225604Y-119537997D01*
X110225603Y-119537999D01*
X110180779Y-119646216D01*
X110175126Y-119659864D01*
X110156206Y-119803573D01*
X110175126Y-119947282D01*
X110180117Y-119959331D01*
X110180117Y-119959332D01*
X110225163Y-120068083D01*
X110230595Y-120081198D01*
X110270297Y-120132938D01*
X110307934Y-120181987D01*
X110318835Y-120196194D01*
X110329183Y-120204134D01*
X110337668Y-120212619D01*
X110384788Y-120287607D01*
X110395956Y-120353335D01*
X110395956Y-121315432D01*
X110376249Y-121401775D01*
X110337670Y-121456146D01*
X109952943Y-121840873D01*
X109877955Y-121887992D01*
X109789948Y-121897908D01*
X109706355Y-121868657D01*
X109643731Y-121806033D01*
X109614480Y-121722440D01*
X109614476Y-121722244D01*
X109612837Y-121718055D01*
X109599737Y-121714000D01*
X106586384Y-121714000D01*
X106568950Y-121717979D01*
X106568950Y-121730951D01*
X106598129Y-121830093D01*
X106605386Y-121848055D01*
X106687955Y-122005994D01*
X106698556Y-122022194D01*
X106810231Y-122161091D01*
X106823783Y-122174930D01*
X106960297Y-122289478D01*
X106976295Y-122300432D01*
X106992386Y-122309278D01*
X107058554Y-122368143D01*
X107092629Y-122449889D01*
X107087861Y-122538324D01*
X107068855Y-122583163D01*
X107065245Y-122589415D01*
X107057302Y-122599767D01*
X106999313Y-122739764D01*
X106979534Y-122890000D01*
X106999313Y-123040236D01*
X107057302Y-123180233D01*
X107149549Y-123300451D01*
X107269767Y-123392698D01*
X107271939Y-123393598D01*
X107332262Y-123449566D01*
X107364620Y-123532006D01*
X107358004Y-123620322D01*
X107313724Y-123697022D01*
X107274614Y-123728212D01*
X107272375Y-123729139D01*
X107157379Y-123817379D01*
X107069139Y-123932375D01*
X107064148Y-123944424D01*
X107064147Y-123944426D01*
X107018661Y-124054241D01*
X107013670Y-124066291D01*
X106994750Y-124210000D01*
X107013670Y-124353709D01*
X107018661Y-124365758D01*
X107018661Y-124365759D01*
X107059424Y-124464170D01*
X107069139Y-124487625D01*
X107157379Y-124602621D01*
X107272375Y-124690861D01*
X107284424Y-124695852D01*
X107284426Y-124695853D01*
X107394241Y-124741339D01*
X107406291Y-124746330D01*
X107550000Y-124765250D01*
X107627991Y-124754982D01*
X107716167Y-124763250D01*
X107792024Y-124808958D01*
X107840537Y-124883052D01*
X107852097Y-124970858D01*
X107824415Y-125054984D01*
X107794680Y-125092993D01*
X107442797Y-125444876D01*
X107429998Y-125456605D01*
X107417919Y-125466740D01*
X107417918Y-125466742D01*
X107404585Y-125477929D01*
X107395881Y-125493005D01*
X107387998Y-125506658D01*
X107378674Y-125521295D01*
X107359649Y-125548464D01*
X107356001Y-125562077D01*
X107348953Y-125574285D01*
X107345930Y-125591428D01*
X107345929Y-125591431D01*
X107343191Y-125606956D01*
X107339435Y-125623900D01*
X107330852Y-125655935D01*
X107332369Y-125673276D01*
X107332369Y-125673278D01*
X107333743Y-125688980D01*
X107334500Y-125706324D01*
X107334500Y-126470238D01*
X107314793Y-126556581D01*
X107276212Y-126610954D01*
X107267727Y-126619439D01*
X107257379Y-126627379D01*
X107249441Y-126637724D01*
X107249440Y-126637725D01*
X107240790Y-126648998D01*
X107169139Y-126742375D01*
X107164148Y-126754424D01*
X107164147Y-126754426D01*
X107118661Y-126864241D01*
X107113670Y-126876291D01*
X107094750Y-127020000D01*
X107113670Y-127163709D01*
X107118661Y-127175758D01*
X107118661Y-127175759D01*
X107149727Y-127250759D01*
X107169139Y-127297625D01*
X107257173Y-127412352D01*
X107257379Y-127412621D01*
X107257354Y-127412640D01*
X107300328Y-127481032D01*
X107310244Y-127569039D01*
X107280993Y-127652632D01*
X107218369Y-127715256D01*
X107191673Y-127726906D01*
X107192294Y-127728239D01*
X107185529Y-127729432D01*
X107173321Y-127736480D01*
X107159708Y-127740128D01*
X107145446Y-127750114D01*
X107145447Y-127750114D01*
X107132541Y-127759151D01*
X107117902Y-127768477D01*
X107089173Y-127785064D01*
X107077984Y-127798398D01*
X107077982Y-127798400D01*
X107067853Y-127810472D01*
X107056125Y-127823271D01*
X105920214Y-128959182D01*
X105845226Y-129006301D01*
X105757219Y-129016217D01*
X105673626Y-128986966D01*
X105611002Y-128924342D01*
X105581751Y-128840749D01*
X105580500Y-128818468D01*
X105580500Y-121202411D01*
X106568668Y-121202411D01*
X106580263Y-121206000D01*
X107813577Y-121206000D01*
X107832547Y-121201670D01*
X107836000Y-121194500D01*
X107836000Y-121183577D01*
X108344000Y-121183577D01*
X108348330Y-121202547D01*
X108355500Y-121206000D01*
X109593616Y-121206000D01*
X109611050Y-121202021D01*
X109611050Y-121189049D01*
X109581871Y-121089907D01*
X109574614Y-121071945D01*
X109492045Y-120914006D01*
X109481444Y-120897806D01*
X109369769Y-120758909D01*
X109356217Y-120745070D01*
X109219703Y-120630522D01*
X109203709Y-120619571D01*
X109047543Y-120533717D01*
X109029738Y-120526086D01*
X108859864Y-120472199D01*
X108840920Y-120468172D01*
X108702264Y-120452620D01*
X108691177Y-120452000D01*
X108366423Y-120452000D01*
X108347453Y-120456330D01*
X108344000Y-120463500D01*
X108344000Y-121183577D01*
X107836000Y-121183577D01*
X107836000Y-120474423D01*
X107831670Y-120455453D01*
X107824500Y-120452000D01*
X107495119Y-120452000D01*
X107485422Y-120452474D01*
X107352955Y-120465463D01*
X107333941Y-120469228D01*
X107163338Y-120520737D01*
X107145433Y-120528116D01*
X106988076Y-120611784D01*
X106971940Y-120622504D01*
X106833835Y-120735140D01*
X106820086Y-120748794D01*
X106706492Y-120886105D01*
X106695657Y-120902169D01*
X106610895Y-121058934D01*
X106603389Y-121076788D01*
X106570022Y-121184581D01*
X106568668Y-121202411D01*
X105580500Y-121202411D01*
X105580500Y-119676567D01*
X105575478Y-119661110D01*
X105568187Y-119630743D01*
X105565646Y-119614696D01*
X105558536Y-119600742D01*
X105558534Y-119600736D01*
X105558266Y-119600211D01*
X105546316Y-119571361D01*
X105546137Y-119570809D01*
X105546136Y-119570807D01*
X105541296Y-119555911D01*
X105532088Y-119543237D01*
X105531741Y-119542759D01*
X105515427Y-119516137D01*
X105515160Y-119515613D01*
X105508050Y-119501658D01*
X105485487Y-119479095D01*
X105485484Y-119479091D01*
X105061327Y-119054934D01*
X105014208Y-118979946D01*
X105004744Y-118940197D01*
X105002685Y-118924562D01*
X104996330Y-118876291D01*
X104940861Y-118742375D01*
X104852621Y-118627379D01*
X104737625Y-118539139D01*
X104725576Y-118534148D01*
X104725574Y-118534147D01*
X104615759Y-118488661D01*
X104615758Y-118488661D01*
X104603709Y-118483670D01*
X104460000Y-118464750D01*
X104316291Y-118483670D01*
X104304242Y-118488661D01*
X104304241Y-118488661D01*
X104194426Y-118534147D01*
X104194424Y-118534148D01*
X104182375Y-118539139D01*
X104067379Y-118627379D01*
X103979139Y-118742375D01*
X103974148Y-118754424D01*
X103974147Y-118754426D01*
X103928661Y-118864241D01*
X103923670Y-118876291D01*
X103904750Y-119020000D01*
X103923670Y-119163709D01*
X103928661Y-119175758D01*
X103928661Y-119175759D01*
X103969509Y-119274375D01*
X103979139Y-119297625D01*
X104067379Y-119412621D01*
X104182375Y-119500861D01*
X104194424Y-119505852D01*
X104194426Y-119505853D01*
X104219255Y-119516137D01*
X104316291Y-119556330D01*
X104364562Y-119562685D01*
X104380197Y-119564744D01*
X104463229Y-119595553D01*
X104494934Y-119621327D01*
X104721214Y-119847607D01*
X104768333Y-119922595D01*
X104779500Y-119988321D01*
X104779500Y-120311211D01*
X104759793Y-120397554D01*
X104704574Y-120466795D01*
X104624782Y-120505222D01*
X104536218Y-120505222D01*
X104520329Y-120500896D01*
X104429864Y-120472199D01*
X104410920Y-120468172D01*
X104272264Y-120452620D01*
X104261177Y-120452000D01*
X104186423Y-120452000D01*
X104167453Y-120456330D01*
X104164000Y-120463500D01*
X104164000Y-122445577D01*
X104168330Y-122464547D01*
X104175500Y-122468000D01*
X104254881Y-122468000D01*
X104264578Y-122467526D01*
X104397045Y-122454537D01*
X104416059Y-122450772D01*
X104522982Y-122418490D01*
X104611336Y-122412400D01*
X104693582Y-122445248D01*
X104753431Y-122510529D01*
X104779029Y-122595312D01*
X104779500Y-122608996D01*
X104779500Y-128951211D01*
X104759793Y-129037554D01*
X104704574Y-129106795D01*
X104624782Y-129145222D01*
X104536218Y-129145222D01*
X104520329Y-129140896D01*
X104429864Y-129112199D01*
X104410920Y-129108172D01*
X104272264Y-129092620D01*
X104261177Y-129092000D01*
X104186423Y-129092000D01*
X104167453Y-129096330D01*
X104164000Y-129103500D01*
X104164000Y-131085577D01*
X104168802Y-131106618D01*
X104206502Y-131184901D01*
X104206502Y-131273465D01*
X104189801Y-131319528D01*
X104187910Y-131323239D01*
X104178704Y-131335910D01*
X104173864Y-131350806D01*
X104173682Y-131351366D01*
X104161732Y-131380216D01*
X104161465Y-131380739D01*
X104161464Y-131380742D01*
X104154354Y-131394696D01*
X104151813Y-131410743D01*
X104144522Y-131441110D01*
X104139500Y-131456567D01*
X104139500Y-132458433D01*
X104144339Y-132473324D01*
X104144521Y-132473884D01*
X104151813Y-132504257D01*
X104154354Y-132520304D01*
X104161464Y-132534258D01*
X104161465Y-132534261D01*
X104161732Y-132534784D01*
X104173682Y-132563634D01*
X104178704Y-132579090D01*
X104188260Y-132592242D01*
X104204575Y-132618867D01*
X104211950Y-132633342D01*
X104234513Y-132655905D01*
X104234516Y-132655909D01*
X104663592Y-133084985D01*
X104663595Y-133084987D01*
X104668394Y-133089786D01*
X104715513Y-133164774D01*
X104725429Y-133252781D01*
X104696178Y-133336374D01*
X104633554Y-133398998D01*
X104549961Y-133428249D01*
X104527680Y-133429500D01*
X103389500Y-133429500D01*
X103303157Y-133409793D01*
X103233916Y-133354574D01*
X103195489Y-133274782D01*
X103190500Y-133230500D01*
X103190500Y-131289879D01*
X103210207Y-131203536D01*
X103265426Y-131134295D01*
X103345218Y-131095868D01*
X103411683Y-131092119D01*
X103547738Y-131107380D01*
X103558822Y-131108000D01*
X103633577Y-131108000D01*
X103652547Y-131103670D01*
X103656000Y-131096500D01*
X103656000Y-129114423D01*
X103651670Y-129095453D01*
X103644500Y-129092000D01*
X103565119Y-129092000D01*
X103555422Y-129092474D01*
X103413264Y-129106413D01*
X103413027Y-129103998D01*
X103339612Y-129101868D01*
X103260967Y-129061145D01*
X103207779Y-128990331D01*
X103190500Y-128909223D01*
X103190500Y-122649879D01*
X103210207Y-122563536D01*
X103265426Y-122494295D01*
X103345218Y-122455868D01*
X103411683Y-122452119D01*
X103547738Y-122467380D01*
X103558822Y-122468000D01*
X103633577Y-122468000D01*
X103652547Y-122463670D01*
X103656000Y-122456500D01*
X103656000Y-120474423D01*
X103651670Y-120455453D01*
X103644500Y-120452000D01*
X103565119Y-120452000D01*
X103555422Y-120452474D01*
X103413264Y-120466413D01*
X103413027Y-120463998D01*
X103339612Y-120461868D01*
X103260967Y-120421145D01*
X103207779Y-120350331D01*
X103190500Y-120269223D01*
X103190500Y-113564031D01*
X103210207Y-113477688D01*
X103248786Y-113423317D01*
X103839761Y-112832342D01*
X103914749Y-112785223D01*
X103922649Y-112782786D01*
X103933709Y-112781330D01*
X103984399Y-112760334D01*
X104055574Y-112730853D01*
X104055576Y-112730852D01*
X104067625Y-112725861D01*
X104182621Y-112637621D01*
X104270861Y-112522625D01*
X104312287Y-112422614D01*
X104321339Y-112400759D01*
X104321339Y-112400758D01*
X104326330Y-112388709D01*
X104336608Y-112310643D01*
X104367415Y-112227616D01*
X104431199Y-112166175D01*
X104515325Y-112138492D01*
X104603130Y-112150052D01*
G37*
G04 #@! TD.AperFunction*
G04 #@! TA.AperFunction,Conductor*
G36*
X107093665Y-91010225D02*
G01*
X107172725Y-91050138D01*
X107186475Y-91062659D01*
X108808761Y-92684946D01*
X110391213Y-94267398D01*
X110438332Y-94342386D01*
X110449499Y-94408112D01*
X110449499Y-100922536D01*
X110448742Y-100939882D01*
X110447490Y-100954196D01*
X110445851Y-100972923D01*
X110450357Y-100989740D01*
X110450357Y-100989741D01*
X110454434Y-101004958D01*
X110458190Y-101021902D01*
X110460928Y-101037427D01*
X110460929Y-101037430D01*
X110463952Y-101054573D01*
X110471000Y-101066781D01*
X110474648Y-101080394D01*
X110486783Y-101097724D01*
X110493671Y-101107561D01*
X110502997Y-101122200D01*
X110519584Y-101150929D01*
X110532918Y-101162118D01*
X110532920Y-101162120D01*
X110544992Y-101172249D01*
X110557791Y-101183977D01*
X111766214Y-102392400D01*
X111813333Y-102467388D01*
X111824500Y-102533114D01*
X111824500Y-105472535D01*
X111823743Y-105489881D01*
X111820852Y-105522922D01*
X111825358Y-105539739D01*
X111825358Y-105539740D01*
X111829435Y-105554957D01*
X111833191Y-105571901D01*
X111835929Y-105587426D01*
X111835930Y-105587429D01*
X111838953Y-105604572D01*
X111846001Y-105616780D01*
X111849649Y-105630393D01*
X111868672Y-105657560D01*
X111877998Y-105672199D01*
X111894585Y-105700928D01*
X111907919Y-105712117D01*
X111907921Y-105712119D01*
X111919993Y-105722248D01*
X111932792Y-105733976D01*
X123286213Y-117087398D01*
X123333332Y-117162386D01*
X123344499Y-117228112D01*
X123344499Y-120195238D01*
X123324792Y-120281581D01*
X123286211Y-120335954D01*
X123277726Y-120344439D01*
X123267378Y-120352379D01*
X123259440Y-120362724D01*
X123259439Y-120362725D01*
X123250489Y-120374389D01*
X123179138Y-120467375D01*
X123174147Y-120479424D01*
X123174146Y-120479426D01*
X123128660Y-120589241D01*
X123123669Y-120601291D01*
X123104749Y-120745000D01*
X123123669Y-120888709D01*
X123179138Y-121022625D01*
X123267378Y-121137621D01*
X123382374Y-121225861D01*
X123394423Y-121230852D01*
X123394425Y-121230853D01*
X123504240Y-121276339D01*
X123516290Y-121281330D01*
X123529221Y-121283032D01*
X123541819Y-121286408D01*
X123541441Y-121287818D01*
X123611200Y-121313699D01*
X123672643Y-121377482D01*
X123700327Y-121461607D01*
X123688770Y-121549413D01*
X123642911Y-121620905D01*
X122757797Y-122506019D01*
X122744998Y-122517748D01*
X122732919Y-122527883D01*
X122732918Y-122527885D01*
X122719585Y-122539072D01*
X122710881Y-122554148D01*
X122702998Y-122567801D01*
X122693674Y-122582438D01*
X122674649Y-122609607D01*
X122671001Y-122623220D01*
X122663953Y-122635428D01*
X122660930Y-122652571D01*
X122660929Y-122652574D01*
X122658191Y-122668099D01*
X122654435Y-122685043D01*
X122650872Y-122698343D01*
X122645852Y-122717078D01*
X122647369Y-122734419D01*
X122647369Y-122734421D01*
X122648743Y-122750123D01*
X122649500Y-122767467D01*
X122649500Y-125097535D01*
X122648743Y-125114881D01*
X122645852Y-125147922D01*
X122650358Y-125164739D01*
X122650358Y-125164740D01*
X122654435Y-125179957D01*
X122658191Y-125196901D01*
X122660929Y-125212426D01*
X122660930Y-125212429D01*
X122663953Y-125229572D01*
X122671001Y-125241780D01*
X122674649Y-125255393D01*
X122693672Y-125282560D01*
X122702998Y-125297199D01*
X122719585Y-125325928D01*
X122732919Y-125337117D01*
X122732921Y-125337119D01*
X122744993Y-125347248D01*
X122757792Y-125358976D01*
X123738602Y-126339786D01*
X123785721Y-126414774D01*
X123795637Y-126502781D01*
X123766386Y-126586374D01*
X123703762Y-126648998D01*
X123620169Y-126678249D01*
X123597888Y-126679500D01*
X115869388Y-126679500D01*
X115783045Y-126659793D01*
X115713804Y-126604574D01*
X115675377Y-126524782D01*
X115676985Y-126438794D01*
X115676329Y-126438708D01*
X115677095Y-126432888D01*
X115695249Y-126294999D01*
X115676329Y-126151290D01*
X115667659Y-126130358D01*
X115625852Y-126029425D01*
X115625851Y-126029423D01*
X115620860Y-126017374D01*
X115532620Y-125902378D01*
X115458355Y-125845392D01*
X115401852Y-125777195D01*
X115380499Y-125687515D01*
X115380499Y-118517464D01*
X115381256Y-118500118D01*
X115382630Y-118484420D01*
X115382630Y-118484417D01*
X115384147Y-118467077D01*
X115375564Y-118435042D01*
X115371808Y-118418098D01*
X115369070Y-118402573D01*
X115369069Y-118402570D01*
X115366046Y-118385427D01*
X115358998Y-118373219D01*
X115355350Y-118359606D01*
X115336325Y-118332437D01*
X115327001Y-118317800D01*
X115319118Y-118304147D01*
X115310414Y-118289071D01*
X115297080Y-118277882D01*
X115297078Y-118277880D01*
X115285006Y-118267751D01*
X115272207Y-118256023D01*
X114819762Y-117803578D01*
X114772643Y-117728590D01*
X114762727Y-117640583D01*
X114791978Y-117556990D01*
X114854602Y-117494366D01*
X114938195Y-117465115D01*
X114986451Y-117465567D01*
X115047065Y-117473547D01*
X115060000Y-117475250D01*
X115203709Y-117456330D01*
X115289268Y-117420891D01*
X115325574Y-117405853D01*
X115325576Y-117405852D01*
X115337625Y-117400861D01*
X115418734Y-117338623D01*
X115499233Y-117301695D01*
X115539879Y-117297500D01*
X118453522Y-117297500D01*
X118464436Y-117298662D01*
X118464464Y-117298058D01*
X118480890Y-117298833D01*
X118496971Y-117302295D01*
X118513304Y-117300362D01*
X118513307Y-117300362D01*
X118532451Y-117298096D01*
X118538381Y-117297500D01*
X118546362Y-117297500D01*
X118554456Y-117296153D01*
X118554467Y-117296152D01*
X118563581Y-117294635D01*
X118572857Y-117293315D01*
X118605433Y-117289459D01*
X118605438Y-117289458D01*
X118621775Y-117287524D01*
X118629985Y-117283581D01*
X118638970Y-117282086D01*
X118682304Y-117258704D01*
X118690659Y-117254446D01*
X118717694Y-117241464D01*
X118777860Y-117223557D01*
X118803413Y-117220193D01*
X118908709Y-117206330D01*
X118920759Y-117201339D01*
X119030574Y-117155853D01*
X119030576Y-117155852D01*
X119042625Y-117150861D01*
X119157621Y-117062621D01*
X119245861Y-116947625D01*
X119257021Y-116920684D01*
X119296339Y-116825759D01*
X119296339Y-116825758D01*
X119301330Y-116813709D01*
X119320250Y-116670000D01*
X119301330Y-116526291D01*
X119296339Y-116514241D01*
X119250853Y-116404426D01*
X119250852Y-116404424D01*
X119245861Y-116392375D01*
X119157621Y-116277379D01*
X119042625Y-116189139D01*
X119030576Y-116184148D01*
X119030574Y-116184147D01*
X118920759Y-116138661D01*
X118920758Y-116138661D01*
X118908709Y-116133670D01*
X118765000Y-116114750D01*
X118621291Y-116133670D01*
X118609242Y-116138661D01*
X118609241Y-116138661D01*
X118499426Y-116184147D01*
X118499424Y-116184148D01*
X118487375Y-116189139D01*
X118372379Y-116277379D01*
X118284139Y-116392375D01*
X118272840Y-116419654D01*
X118221591Y-116491883D01*
X118144078Y-116534723D01*
X118088988Y-116542500D01*
X115539879Y-116542500D01*
X115453536Y-116522793D01*
X115418735Y-116501377D01*
X115347973Y-116447079D01*
X115347971Y-116447078D01*
X115337625Y-116439139D01*
X115325576Y-116434148D01*
X115325574Y-116434147D01*
X115215759Y-116388661D01*
X115215758Y-116388661D01*
X115203709Y-116383670D01*
X115060000Y-116364750D01*
X114916291Y-116383670D01*
X114904242Y-116388661D01*
X114904241Y-116388661D01*
X114794426Y-116434147D01*
X114794424Y-116434148D01*
X114782375Y-116439139D01*
X114667379Y-116527379D01*
X114579139Y-116642375D01*
X114574148Y-116654424D01*
X114574147Y-116654426D01*
X114560078Y-116688392D01*
X114523670Y-116776291D01*
X114504750Y-116920000D01*
X114506453Y-116932935D01*
X114514433Y-116993549D01*
X114506165Y-117081726D01*
X114460457Y-117157582D01*
X114386363Y-117206095D01*
X114298557Y-117217655D01*
X114214431Y-117189973D01*
X114176422Y-117160238D01*
X112496269Y-115480085D01*
X112449150Y-115405097D01*
X112437983Y-115339371D01*
X112437983Y-111474948D01*
X112438740Y-111457602D01*
X112440114Y-111441904D01*
X112440114Y-111441901D01*
X112441631Y-111424561D01*
X112433048Y-111392526D01*
X112429292Y-111375582D01*
X112426554Y-111360057D01*
X112426553Y-111360054D01*
X112423530Y-111342911D01*
X112416482Y-111330703D01*
X112412834Y-111317090D01*
X112393809Y-111289921D01*
X112384485Y-111275284D01*
X112376602Y-111261631D01*
X112367898Y-111246555D01*
X112354564Y-111235366D01*
X112354562Y-111235364D01*
X112342490Y-111225235D01*
X112329691Y-111213507D01*
X110678981Y-109562797D01*
X110667252Y-109549998D01*
X110657117Y-109537919D01*
X110657115Y-109537918D01*
X110645928Y-109524585D01*
X110617199Y-109507998D01*
X110602560Y-109498672D01*
X110589654Y-109489635D01*
X110589655Y-109489635D01*
X110575393Y-109479649D01*
X110561780Y-109476001D01*
X110549572Y-109468953D01*
X110532429Y-109465930D01*
X110532426Y-109465929D01*
X110516901Y-109463191D01*
X110499957Y-109459435D01*
X110484740Y-109455358D01*
X110484739Y-109455358D01*
X110467922Y-109450852D01*
X110450581Y-109452369D01*
X110450579Y-109452369D01*
X110434877Y-109453743D01*
X110417533Y-109454500D01*
X106003112Y-109454500D01*
X105916769Y-109434793D01*
X105862398Y-109396214D01*
X105338786Y-108872602D01*
X105291667Y-108797614D01*
X105280500Y-108731888D01*
X105280500Y-106620796D01*
X105300207Y-106534453D01*
X105355426Y-106465212D01*
X105435218Y-106426785D01*
X105523782Y-106426785D01*
X105570000Y-106443565D01*
X105696616Y-106508219D01*
X105866606Y-106549815D01*
X105877648Y-106550500D01*
X106003822Y-106550500D01*
X106009558Y-106549831D01*
X106009562Y-106549831D01*
X106051676Y-106544921D01*
X106133828Y-106535343D01*
X106144697Y-106531398D01*
X106144700Y-106531397D01*
X106287461Y-106479577D01*
X106287464Y-106479576D01*
X106298331Y-106475631D01*
X106374202Y-106425888D01*
X106435017Y-106386016D01*
X106435019Y-106386014D01*
X106444685Y-106379677D01*
X106510289Y-106310425D01*
X106557088Y-106261023D01*
X106557091Y-106261020D01*
X106565040Y-106252628D01*
X106606083Y-106181968D01*
X106647129Y-106111301D01*
X106647130Y-106111300D01*
X106652939Y-106101298D01*
X106703667Y-105933807D01*
X106714503Y-105759138D01*
X106692378Y-105630378D01*
X106686824Y-105598054D01*
X106686824Y-105598053D01*
X106684866Y-105586660D01*
X106674948Y-105563349D01*
X106620872Y-105436264D01*
X106616346Y-105425627D01*
X106512617Y-105284676D01*
X106379245Y-105171368D01*
X106223384Y-105091781D01*
X106053394Y-105050185D01*
X106042352Y-105049500D01*
X105916178Y-105049500D01*
X105910442Y-105050169D01*
X105910438Y-105050169D01*
X105868324Y-105055079D01*
X105786172Y-105064657D01*
X105775303Y-105068602D01*
X105775300Y-105068603D01*
X105632539Y-105120423D01*
X105632536Y-105120424D01*
X105621669Y-105124369D01*
X105611999Y-105130709D01*
X105588609Y-105146044D01*
X105505596Y-105176904D01*
X105417414Y-105168689D01*
X105341530Y-105123028D01*
X105292972Y-105048963D01*
X105280500Y-104979622D01*
X105280500Y-98620796D01*
X105300207Y-98534453D01*
X105355426Y-98465212D01*
X105435218Y-98426785D01*
X105523782Y-98426785D01*
X105570000Y-98443565D01*
X105696616Y-98508219D01*
X105866606Y-98549815D01*
X105877648Y-98550500D01*
X106003822Y-98550500D01*
X106009558Y-98549831D01*
X106009562Y-98549831D01*
X106051676Y-98544921D01*
X106133828Y-98535343D01*
X106144697Y-98531398D01*
X106144700Y-98531397D01*
X106287461Y-98479577D01*
X106287464Y-98479576D01*
X106298331Y-98475631D01*
X106374202Y-98425888D01*
X106435017Y-98386016D01*
X106435019Y-98386014D01*
X106444685Y-98379677D01*
X106510289Y-98310425D01*
X106557088Y-98261023D01*
X106557091Y-98261020D01*
X106565040Y-98252628D01*
X106652939Y-98101298D01*
X106703667Y-97933807D01*
X106714503Y-97759138D01*
X106684866Y-97586660D01*
X106679383Y-97573772D01*
X106620872Y-97436264D01*
X106616346Y-97425627D01*
X106512617Y-97284676D01*
X106379245Y-97171368D01*
X106223384Y-97091781D01*
X106053394Y-97050185D01*
X106042352Y-97049500D01*
X105916178Y-97049500D01*
X105910442Y-97050169D01*
X105910438Y-97050169D01*
X105868324Y-97055079D01*
X105786172Y-97064657D01*
X105775303Y-97068602D01*
X105775300Y-97068603D01*
X105632539Y-97120423D01*
X105632536Y-97120424D01*
X105621669Y-97124369D01*
X105611999Y-97130709D01*
X105588609Y-97146044D01*
X105505596Y-97176904D01*
X105417414Y-97168689D01*
X105341530Y-97123028D01*
X105292972Y-97048963D01*
X105280500Y-96979622D01*
X105280500Y-93183112D01*
X105300207Y-93096769D01*
X105338786Y-93042398D01*
X106597203Y-91783981D01*
X106610002Y-91772252D01*
X106622076Y-91762121D01*
X106622077Y-91762120D01*
X106635415Y-91750928D01*
X106652005Y-91722193D01*
X106661315Y-91707579D01*
X106680351Y-91680394D01*
X106683999Y-91666780D01*
X106691047Y-91654572D01*
X106695566Y-91628947D01*
X106696811Y-91621889D01*
X106700566Y-91604950D01*
X106704641Y-91589740D01*
X106709147Y-91572922D01*
X106706257Y-91539885D01*
X106705500Y-91522544D01*
X106705500Y-91312465D01*
X106706257Y-91295119D01*
X106709148Y-91262078D01*
X106711958Y-91262324D01*
X106720500Y-91200421D01*
X106769473Y-91126630D01*
X106830481Y-91086957D01*
X106917625Y-91050861D01*
X106927973Y-91042921D01*
X106939271Y-91036398D01*
X106940355Y-91038276D01*
X107005117Y-91008568D01*
X107093665Y-91010225D01*
G37*
G04 #@! TD.AperFunction*
G04 #@! TA.AperFunction,Conductor*
G36*
X120844731Y-70099707D02*
G01*
X120913972Y-70154926D01*
X120952399Y-70234718D01*
X120952399Y-70323282D01*
X120913972Y-70403074D01*
X120899102Y-70419714D01*
X119797797Y-71521019D01*
X119784998Y-71532748D01*
X119772919Y-71542883D01*
X119772918Y-71542885D01*
X119759585Y-71554072D01*
X119750881Y-71569148D01*
X119742998Y-71582801D01*
X119733674Y-71597438D01*
X119714649Y-71624607D01*
X119711001Y-71638220D01*
X119703953Y-71650428D01*
X119700930Y-71667571D01*
X119700929Y-71667574D01*
X119698191Y-71683099D01*
X119694435Y-71700043D01*
X119685852Y-71732078D01*
X119687369Y-71749419D01*
X119687369Y-71749421D01*
X119688743Y-71765123D01*
X119689500Y-71782467D01*
X119689500Y-83436888D01*
X119669793Y-83523231D01*
X119631214Y-83577602D01*
X119157798Y-84051018D01*
X119144999Y-84062747D01*
X119132920Y-84072882D01*
X119132919Y-84072884D01*
X119119586Y-84084071D01*
X119110882Y-84099147D01*
X119102999Y-84112800D01*
X119093675Y-84127437D01*
X119074650Y-84154606D01*
X119071002Y-84168219D01*
X119063954Y-84180427D01*
X119060931Y-84197570D01*
X119060930Y-84197573D01*
X119058192Y-84213098D01*
X119054436Y-84230042D01*
X119045853Y-84262077D01*
X119047370Y-84279418D01*
X119047370Y-84279420D01*
X119048744Y-84295122D01*
X119049501Y-84312466D01*
X119049501Y-85372536D01*
X119048744Y-85389882D01*
X119045853Y-85422923D01*
X119050359Y-85439740D01*
X119050359Y-85439741D01*
X119054436Y-85454958D01*
X119058192Y-85471902D01*
X119060930Y-85487427D01*
X119060931Y-85487430D01*
X119063954Y-85504573D01*
X119071002Y-85516781D01*
X119074650Y-85530394D01*
X119084637Y-85544657D01*
X119091994Y-85560433D01*
X119088888Y-85561882D01*
X119111431Y-85617290D01*
X119112335Y-85675361D01*
X119111452Y-85682067D01*
X119111452Y-85682072D01*
X119109750Y-85695000D01*
X119128670Y-85838709D01*
X119184139Y-85972625D01*
X119192077Y-85982970D01*
X119192081Y-85982977D01*
X119250690Y-86059357D01*
X119287618Y-86139854D01*
X119285962Y-86228402D01*
X119246050Y-86307462D01*
X119175788Y-86361376D01*
X119092813Y-86379500D01*
X108528113Y-86379500D01*
X108441770Y-86359793D01*
X108387399Y-86321214D01*
X107778981Y-85712797D01*
X107767252Y-85699998D01*
X107757117Y-85687919D01*
X107757115Y-85687918D01*
X107745928Y-85674585D01*
X107717199Y-85657998D01*
X107702560Y-85648672D01*
X107675393Y-85629649D01*
X107661780Y-85626001D01*
X107649572Y-85618953D01*
X107632429Y-85615930D01*
X107632426Y-85615929D01*
X107616901Y-85613191D01*
X107599957Y-85609435D01*
X107584740Y-85605358D01*
X107584739Y-85605358D01*
X107567922Y-85600852D01*
X107550581Y-85602369D01*
X107550579Y-85602369D01*
X107534877Y-85603743D01*
X107517533Y-85604500D01*
X106864762Y-85604500D01*
X106778419Y-85584793D01*
X106724046Y-85546212D01*
X106715561Y-85537727D01*
X106707621Y-85527379D01*
X106693810Y-85516781D01*
X106624177Y-85463350D01*
X106592625Y-85439139D01*
X106580576Y-85434148D01*
X106580574Y-85434147D01*
X106470759Y-85388661D01*
X106470758Y-85388661D01*
X106458709Y-85383670D01*
X106315000Y-85364750D01*
X106171291Y-85383670D01*
X106105651Y-85410858D01*
X106018342Y-85425693D01*
X105933240Y-85401175D01*
X105867203Y-85342161D01*
X105833312Y-85260339D01*
X105830500Y-85227006D01*
X105830500Y-84020714D01*
X105850207Y-83934371D01*
X105888786Y-83880000D01*
X107012210Y-82756577D01*
X107025009Y-82744848D01*
X107037083Y-82734717D01*
X107037084Y-82734716D01*
X107050416Y-82723529D01*
X107059120Y-82708454D01*
X107067000Y-82694806D01*
X107076327Y-82680166D01*
X107085367Y-82667255D01*
X107095353Y-82652994D01*
X107099001Y-82639378D01*
X107106048Y-82627173D01*
X107111809Y-82594501D01*
X107115561Y-82577575D01*
X107124149Y-82545522D01*
X107121258Y-82512477D01*
X107120501Y-82495134D01*
X107120501Y-81537466D01*
X107121258Y-81520120D01*
X107122632Y-81504422D01*
X107122632Y-81504419D01*
X107124149Y-81487079D01*
X107115566Y-81455044D01*
X107111810Y-81438100D01*
X107109072Y-81422575D01*
X107109071Y-81422572D01*
X107106048Y-81405429D01*
X107099000Y-81393221D01*
X107095352Y-81379608D01*
X107076327Y-81352439D01*
X107067003Y-81337802D01*
X107059120Y-81324149D01*
X107050416Y-81309073D01*
X107037082Y-81297884D01*
X107037080Y-81297882D01*
X107025008Y-81287753D01*
X107012209Y-81276025D01*
X106920791Y-81184607D01*
X106873672Y-81109619D01*
X106866069Y-81035975D01*
X106863547Y-81035975D01*
X106863547Y-81022935D01*
X106865250Y-81010000D01*
X106846330Y-80866291D01*
X106841339Y-80854241D01*
X106795853Y-80744426D01*
X106795852Y-80744424D01*
X106790861Y-80732375D01*
X106702621Y-80617379D01*
X106587625Y-80529139D01*
X106589801Y-80526303D01*
X106542165Y-80482106D01*
X106509807Y-80399665D01*
X106516422Y-80311349D01*
X106560702Y-80234650D01*
X106588729Y-80212299D01*
X106587625Y-80210861D01*
X106692276Y-80130559D01*
X106702621Y-80122621D01*
X106790861Y-80007625D01*
X106837243Y-79895649D01*
X106841339Y-79885759D01*
X106841339Y-79885758D01*
X106846330Y-79873709D01*
X106865250Y-79730000D01*
X106846330Y-79586291D01*
X106839003Y-79568602D01*
X106795853Y-79464426D01*
X106795852Y-79464424D01*
X106790861Y-79452375D01*
X106702621Y-79337379D01*
X106587625Y-79249139D01*
X106575576Y-79244148D01*
X106575574Y-79244147D01*
X106465759Y-79198661D01*
X106465758Y-79198661D01*
X106453709Y-79193670D01*
X106310000Y-79174750D01*
X106166291Y-79193670D01*
X106154242Y-79198661D01*
X106154241Y-79198661D01*
X106044426Y-79244147D01*
X106044424Y-79244148D01*
X106032375Y-79249139D01*
X105917379Y-79337379D01*
X105829139Y-79452375D01*
X105824148Y-79464424D01*
X105824147Y-79464426D01*
X105780997Y-79568602D01*
X105773670Y-79586291D01*
X105754750Y-79730000D01*
X105756453Y-79742935D01*
X105756453Y-79754935D01*
X105736746Y-79841278D01*
X105698167Y-79895649D01*
X105135204Y-80458612D01*
X105060216Y-80505731D01*
X104972209Y-80515647D01*
X104888616Y-80486396D01*
X104825992Y-80423772D01*
X104796741Y-80340179D01*
X104795490Y-80317898D01*
X104795490Y-77733122D01*
X104815197Y-77646779D01*
X104853776Y-77592408D01*
X104932398Y-77513786D01*
X105007386Y-77466667D01*
X105073112Y-77455500D01*
X105760238Y-77455500D01*
X105846581Y-77475207D01*
X105900954Y-77513788D01*
X105909439Y-77522273D01*
X105917379Y-77532621D01*
X105927724Y-77540559D01*
X105927725Y-77540560D01*
X105957149Y-77563137D01*
X106032375Y-77620861D01*
X106044424Y-77625852D01*
X106044426Y-77625853D01*
X106154241Y-77671339D01*
X106166291Y-77676330D01*
X106310000Y-77695250D01*
X106453709Y-77676330D01*
X106465759Y-77671339D01*
X106575574Y-77625853D01*
X106575576Y-77625852D01*
X106587625Y-77620861D01*
X106702621Y-77532621D01*
X106790861Y-77417625D01*
X106846330Y-77283709D01*
X106865250Y-77140000D01*
X106846330Y-76996291D01*
X106790861Y-76862375D01*
X106702621Y-76747379D01*
X106587625Y-76659139D01*
X106575576Y-76654148D01*
X106575574Y-76654147D01*
X106465759Y-76608661D01*
X106465758Y-76608661D01*
X106453709Y-76603670D01*
X106310000Y-76584750D01*
X106166291Y-76603670D01*
X106154242Y-76608661D01*
X106154241Y-76608661D01*
X106044426Y-76654147D01*
X106044424Y-76654148D01*
X106032375Y-76659139D01*
X105986370Y-76694440D01*
X105930766Y-76737107D01*
X105917379Y-76747379D01*
X105909439Y-76757727D01*
X105900954Y-76766212D01*
X105825966Y-76813332D01*
X105760238Y-76824500D01*
X104882455Y-76824500D01*
X104865111Y-76823743D01*
X104849421Y-76822370D01*
X104849419Y-76822370D01*
X104832078Y-76820853D01*
X104800046Y-76829436D01*
X104783100Y-76833192D01*
X104767577Y-76835929D01*
X104767576Y-76835929D01*
X104750428Y-76838953D01*
X104738220Y-76846002D01*
X104724607Y-76849649D01*
X104710341Y-76859639D01*
X104698598Y-76865114D01*
X104612016Y-76883741D01*
X104525926Y-76862958D01*
X104457379Y-76806880D01*
X104419952Y-76726613D01*
X104415500Y-76684757D01*
X104415500Y-73412455D01*
X104416257Y-73395111D01*
X104417630Y-73379421D01*
X104417630Y-73379419D01*
X104419147Y-73362078D01*
X104410566Y-73330050D01*
X104406811Y-73313111D01*
X104404071Y-73297575D01*
X104404070Y-73297573D01*
X104401047Y-73280428D01*
X104393999Y-73268220D01*
X104390351Y-73254606D01*
X104371315Y-73227421D01*
X104362005Y-73212807D01*
X104345415Y-73184072D01*
X104320006Y-73162751D01*
X104307208Y-73151024D01*
X103430791Y-72274607D01*
X103383672Y-72199619D01*
X103376069Y-72125975D01*
X103373547Y-72125975D01*
X103373547Y-72112935D01*
X103375250Y-72100000D01*
X103356330Y-71956291D01*
X103319810Y-71868123D01*
X103305853Y-71834426D01*
X103305852Y-71834424D01*
X103300861Y-71822375D01*
X103212621Y-71707379D01*
X103097625Y-71619139D01*
X103085576Y-71614148D01*
X103085574Y-71614147D01*
X102975759Y-71568661D01*
X102975758Y-71568661D01*
X102963709Y-71563670D01*
X102820000Y-71544750D01*
X102676291Y-71563670D01*
X102664242Y-71568661D01*
X102664241Y-71568661D01*
X102554426Y-71614147D01*
X102554424Y-71614148D01*
X102542375Y-71619139D01*
X102532027Y-71627079D01*
X102532024Y-71627081D01*
X102530142Y-71628525D01*
X102527128Y-71629908D01*
X102520729Y-71633602D01*
X102520383Y-71633002D01*
X102449644Y-71665452D01*
X102361097Y-71663795D01*
X102282037Y-71623883D01*
X102228123Y-71553621D01*
X102210000Y-71470647D01*
X102210000Y-70279000D01*
X102229707Y-70192657D01*
X102284926Y-70123416D01*
X102364718Y-70084989D01*
X102409000Y-70080000D01*
X120758388Y-70080000D01*
X120844731Y-70099707D01*
G37*
G04 #@! TD.AperFunction*
M02*
